<mxfile host="65bd71144e">
    <diagram name="Page-1" id="up9xCr17pzC3vuljdTuD">
        <mxGraphModel dx="1312" dy="743" grid="1" gridSize="10" guides="1" tooltips="1" connect="1" arrows="1" fold="1" page="1" pageScale="1" pageWidth="850" pageHeight="1100" math="0" shadow="0">
            <root>
                <mxCell id="0"/>
                <mxCell id="1" parent="0"/>
                <mxCell id="IDKSLfoBvOOnQwNbsrg4-7" value="" style="group" parent="1" vertex="1" connectable="0">
                    <mxGeometry x="360" y="360" width="120" height="80" as="geometry"/>
                </mxCell>
                <mxCell id="IDKSLfoBvOOnQwNbsrg4-1" value="Higher Pitch Doot" style="rounded=0;whiteSpace=wrap;html=1;fillColor=#6d8764;fontColor=#ffffff;strokeColor=#3A5431;" parent="IDKSLfoBvOOnQwNbsrg4-7" vertex="1">
                    <mxGeometry width="120" height="80" as="geometry"/>
                </mxCell>
                <mxCell id="IDKSLfoBvOOnQwNbsrg4-5" value="Binary: 0" style="shape=hexagon;perimeter=hexagonPerimeter2;whiteSpace=wrap;html=1;fixedSize=1;" parent="IDKSLfoBvOOnQwNbsrg4-7" vertex="1">
                    <mxGeometry y="60" width="120" height="20" as="geometry"/>
                </mxCell>
                <mxCell id="IDKSLfoBvOOnQwNbsrg4-8" value="" style="group" parent="1" vertex="1" connectable="0">
                    <mxGeometry x="480" y="360" width="120" height="80" as="geometry"/>
                </mxCell>
                <mxCell id="IDKSLfoBvOOnQwNbsrg4-4" value="Lower Pitch Doot" style="rounded=0;whiteSpace=wrap;html=1;fillColor=#a0522d;fontColor=#ffffff;strokeColor=#6D1F00;" parent="IDKSLfoBvOOnQwNbsrg4-8" vertex="1">
                    <mxGeometry width="120" height="80" as="geometry"/>
                </mxCell>
                <mxCell id="IDKSLfoBvOOnQwNbsrg4-6" value="Binary: 1" style="shape=hexagon;perimeter=hexagonPerimeter2;whiteSpace=wrap;html=1;fixedSize=1;" parent="IDKSLfoBvOOnQwNbsrg4-8" vertex="1">
                    <mxGeometry y="60" width="120" height="20" as="geometry"/>
                </mxCell>
                <mxCell id="IDKSLfoBvOOnQwNbsrg4-9" value="&lt;font style=&quot;font-size: 18px;&quot;&gt;0b01001000, &#39;H&#39;&lt;/font&gt;" style="rounded=0;whiteSpace=wrap;html=1;" parent="1" vertex="1">
                    <mxGeometry x="360" y="440" width="960" height="40" as="geometry"/>
                </mxCell>
                <mxCell id="IDKSLfoBvOOnQwNbsrg4-10" value="" style="group" parent="1" vertex="1" connectable="0">
                    <mxGeometry x="600" y="360" width="120" height="80" as="geometry"/>
                </mxCell>
                <mxCell id="IDKSLfoBvOOnQwNbsrg4-11" value="Higher Pitch Doot" style="rounded=0;whiteSpace=wrap;html=1;fillColor=#6d8764;fontColor=#ffffff;strokeColor=#3A5431;" parent="IDKSLfoBvOOnQwNbsrg4-10" vertex="1">
                    <mxGeometry width="120" height="80" as="geometry"/>
                </mxCell>
                <mxCell id="IDKSLfoBvOOnQwNbsrg4-12" value="Binary: 0" style="shape=hexagon;perimeter=hexagonPerimeter2;whiteSpace=wrap;html=1;fixedSize=1;" parent="IDKSLfoBvOOnQwNbsrg4-10" vertex="1">
                    <mxGeometry y="60" width="120" height="20" as="geometry"/>
                </mxCell>
                <mxCell id="IDKSLfoBvOOnQwNbsrg4-13" value="" style="group" parent="1" vertex="1" connectable="0">
                    <mxGeometry x="720" y="360" width="120" height="80" as="geometry"/>
                </mxCell>
                <mxCell id="IDKSLfoBvOOnQwNbsrg4-14" value="Higher Pitch Doot" style="rounded=0;whiteSpace=wrap;html=1;fillColor=#6d8764;fontColor=#ffffff;strokeColor=#3A5431;" parent="IDKSLfoBvOOnQwNbsrg4-13" vertex="1">
                    <mxGeometry width="120" height="80" as="geometry"/>
                </mxCell>
                <mxCell id="IDKSLfoBvOOnQwNbsrg4-15" value="Binary: 0" style="shape=hexagon;perimeter=hexagonPerimeter2;whiteSpace=wrap;html=1;fixedSize=1;" parent="IDKSLfoBvOOnQwNbsrg4-13" vertex="1">
                    <mxGeometry y="60" width="120" height="20" as="geometry"/>
                </mxCell>
                <mxCell id="IDKSLfoBvOOnQwNbsrg4-16" value="" style="group" parent="1" vertex="1" connectable="0">
                    <mxGeometry x="960" y="360" width="120" height="80" as="geometry"/>
                </mxCell>
                <mxCell id="IDKSLfoBvOOnQwNbsrg4-17" value="Higher Pitch Doot" style="rounded=0;whiteSpace=wrap;html=1;fillColor=#6d8764;fontColor=#ffffff;strokeColor=#3A5431;" parent="IDKSLfoBvOOnQwNbsrg4-16" vertex="1">
                    <mxGeometry width="120" height="80" as="geometry"/>
                </mxCell>
                <mxCell id="IDKSLfoBvOOnQwNbsrg4-18" value="Binary: 0" style="shape=hexagon;perimeter=hexagonPerimeter2;whiteSpace=wrap;html=1;fixedSize=1;" parent="IDKSLfoBvOOnQwNbsrg4-16" vertex="1">
                    <mxGeometry y="60" width="120" height="20" as="geometry"/>
                </mxCell>
                <mxCell id="IDKSLfoBvOOnQwNbsrg4-19" value="" style="group" parent="1" vertex="1" connectable="0">
                    <mxGeometry x="840" y="360" width="120" height="80" as="geometry"/>
                </mxCell>
                <mxCell id="IDKSLfoBvOOnQwNbsrg4-20" value="Lower Pitch Doot" style="rounded=0;whiteSpace=wrap;html=1;fillColor=#a0522d;fontColor=#ffffff;strokeColor=#6D1F00;" parent="IDKSLfoBvOOnQwNbsrg4-19" vertex="1">
                    <mxGeometry width="120" height="80" as="geometry"/>
                </mxCell>
                <mxCell id="IDKSLfoBvOOnQwNbsrg4-21" value="Binary: 1" style="shape=hexagon;perimeter=hexagonPerimeter2;whiteSpace=wrap;html=1;fixedSize=1;" parent="IDKSLfoBvOOnQwNbsrg4-19" vertex="1">
                    <mxGeometry y="60" width="120" height="20" as="geometry"/>
                </mxCell>
                <mxCell id="IDKSLfoBvOOnQwNbsrg4-22" value="" style="group" parent="1" vertex="1" connectable="0">
                    <mxGeometry x="1080" y="360" width="120" height="80" as="geometry"/>
                </mxCell>
                <mxCell id="IDKSLfoBvOOnQwNbsrg4-23" value="Higher Pitch Doot" style="rounded=0;whiteSpace=wrap;html=1;fillColor=#6d8764;fontColor=#ffffff;strokeColor=#3A5431;" parent="IDKSLfoBvOOnQwNbsrg4-22" vertex="1">
                    <mxGeometry width="120" height="80" as="geometry"/>
                </mxCell>
                <mxCell id="IDKSLfoBvOOnQwNbsrg4-24" value="Binary: 0" style="shape=hexagon;perimeter=hexagonPerimeter2;whiteSpace=wrap;html=1;fixedSize=1;" parent="IDKSLfoBvOOnQwNbsrg4-22" vertex="1">
                    <mxGeometry y="60" width="120" height="20" as="geometry"/>
                </mxCell>
                <mxCell id="IDKSLfoBvOOnQwNbsrg4-25" value="" style="group" parent="1" vertex="1" connectable="0">
                    <mxGeometry x="1200" y="360" width="120" height="80" as="geometry"/>
                </mxCell>
                <mxCell id="IDKSLfoBvOOnQwNbsrg4-26" value="Higher Pitch Doot" style="rounded=0;whiteSpace=wrap;html=1;fillColor=#6d8764;fontColor=#ffffff;strokeColor=#3A5431;" parent="IDKSLfoBvOOnQwNbsrg4-25" vertex="1">
                    <mxGeometry width="120" height="80" as="geometry"/>
                </mxCell>
                <mxCell id="IDKSLfoBvOOnQwNbsrg4-27" value="Binary: 0" style="shape=hexagon;perimeter=hexagonPerimeter2;whiteSpace=wrap;html=1;fixedSize=1;" parent="IDKSLfoBvOOnQwNbsrg4-25" vertex="1">
                    <mxGeometry y="60" width="120" height="20" as="geometry"/>
                </mxCell>
                <mxCell id="IDKSLfoBvOOnQwNbsrg4-56" value="&lt;font style=&quot;font-size: 12px;&quot;&gt;0.1 seconds&lt;/font&gt;" style="text;html=1;align=center;verticalAlign=middle;whiteSpace=wrap;rounded=0;fillColor=#1ba1e2;fontColor=#ffffff;strokeColor=#006EAF;" parent="1" vertex="1">
                    <mxGeometry x="720.33" y="560" width="120" height="20" as="geometry"/>
                </mxCell>
                <mxCell id="IDKSLfoBvOOnQwNbsrg4-57" value="" style="endArrow=none;dashed=1;html=1;dashPattern=1 1;strokeWidth=2;rounded=0;fillColor=#1ba1e2;strokeColor=#006EAF;" parent="1" edge="1">
                    <mxGeometry width="50" height="50" relative="1" as="geometry">
                        <mxPoint x="720" y="560" as="sourcePoint"/>
                        <mxPoint x="720" y="500" as="targetPoint"/>
                    </mxGeometry>
                </mxCell>
                <mxCell id="IDKSLfoBvOOnQwNbsrg4-58" value="" style="endArrow=none;dashed=1;html=1;dashPattern=1 1;strokeWidth=2;rounded=0;fillColor=#1ba1e2;strokeColor=#006EAF;" parent="1" edge="1">
                    <mxGeometry width="50" height="50" relative="1" as="geometry">
                        <mxPoint x="840" y="560" as="sourcePoint"/>
                        <mxPoint x="840" y="500" as="targetPoint"/>
                    </mxGeometry>
                </mxCell>
                <mxCell id="IDKSLfoBvOOnQwNbsrg4-59" value="&lt;font style=&quot;font-size: 12px;&quot;&gt;0.8 seconds&lt;/font&gt;" style="text;html=1;align=center;verticalAlign=middle;whiteSpace=wrap;rounded=0;fillColor=#1ba1e2;fontColor=#ffffff;strokeColor=#006EAF;" parent="1" vertex="1">
                    <mxGeometry x="360" y="580" width="120" height="20" as="geometry"/>
                </mxCell>
                <mxCell id="IDKSLfoBvOOnQwNbsrg4-60" value="" style="endArrow=none;dashed=1;html=1;dashPattern=1 1;strokeWidth=2;rounded=0;fillColor=#1ba1e2;strokeColor=#006EAF;entryX=0;entryY=1;entryDx=0;entryDy=0;" parent="1" edge="1" target="IDKSLfoBvOOnQwNbsrg4-9">
                    <mxGeometry width="50" height="50" relative="1" as="geometry">
                        <mxPoint x="360" y="580" as="sourcePoint"/>
                        <mxPoint x="360.36" y="560" as="targetPoint"/>
                    </mxGeometry>
                </mxCell>
                <mxCell id="IDKSLfoBvOOnQwNbsrg4-61" value="" style="endArrow=none;dashed=1;html=1;dashPattern=1 1;strokeWidth=2;rounded=0;fillColor=#1ba1e2;strokeColor=#006EAF;entryX=1;entryY=1;entryDx=0;entryDy=0;" parent="1" edge="1" target="IDKSLfoBvOOnQwNbsrg4-9">
                    <mxGeometry width="50" height="50" relative="1" as="geometry">
                        <mxPoint x="1319.29" y="600" as="sourcePoint"/>
                        <mxPoint x="1320" y="580" as="targetPoint"/>
                    </mxGeometry>
                </mxCell>
                <mxCell id="IDKSLfoBvOOnQwNbsrg4-62" value="" style="endArrow=none;html=1;strokeWidth=2;rounded=0;fillColor=#1ba1e2;strokeColor=#006EAF;" parent="1" edge="1">
                    <mxGeometry width="50" height="50" relative="1" as="geometry">
                        <mxPoint x="480.35" y="600" as="sourcePoint"/>
                        <mxPoint x="1320" y="600" as="targetPoint"/>
                    </mxGeometry>
                </mxCell>
                <mxCell id="IDKSLfoBvOOnQwNbsrg4-74" value="" style="shape=image;verticalLabelPosition=bottom;labelBackgroundColor=default;verticalAlign=top;imageAspect=0;image=data:image/png,iVBORw0KGgoAAAANSUhEUgAAAMoAAAEUCAIAAADlRD4UAAAACXBIWXMAAA7EAAAOxAGVKw4bAAAgAElEQVR4nO2dWXMbV5LvM08tAAo7SHARqY3abcseb9HuHvW4J6I7or/o/QL3YSbmqa3umelx+063WnZrsU1JlGhSXAAQBFAAajl5H7JQKIJYSUCUzPMLhcPBBSwU/pWZJzNPHvzqq69AoZgN4qwvQPFzRslLMUOUvBQzRMlLMUOUvBQzRMlLMUOUvBQzRMlLMUOUvBQzRMlLMUOUvBQzRMlLMUOUvBQzRMlLMUOUvBQzRMlLMUOUvBQzRMlLMUOUvBQzRMlLMUOUvBQzRMlLMUOUvBQzRMlLMUOUvBQzRMlLMUOUvBQzRMlLMUOUvBQzRMlLMUOUvBQzRMlLMUOUvBQzRMlLMUP0s76AnxVEUCrhixcik6G1Namf+7urrNfUIAIieP0av/pKf/hQcxw86ys6e8798zU9pATHgXYbXRekPOureTtQ1mtqEIHjoOOAlEB01lfzdqDkNTV8H9ptaLdRma4QJa+pISW0Wug4ynR1UfKaGlJiuw3ttgq8uih5TQ0pod0Gx0FlvUKUvKaGlNBuo7JeUZS8poaU0GqBir2iKHlNjY71QiKVUA1Q8poaHHsp5xhFyWtq+D60Wmy9zvpS3hqUvKZGZ+WorFcXJa+pISW2WtBuq9C+i5LX1JCSa46qKNRFyWtqEIHrgusq69VFyWuaKGH1oOQ1NbidUCksipKXYoYoeSlmiJKXYoYoeSlmiJKXYoYoeSlmiJKXYoYoeSlmiJKXYoYoeSlmyFhDADwPWi1EhHicNG3Wl6T4+TBaXlLCwQE+eKAJAZ984udyqqimGJcRzpEIfB8OD/GHH8T6umg238xVKX4mjJZXu43NJnqe6gVQTMxoebVaYNvA8lIKU0zECHlJCc0mNBrg+2/mehQ/K0Zbr2YTbRs9T20NVUzMaOvVaoFto7JeihMwTuyFtq2co+IkjLRe2GxCo4Ge92auR/GzQlkvxQwZkbXngY6d0L5PWoIIPA+kBF0HVS9S9DBOWhVarYE7j10XHj7UvvpK39lRS0tFL6Pl5boDhwrxtvf1dfHggVapKHkpehndkMNT2vvm6z0P2m2V0FcMZKyGnEHS8Txst897OZKjz4MD3NlBddBLD6c69IWtl++f63tKBLUafvON9vixVqmgEGq+V5fTyqvVOtc5C45NGw3c20PbhgsXpOvC69eqBzjgVDeiY72mdTHvHp2aLBgGrKzQr3/tf/aZn0ye41jhKKe3Xue9HMlVDdOERIKKRSkEGsZZX9Nbwynlhcp6NZvYaIBhkGWBpgFi8O88L3dCTuscHedcWy+irvVKpYCPn0UMvqUUdip58RFz53mh1LFeLK8j26iUvOCU8nJdaLfxPCcmiMC2odEAw4BUinQdEEEIAgDfP9cPHnNK54itFpznXp2I9aJkkjSNEIMITEpQp7+oxMSp4JJ/swmGAclkEHsJEcrrrK/vrDmtvM55WhUgmGVvGBCPEwtLCADlHAFgGitHcc7lxSE8q4pTEsp6hZw29lI1R+iU/DkfwbEXAEiprJdyjtMmtF6+r6zX2PJis9+D56kDwPrQcY7q5L3x5BUWOiDS+8XTTc551v44YWivnCOMX3MUAhCJV0N8+wZlpctlfPlStFoAABcu0KVL5+seh85RZe1hTHlxJprjCd8HIYAoWBkdd5o7O/iHP2ilkgCAL7/0zpu8ADhrT2rlCOPLS9dBCPB99H0yjEBeAHC8OdP3od1Gtl6uO/ULftuJhvbKOY4rL01jeYHvIxERgZTYsWq9MX8ovnNItOaorNe4oT3vkmXnCEFcTwAgxHF1nRfCpygaIUTSqmrlOIm82A/yQxl1judWXlIGKWVNA8RAStGStpTn9dZ0GDfvxc7R87rWi+8dh/znE9eFZhOECKqNTDQxoazX+LEXrxzR90lZL8Z1sdnkeexH5mu8PTVHbug4PETDgEzmDIbGj+kcKRJ7IXRyqnC+5eU40GyipkEiQXrnOQ1rjme+cmQrsLsr/vhH/cEDrd0+g89popUjcWhPBERB3Mrp1tle49uK66JtgxBkWRgahrfHOfIezIMDfPFCOI48k65PMc4tiOS9ugXsMPaa5eW91TgO2DYIwdarG9qHzvFsrRcPz+J24rM6Rl6XcvRcrkje60jsFd7KcZASmk3c3kYAWFmhROKd1yU7R5ZXj/Viz3i21ounejebyJ+X64Lvg36qnYcTM1YzICLoOvFdYxs7aWjPsVq5DP/zP9rXX2vV6umu+u3AccC2OfY68rG9JaG974NtQ6sVFEAd5wwmmOpjyysI7dknTiovKaFex1JJVCpomrw+eOetF8deySRY1hHrpWlBBudsnaPvo20jywsAWi1wXYzHp3DbeaLgzg6WSnj1qlxaGviaYpxe06NFod606jhICdUqlkrYbv98ctmd2Iui1uutir2aTWy1kJNK7fbUSsCtFpbL+OCB9h//oW9sDFPA+M7xSGgfTUyMozDfh4MD3N/HdnusN/BOEMZelkWaFob29JYUhTj2areDzy4c9Hd6dnbwm2+0V6+E66Lj4JCWUn0cf3w8tOfqEAT1kNGvICWyvByn2wv1rifMXBcHxF4EgG9H7IVReZ3MekkZBNzhaJbdXXzwQPM8iMWIx9gkEtTXykwQe/VYr2jsNVIoUkK1CuUySgmaRq5LrguG8a4qjB8Px4FWKygK9awcEadmKk6M70OziY6DsRjoOrXb6LqTXVA4ePHxYw2R7t6V6TR5HkqJug65HOXz1GrBxoZYXZX5fJ8Xn2DlGHZM9MRe/C9sMOyLlNBoYK0W/Irrouuefc3kxHBs4HngeaBpEIt1I4S3YacQL6QqFaxW0XEgHifDAMcB153saeY96Ds74ttvxePHWqOBUgJ/cIYB8/N06ZJst/HlS9Fo9H/liUP70JmGaVXDAF0n3wfHGaYY9oamCboOngeu+w7H+K4Lto0AgVvsacjhf2cYezWb+Ne/avfv65ub6HnYkdfEiQnPg50dfPUKWVjcx8CfsmlSsUhXrkjXhc1NbDT6v8K4sZeugxDkeej7QUUotF6GQYbB2zpGZO0Q0TCkroProufRuysvzwtuqGXRcRcfKQqNeHRrNTw46KqQPY5lnfa+uC68fIkvXohcjubnZSZDQkC9jpPGXqG8bBsyGYDOqHkiME3IZmlhgaSEcnngzOJxY69otyp0Yi/+OhskKdF1UcpubYSJhvCIZJqg6+S64DiTvdW3CrZeiGBZEJaDmIl2Cm1siP/+by38CNJp+uUv/WvXpvDYEUEmQ1984S8uStuGSgUdBydyjkTguri7K376STSbQZ4y9FGmSbEYcVQwJCg6SWIiGntpGhgGmSY7x+6DyL8CRxsHhADTBE0D14V3OvYKnWMyST2jLicaAlCtwvPnghtmKhV89UrU61NzqaZJy8tyZYUyme7KcfwX5/k0rdaRM1mkDHa2sk3hjNoQxpVXNK0KkbwXWy/D6N1Sy04T4MhGSEQwDNB1lte7HXs1GoAIlkU98cBE8uKn9OZN+fvfe5cvy7DwPMU7IwTEYqBpEycmeF2saUeaJVleAGSavW+8L/qYHROaRsdL2hDICHQ9MJth+y/LDgDa7SOrqk5oj647IvY6OMDNTWGatLBAiQTFYqOv843hechrJcuiHucIAJo2Wd4rmaSFBZlOi/A2mmaflM3mpuCGgEQCVldlLjfWq2sauzA+4GJc58iesdUKsnphJNNZOaJpQphJHsKkG9ECoxVNqwrB8sJ2m0Lrxct1rkWwzqBj0rgkN9J67e7i/ftaLkeffuovLkIs9hbZOnaOpkmWBQOcI/n+wHO++mIYEIsRb+Pjh7mHx4/Ff/2XBgDFIv3udzSmvELr5TiTWq9QXhQuDH0/+OA4yBnJBPIKt9GyLMJ2Qk0DXScpIQzt2dqxvWm3wbIwfB22Xp04YFhh2/Og0cBGA3Ud3n9f5vNnMGug3Yb1dWHbuLYmC4Xupbou1OswNwfJ5KmcY/S3TBPicfI8aDYhFutVLV9Mvc4B3wQTIYUA0yQhJk5MOA40m6BplEh0myWjK8epyQsgeK2jWzmCrxsGRZwjQEeOpkkAPHw1SGqz9dJ1qNdHJyY6vby4t6el0/TBB2Ne6TRptfBvf9N2dzGToXy+G8Zy7DU31996aRoAoJSTWa9YjOJx5BpLuACPEt7ziV42XE45zmRjSnnqYqfVG7mUF105TtF6kaaFIRcnJrDTTkh89a1W8HwQISLpOobO0fMgHNvHPtt1cUgOlu9jqNSzKt5xAMD/Zc/CEQJ0qo2ImEzKqVqvoEnLdfH1a3jyRMvl6NYtPx4/krblC3DdIDKJQgS2jZyGQOz+PEw+qTrcSZBMEvdL8oKMmxLGlJeATnGq2UQ+urHRwJ6kFN8yIYCfyKjOoomJdhs8L5CdrhNHS+GRaR2TxokJGhIH8PLE85Bv31nNAvF9cN1AJY5zpCbheUFiYlDeCyef7xWLQSIBnofNJrgu7O3hX/6iPXokonkBvoe6Hnz2PWaMb1S1Cnt7KGV3/1LPaKNx4PZDjr0sC+Jx0HXiVEXHevW+8ejv8jlLjgM6AJTL+Pe/a4hw+bI8OMCNDXHrlvzggyOxTtjmEAZex1eOYcuHpiFbNeiMHtV1QgTDoHicOivHgW/YdaFSwWYTslnZaomDgzOoe7MZqFbR9xERPQ+jvXgcISEe2SMUcoIBTIhgmsSxV6OBjQa0WsgVZdvGeBy4d1wImJ+XxSJVq7i1JS5elNHPmJcF6+vaDz+IQoEWF2U2e/LnkmOvbJb4r2saOE5ggDgt0Nd6cQi+sYGPHmlXr0odAGo1fPRI+D56HuzuikePRCrVG+v0tEX05L00LVgodeQFug6xWNDF1m6DYSAixGIQi4V5r668WKyNBroupFLkulguC9vGXI6aTTo8PJu2CtuGahW5aM3PQygX/iABgtVxFDwyeHyCPxeLQTxOh4fI8uLXlxJtG1IpSCQAADQNikVaWKDDQ/zpJygWIZnsvkKrhdUqvn6Ne3u4tiavX5enOTyL5aXrYFnBX3ddaLWg3cZEgo7LiyXBz+SPP4r//V/NMEhAx6iWy/jtt9rGxli9DNTdpQ2mCaaJvs9lBx4ARoYBvHLkC3IcXiFTLEYce0X/Cj+yDx5of/iDvr0tXBf299G2sVCAXK5/I9EbwLbx4AClJF0nz6Oocwz71Y43I4VfmagZOoy9PA/rdazVuA2QAKheh7AHU9NgYYGWl6lWw+1t7Nm6WKngs2eo63Dlilxakrlcb0VhIhwHo7EXl/IizrE39vI8qFbx2TPxpz9p332ntdtABLrjICJJCbbd3VUyErY3nJXgVBbHv2y9OBMWi4HjBNYrFkNOwMRiYStLN+9l27i/j8+f49aWuHVLxuNULqPjwMoK1evj9ltPFyJoNJD9smkSn54UXdBRZFxvlBPvcwxXjo0G1GrgOMGa1Lax2SSO5ISgTIZyOeLumnAlyB9HqYQbGyKfpwsXYG6O4vGTvnkACLL2HHuRZUGjEXyl3UaiI9aLY9NqFTc3xY8/iu+/F7VaICS9VoNWq5vPxfGO8iIC3yeWl2kGO2w5m8XWixMT3CzbboPrEssrHg9OWogukstlfPZMVKvdLVOVCggBuRwdHp7ZVspGA/j8+XicpETHoeGJupATOMdo3qteR85vmSYIAY0GNpvYboOUyJGuYVDPx8QF31IJX74Ui4v+5csylTrBO+7CnwKHWYkExOPcjci+6Ij14iup13FrS/z972JzU7Ra3WdOL5UEZziyWbpwgQ4PYWtrtLmIhPbE1otjOrZJfBdiMWg0ggti58g5VU6PhStQ9ssvXuDhYbCWlhJbLYzFKB6neBzDWZvQz1pMxP4+bm+LhQU5N0fDdwlwaH94iNksJRJBMWQcZ4fBzDOatJ3QNCkeRw5f6nWMxYKA2rahVArOiORMG3+uUT9j21gqIedj02nK5YgLvqeBTUDotRsNjr2CzTgccAsB8/O0vEyVCu7v4+am8DxYW5ONBmxvCwAQu7v46JGo13Fpif71X727d3sTOX0h4vwWdJ6nMJsAHXl1ExOtFssrCLwg4jgo2P+IL1+KWu2IdjhGDnv5p5L9evZM/Nu/6U+fao4zOufZbEKtBppGlkVcgxuvPkuRvNe4TwN/irFYEKVwbxYXNBsN3NnB9XWBCJcuUSrV5yKqVXj+HKWEy5dloUCcpp8KnZ4rjr2CjzK0XkLA2pq8c8cvlfC770S1igsL9OWX3kcfSU6qC9/nHDrEYpTLUTI51kAllgUvEjvN0Oj76PvIXwxD+3Y7yE2wEMO3zR+V40CthtGMZeS7yB0WlgUAUK9PYR9Vs4n7+7i9jVtbOKh/N3x33FRumkG8OLwXNyQSe42QY4895kiDdWzb4HmQToNpYr2OOzvi+XOh63Tlikyn+7xorYYvXggAXFuTvBjqGxTCqKeUndLmpvj6a217W3SukLv0IAztAcAwgo8+n6eFBSKCWg09DwwDcjlKpQIVCR6UOil0tNc+/Ar3soa5VkToxF5B8avnbbdayPFNLkes9x50PXhea7XeZO8JCENg7rIa9GPhlDy+s5w0dt1xizw882zkBxkWbcP0OueQOdfl+5jJgGlCrYY7O/jihdB1uHpVZjJ9XvTwEDc2BCKsrclsts+fC9ezI6/K9+GHH8S//7vx/LnovB2IxagjLw7TuWMCECGZDHxx35c9oQ2lyIyJni9KSUKAYSCvXDgxwfKKWi+m1YJyGREhn6dEIogTo5+iaQL38larvevwE1Mu48aGODwceK/bbahWEZEymaDdmbvZJrRew2IvjiX6rvB59IiUkM1SIkHtNuRy9NFHPg/m6Jtt4i5iTaPoMJUoug7sl+r1YU8pLwA5zOppAtV19kLhg3fkqeh7HxBBJ5IsMinJ81zf1wF03/dd1wXgR1YQCc/zpAQiXUrpuq7naZ6Hvi+llL4viUBKjUg4js/rGiGkEK6U0G5rrRa1WhSLSSGklL7nCSKNSLqu22iI/X3h+342S/v7eruNnue5LkipSUme5wkBySQ3dEM67bvuqfomfB8B9EoFHYfu3JGO4/WdrliriVJJA5DpNMViPiI5jtZqkeO4vJeLO8LDu3T0TwTC8n3d8+TxH2AcB5pN4bpoGBLAi9xtTUo+SkdalmMY2Grpq6vyn/7Jn5sLVgyuyzcQPc9rt33PQ8dBIono8z0/LmtEaVkgpaxUfCI5qFWrXhelkrBtEQ7V8n3f81xEgag5DjqOkBKkPPLGPQ+lDFRPJD3P830NUZdS4r17/8e21wAomfy+UPhjs3m1XP4yk/nffP4/AcDz0uXybzwvXyjcJxLl8pemuVco3HecRdu+o2llXd+LxfYARLn8pesW0unHiE67PWcYry3rsW1/Uq//KhbbM4w9orKmlRKJHc+bK5d/Y5qlfP4+wLLj/FO7vdVqbbfb1xBzCwtPDcPf3/8EsV4o3Pc8ODy8YJoZy0rq+vea9mKEgoZSrX5eLn8pZUuIw2Lxu2z2mZQ2Ue/jTHSR6FKlgo2Gb1n7pgmed0PTnGTyr7peQRTV6sel0q/z+T/ncv9z7HeRSGs03qtW/zmV+jaX+88B15IgytRqlyuVa9nsd7nctwDgedly+ctG4xYiJBLPstn7lUp5YwNzOVhelvF40PTmunPl8pdSxgqFrxKJhq4vlEoL29vFfP77YvFx3z/WaFwol28lk14+X0PcBtgZcFVLRFcqlUK5nBcio+tQKNy3rKeuG3Ocy677C8eZb7cxlfproXAfMcgteV62VPrStm8AoGU9KxTut9tL5fK9dPqJXiqVLWtN16lS2f3xx7/EYl4ud29jY+Phw/sAoOvFXO49Xddfvfo7opbLfVap7Dx9+mfTvGZZc5636bovHOc5opbLfaDrib29DSLbNB3H+aHR+M9UKp/N/rJerznOtu//5HkvHWdd1y/lcp953t73339tGDct66rnbfj+00Qiruvy0aMfpPQymVu+X1pf/waREonbiIsAc83mt+32X8eR0SDS6UI+/yWi43mHT5+u2/b/Izogsnt+zDTvmibqOgnh7O29lBITiazv2/X6Xzxvm0hkMplC4VcvXjyrVu/3/C6iQNQtS89mP9/f34j+gO8D54TicTKMjBALiYSXSs09e/a0VuO7vZjLvWdZt4igXC6tr3/jui8BYGcHdiJ6MIxLudxdIRIbG39z3YqmXUskbMuiV68eP3rUez1MPH47lbIqFXd9veS6T1x3ve+PGcYN04R43I3HESDmOPjkyRPb/pOmJeNxO53+wDDmAeCnn376xz/+FD6WhrFUKNyxrOtSYqlUXl//Jha7kc1+/urVK/z97/9vvV5cWJDz868LhadbW8UnT+5cvfr8xo2nANBqJZ48udNoJG/ffkyEjx/fyWRqt28/PjjIbm5eyGYb2WwtnT70fXzy5E6tllpe/skwvFYrlcsdLC1tPX9+5enTm5ZVS6UOi8V6Pl9LJA4PD9OPH99Jpeq3bz9+/Tr/6NGVGzdK16+Xd3YWDw6Suv7acWh390oq1bxz50ksRu12bnvb+umnxLVr26uru+OLKQqHdBsba99/fyeddtJpO5ncSqX2stl2PN7rv169mt/YKC4vy2LRN4xaswnPnl0Qwrt583ksZrdauLd35fXrm5cu/bC6+mPP7yIigHj1auXJk1uXLr28efMpf933oVLBhw81APj4YxmP69WqVa/P2fbC4uLm4uIrAGg2rSdP7mxvLyPCwsLurVuPU6na8fdSr6efPLnjefrt24+lbG9s5GKx1Px8KpV6bVlbfd9+s5mvVpfqdarX28vLlcXFg74/9vp17vnzhVTKyuUS29vJeh1u336ysrIFoJdK80+e3Dg8TAPA5csvbt16LEQQqDiOtb19a29vqVoV2ezenTuPDw+z6+u3isUtvVic931YXYWbNxeuXZv/29/EDz/oV69e/e1vLwLAwQFWKvreHn7yySdSwuamsbyc/PWv51++RMfRVlfp4kVaXJSeB6WS4ft4+fJaMgkHB3jx4vJHH90UQv/+e2FZmWIxffOmf+WKnJujzU2xuakvLCTv3Zv77jvx44/G2lrm3r2Ljx9rm5uYSOTrdajVtGIx9cUXuXSaajV8+FBUq9p77y19/rnPGWrbBgDIZoeV1VwXeHnI62TXBcPQX77EXM5YWMgsLKQWF2+srvZ2FRPB119r1ap2/bq8eVNaFh0cQL2u6zp88cVSJgMHB/jkibBtcefOtV/84srxv0sE33yjPXumX7kS3EYOpzY3RaWiI8Ivf+lZFm1u4u6u2N0Vd+9m7t69BQDlMlYq+v4+pFJ07drcvXtfzM/3CZJ2dnB/32i14PPPP/c8cBwtlYJr1+TS0lyx+F7fW1Eq4atXuLsr9vbwo4/8Dz7ov+j49lutWtWKRbp4UTqO5rr4/vvvf/rpbSJ4+VK4rra7KwHg7t3Ve/eWwvxovY4PHgiemDI/P//FF19sb4udHf3KlSs6b9ZbXZWLi3L8VC8RSokAFA2NicD3kVeO0dUEL7t4AXK8/S1sBbMssixstaBeD5rGONmYThMicmKC6w+7u/j4saZp9Itf+MXiwGs+OMC//EUDgE8+kfE42TZICbkcZbOUTJLvY6MBnterLSmh2cRqFbkqZRjUaAT5PM7d1+sgJaRSMtxD0ENP8xJE5k+1WsALaimD6gp3KEV/N52mO3fkzZuS+xSG025DqYTxuJyfH9YfwZOh9/epWhVDFuDtNhwc4IUL8uJF+eKF2Nnp9iTOz9O9ez4X13O5IwtYXad8nubnabfjWrgbHoD0lRU5N4fLy5TNTjCYmo6OMAm/GOZao/VO7mbpm5iAzj5bHmOUTFK1Kup11HXgoSuRLSGctoXXr5HrppZFt29LNmA9qz/uuXj+XDx9qpkmXbhAqRQ0myAlFAoym6VkMpgt2NMfzKbRdUFKNAzqXAOGDUjcBi0lpVLYN1EXfV8hLK/9fdFuB01j3NLDTX9hKsEwYHmZYjF586ZcWZFDdq8gEgByLbnRACJIpYZtpjJNSqdRCDg8hK0tzGYFJz85OwoA9Tru7+PWFto26joUCnTxopQSwjRbMkmD5KtpkMvR/DyFeU0uOgOA/tlnvpSQThNv1hgT6jd4nOvcbL2iL8Vtn+GeggH3CxIJsCxqtcC2IZUK5N7TW+y6uL4uHj7UGg00TapWsVbDbLa3p4+HLPzjH1q1ipkMvHolODcrJRQKlMmQZUGzydbryC86Dh4eIn9a0Wn1YQmLe4eIMJ2eYG8cz5/a2+uON/N9aLV6rZdl0Sef+J4HlgWx2MinnQd1o5SIiD1ljx4MA9LpYBTAw4fay5fiww/ljRt+Nhs0Ku7s4J/+pG9uIm8cjMXggw/k9euS9/4Ph+VVKBAbgiDjpQMi6HNzJ6nkhZa/p8eQC21CHGlz8DwYYr0Y7vxMJpH3qC0syHw+uO/RPyEl1GpYr+P8POVy9NNPqGnCsmRPLpHrmLUaLC/LZBL29vDgAGMxSqdpbg6SSTAM2tnBVgt7xnA6DhweAhFkMhTdbEidUQaui7yROpWiQc7xOL7P1oszw13rJQRbr+DHNA2i+5EG0ckFom2zKQ2+OMQ6cGRiWZDLweEhbG6KRAIA6NatwAU3m7Czg5UK8jtlxYz57rhRdG6Obt+WXEPjjiwYf6fQcSKHvhBA8M449uInKXy3XHtneQ26BYgQj0MyGWwYyeepUOi/D5if+Nu3/VgMvvtOtNt05UqfMIUI0mn47DOfCP78Z73VgkwGkkmYn5cc/fg+Nhq9zpHT1gCQzVJf3+R5UK9DIgHJZP8q1oB7BdUqlErdse2+j+120KE6adOfrkMuB0TEE1DG3GePCLkcXbnib2yIrS1cXxeNRtD7Gl7kyZoGWI7z8/SrX/lsJoTgvWt4QnkNir34EqOhPSJkMrS4SJYVeMae+vvIypsAAA+ySURBVFf469xCDQC6ToUC5fP96xsAoOswNxfUappN8Lygt5Gd18aGePZM7O+jrlM2G0z14eWClJTPk2EQFxC5chyl3Q6cYzbb3/fxJoV4nNJpGN96AYDvY7SDknNgpknR2GtMdB3yeWo28dUrLJWE6457KF0uR2trdHhIW1vQbvcJPU/c78TeMOzm4L08iHRCecl+wy955UhEQhyJsebm6OJFija4he3CrMVo9YpXi/k85XIDpxjoOqTT1JnME+y+5FEtjgPffqt9/bUmJaysSMMAACLiVkckolxOCsFVF2g2ex99x4HDQ4zHKZeDvvLidr98HlKpyeRFR9uAOfZKpXpXjuOg61QoyHJZPH2ql0oIY8sim6VYTL58Kfhe9S2JDneyY4KdGXqj31nfmiURcGewEBA+O6H1CleO/Lvz80c6STgO4BSD42B0GIZl0ccf+60WFotHAls2eLxNmXvcEME0A1NUqWAsBrkctVp4cAC2DUQwN0fLy5RIHLFP2JlmMKhf2XGgWoVYjGOvvs4Rm00komTyVC17bL2IiPe2TISuQz4P+TzoOi0uwq1b/o0bY3Xp8Xr8zh0/FqOnT0WzGZTDw893dVXevi1v3DjtVMWxYq9o/N6j6EjHBEbPFAq3bvNDwO9nYYEuXuwus3lhAhB0esVi3WEYiQR8+GGf98aX224HO8NYIqYJhQI5DpTLYFmQzUKzCZVKsDtvYYEuXKB4nGq1btsjT+cP387xUIOt18ICDXKOnRUfJRKn2ihxNO81sXPMZqlQoGQScjn5z//sj7MgAAge+1u35KVL0rb1H38UvKgPzfDKCv3mN944+bbhTCavvt8Km6F78l4cBvEDcf26jMdpZeVI/yTP9OEGNNfFcT6nbJauXpWNBjx5IjQNVlZkIgGmCfPzVKlAqSTSabm6Ss0mlsvYaoFh0OKivHgxCPkRYWGB1tbk5csjnkteGAIMtF59g84TwBuriPAE1gs6W4bu3fNjsZNMM0SEdBpyueCOjanOiV4/SEz0/R7TN/sQfoubUoQAgGDleFxeKytyZaX3d9l6OQ7U6+B5kEj0GdfRA8trext3dnB5mVZXybIoFqP5edlsip0dLBSQCGwbymVuToSlJVpYINMk08RcjtJpunvXLxZH9OJ6HjSbwVy4QT/Z0wY4KWHfZWcG7sTHLIbLwFzuhO1JQkAmQ7kcNJtQLmM6PYVG857XZ5PcK68wLUaRc6n6ymvwyhGFoCHbezSNtyOjbaPvB/16w8nn6do1Waloto35vLx4UVoW6DoUCrC/D5UK8s6nZhMPDnB5mebm5OJiYDKLRfqXf/EMAwqF0edk9W2TnCKd5Fm3X6/v7Z01XO+q1XgLICwuUrRD8PQMC+3DuGRI7AXQ10cEw+WOj9aIwrlE2w5Pqxu9MucZk4uLVKvR4iIVi8RNi+k0GQbvBAwSDQcHeOmSvH5d5vOBVUinqW9/+iD6GuzoI3RiOCowjGCrGS9a37y2+I9ms9RowPo6Og4PfkaOTadyPRx7ed4A69Vpa+5qqAfqd5Z2T95r0IV25iliq4Xx+FgxMs+l/uAD/+pV3nzcrTvx9gd2N80mHh6ipnEnxTTNfTRRd2IMg5aWKJulvT3c25tgVuDUYedo29BqYaOB1So5DiQSNJUDraBjvXy/n/Viv9apZ3XdZRQewAR9ao4oJY1jvXhmE4+FGSmvMC/c06AS/nXOdnLpiTdIjh/QcLasXseDA3z9us/5qUJQuJtjzI77vpgmLC3JTAb29nBnR5zJ8bAM10g4a1OvBztMEwmITno6DWy9ggk5Pd/oHCqBUhJvZjx+cNDwjonhO1S5CULTiOfcnSCveBzuJOFsO2t3/NvkusFwhL//XdvdRd/v/V324DzSg9suTkYsBhcukGnC06dib2+sYs7sCHMHnge1WlCRs6yxtiGO+eJ9Vo545KRxHB7a47GdQtHNj0P+djxOuh5M8bcsOL0j4yPgAKBQoHh83HvEzUI80eXHH8XWFsZicP267LGRPMYDAJtNsO2TD7TWNEgmgy033C5xhoQfKxswISiZDDZrTePFOZl3rOYYyqtzAHP/mkPfhhyAI7HXIDQN4nEwDPB9FOK0+UmGN7RBIK9xf4sIXBfKZXz4UHv1SngeXLwoP/3UX1k5YqBYFr5P4RriZCAGsz8BaPwN3LOG5ZVIQDpNicR0rBfigLQqBn2G3RkQiHB8t1b45B13jjzCZEhoL0RQCWE31HNa3cneTLOJu7s4P0/F4gTxKQ8B5A7StTU5N0erq3J1tXf+h6ZBKkWtFto2N2GPW0Lue6nR1M/bgO9DvQ7ZLDvHacZefZ1jkF4PD3eBAYtnOjbgKrpyHHKVHetFnIBNJE61yuML4IO7CgU5kfVyXdjeRsfhAqV8773+/cTsHGs1rFa54Hjaz4Dvz1siL8/Dep0ch8fETS32CoY1D/qG75PvUxhgHbdeoW2LfpF70oenVXlxxw6RpXYa61Uo0Mcf+ysr0rYBkfJ5OY68WJQ8jfHgAOfnaWlpoMo1jbi7q1aDVgss61RnOGSzdPeuvHlTTmuZdko4oeN5YFk0rUvihhwY4ByDv4oYZu37/M2+IQinyobHXlyNTiTAsvgtnWrlmM/T3bsSAHZ2tHgcMplxUxJCEBGUy5hMYqHgF4sDL4NjL9MkHqHGo2xPTDpNt2/7iFCt4pmfBcEfMcuL815TdI4Ax/q9EJFX9b6PoQHvu1P+OH23chyHX2plRf72t16YWz8xsRjlcvD++7JYpKUlGjMlIQRlMjA3R9UqR9zBTLYBP8yPAbpu0GV/mo/BMCCbhZs3Jfenn/Ltn5JoLDiVTq/wZXWdEMXAvFfYoDdRKaqnIWfIn5+fp/n5KWR+uEkylaJLlyb4La6KzM0Rb5se/jxwHtgwgglQ6TRN1LISDjBnOJJLJul4sf8Nw03Vi4sEALncNM+eFoI0DWG4cwyTW+OYhGghfIrPwYwQIjjtcn9/tHtC7P7XMCCdhomKJ+E5Bm/bbUkm6dNP/Zs3fQBIp+E0Y6R7GJKYoFBeEFk5Dr8vYfIi/PkZdRxMC5ZXsRgsM8d8eADAMCiTmSD9SAT7+/jypdB1KhbfrnPdTBMuXpzJcd8DV45Hs/bd7MM4r8jB8luy3h4O13Tn5iiRmOxJ4HljIxt7omxsiIcPRTYLH3447il57zrYaSfsI6+wpB1OB0WE4RORMTIH9Z2QF9d0CwW6dk2urcnxGz55P+pEhYFajVv2aHVVTqTLd5eBzdCR0B47of2wFHwIbyM7/fjTNwb7x88/94nGCjswOHKLUqnJVo78vPGQyLNdJ74xhnWrhs6RW6nGCaSwc5TSWxW6Doevue+o0r5ks/ThhzKdpmRyrKMM8eggk3AX53kgXA4Okxe3ngKI6G6zwS83bs7pHaVYpHv3vLCaNhwcvBnpPDBcXmHsxfU16sRew26qpnEm7Werr3D/3DhwTxsANBroefiWr6OnTpjK6SOvsKTt+9093SMTE9EjDhS8wZMIeAjPRKnpnwf8foeUtLuJiejACOi3/zESe51LZ3AMXSfLIt+Hcln4Pp8qetbX9MYRYkDeK+zcCuXV06h0XF6aNtmEsJ83fAyilFguo5TIx7ec9UW9afrnvTol7e7GmFA0bMbCg4OiYlLOMYquQzIJUsLBAQAEcwDPG/2tVzjegxV2tKhORMGRZtGG+ncxMTFTDAP4oKtqFQDgfMqrr/WiaNY+WtLm/5GST7yBeJzC0SP8LT4wWwGd2IsnvCFCKjV6s93PD0QaVnPkfY4QWWeyvHgsVk+XKacNz9sKfBDsHBGx0QjOC1axV/ClyD7H3tCeo36e4B3d4cPOUcVeIXxOoBB8XjAPAzvra3rj9Im9jiUmuhvRWENSBtsZoovtjnNU8grgMf2aBo7DDY/nMTExqGMC4EjeC6POkSjYqRzd4aPk1QPHXrwTXdfxvMZeo/q9pAQAijhH4jlHbL2it0zXVd6ri64H+zeJwDRJ5b26X4qE9uFOf4rGXq0WEGEiQRHnSJoGmqZWjgHsHHkyvmnyqdhnfU1vnHFir269rCMv4vkI0ck2Ku91HCFgbU3+7nfe1avybeuyfzOMbMg5krVHJE0jouBoiei5uir26oHvw9Wr8urVmTSzvxMMco4EwQm2GN2l3VFecDBOj8FXRSFFDyPTqkfG1IbfchwEOO4cSWXtFVFGx15SYjT24qUQHyV/NLQPflHJSxEyeuUYjb1CAfEhNonEkbFvKrRX9DAorcol7eCMp57YCzFov4yOHglD+yGDcRTnjb4NOdSpOfZpJ2T7xLvTooczqmZoxXH6WK/QA3a2chypOfJ2oPCXo2JSzlHRwwRZ+/BbofuLKqnTDN0tHykUI7pVw3bC8N+gyUrhyvF8pqcVfRmWtecjXsO8F3St18DXyuXo4499PglBoegvL14PhomJnl77IfIqFOhXv/JhjHlGivNAH3nxHCWIOEeIWK+RLalKWIqQ4SVt7MReFI29NA2GD2NSKJj+NUcOzzmnSnQkraoSp4rxGbZyDM/cg6OhvcqdKsakj3OEzmAqrmcTUT/nqFCMpk9aNaQz+ozPBA1+WmW2FOPTxzlGiZ6lHU2rKhTjMMx6wbFDG5VzVEzEaHlF59p3Vo7KOSrGYoS8wm20HetF0Y4JhWI4Y8VeELFew0/SUyiiTBx7KeeoGJ+xYq/w2AQV2ismYrRz7IT2BEBhYkIZMMU4TLByZHi2Ox8JplAMp39RKCQae2FnJvTqqvztbyGfVztmFSMYIa+wGTr0hogwN0dzc1M4RVbxs6dPQ04Iu8Xxz3NUKHoQYoT1wrAhRylMMSnj5r2UthQnYNyVo7JeihMwVt4LEdRBVIoTMHHeS6EYnwlqjkphikkZ4RwZFdorTsYI6xX+kFKY4gSMkJeug2mqnWeKkzNQXoig6xSLqf5BxckZZr0MA+Jx1eClODkj5BWLqeZ6xclR1ksxQ4bFXkpeilMy3HpRLKbkpTg5I52jir0UJ2dkaB+cYKVQnIAReS9lvRSnYRzr9cYuRvFzQ8VeihkyIjGhrJfiNIxITMTjpEJ7xYkZHXupcYSKE9NfO9yhqutgmir2Upyc/vscczm6ckXm8xSelq1QnID+8rpxQy4skBokoTglA61XLqciesVpUXG7YoYoeSlmiJKXYoYoeSlmiJKXYoYoeSlmiJKXYoYoeSlmiJKXYoYoeSlmiJKXYoYoeSlmiJKXYoYoeSlmiJKXYoYoeSlmiJKXYoYoeSlmiJKXYoYoeSlmiJKXYoYoeSlmiJKXYoYoeSlmiJKXYoYoeSlmiJKXYoYoeSlmiJKXYoYoeSlmiJKXYoYoeSlmiJKXYob8f9ulTmtUEbr4AAAAAElFTkSuQmCC;movable=1;resizable=1;rotatable=1;deletable=1;editable=1;locked=0;connectable=1;" parent="1" vertex="1">
                    <mxGeometry x="960" y="280" width="120" height="80" as="geometry"/>
                </mxCell>
                <mxCell id="IDKSLfoBvOOnQwNbsrg4-75" value="" style="shape=image;verticalLabelPosition=bottom;labelBackgroundColor=default;verticalAlign=top;imageAspect=0;image=data:image/png,iVBORw0KGgoAAAANSUhEUgAAAYMAAAD3CAIAAABwwq8mAAAACXBIWXMAAA7EAAAOxAGVKw4bAAAgAElEQVR4nO29+ZMj13Xne869mQkkdtS+NHtvspvNzaS10BQthS1F2BIdipnxC/+N8rx5Mx5ttrVTFClxNclukr3vVdVdhSoU9tzueT+cRBYKhVq6uprZy/mEwxEqooFEAveLsx98//33QRAEIVWsTqeT9jUIgvC0o9K+AEEQBFEiQRAeAUSJBEFIH1EiQRDSR5RIEIT0ESUSBCF9RIkEQUgfUSJBENJHlEgQhPQRJRIEIX1EiQRBSB9RIkEQ0keUSBCE9BElEgQhfUSJBEFIH1EiQRDSR5RIEIT0ESUSBCF9RIkEQUgfUSJBENJHlEgQhPQRJRIEIX1EiQRBSB9RIkEQ0keUSBCE9BElEgQhfUSJBEFIH1EiQRDSR5RIEIT0ESUSBCF9RIkEQUgfUSJBENJHlEgQhPQRJRIEIX1EiQRBSB9RIkEQ0keUSBCE9BElEgQhfUSJBEFIH1EiQRDSR5RIEIT0ESVKByKIIrh9G//wB2txEdO+HEFIGVGidCCCIIArV9TPf27duiWfgvC0I2cgHYIAlpdVvY5EQJT21QhC2ogSpYPv4717yEokCIIoUTr4Pty9i2trcv8FAUCUKC2CAFZWcH097esQhEcDUaJ0CEOo1bDRSPs6BOHRQJQoHYg4Vi35e0EAECUSBOFRQJRIEIT0ESUSBCF9RIkEQUgfUaI0QQREAJAya+FpR5QoTRBBayACY0SMhKcaUaI0UQpsm4wB3xclEp5qRInSRGvIZMAYCAJpQBOeakSJ0oSViAiDAI1J+2oEIT1EidJEa8pkxDsTBFGiVOnbRCRKJDzliBKliVLANlEQgHhnwtOMKFGaJBFrsYmEpxxRojTRGhwHiND3pS9feKoRJUoTrSGbJSLJ4gtPO6JEaaI1Jd6ZxImEpxlRojTRGhyHs/hiEwlPNaJEaTJQYy0Ra+GpRpQoTbSGTIbjROKdCU81VtoX8FSjVGwThaHYRMJTjShRmiR9Z1JPJDzliHeWJoNxIvHOhKcZUaI0kQ5YQWBEidKkH7EmqWwUnnJEidIkiRNJxFp4ypGIdZooBZYFABBFT44SeR7cvasch6anCaWXTtgbYhOlAIuOUhuLPZ4YGSKCeh1/9zv94Yf6iXlTwteA2EQpYAxEESiFSj1ph9UY8DxYX8dsNu1LER4rxCZKgTDEMASlQOu0L+WgiSIIwyfK2RS+HkSJUiAMIQzBssiynrTzGkUQhpIHFO4bUaIU6CtRHK5+kghDDAKZ+ibcN6JEKRBFEEWoNT2R3plsTBL2wRP3o/w4wJGUJ9Im4jhRKt4ZL/W+eVPduqVOnjSTk8ayQMoIHheeuKPwOBBFGIb4pCpRWrOWeLjKpUvq3Xe141CxiPm8FDQ9Noh3lgJhCGFIlgVaP2mh3TBMTYl8H+p19DzQGhYX1e3bKghSuAxhf4gSpQBHrLVO3yZqtfDyZbW0hN0uRtEBPGGKcaIgwNVVNAaKRVpZwdu3MQzFInpsECVKgSROlHrEemEBf/pT68MP9eoq+v4BPGEYYlrdvL4Pq6uoNczMUL2OCwsYhilchrA/RIlSgItuLItSt4mCANbX8fJl9cknan39ACyIFCPWQQC1GiLi9DRpLUsKHjNEiVKAbSKt048Tcb7p1i316af6oJToa4sTRRF0OhumnO9jrYYAMDVFjkMiQ48XokQpwIbDo2ATMaxHB3J0WYm+hjiRMbC0hL/8pfX557GLy/YdAFWrxnEe+gUIB8ujcRSeMsIQH5E40YEzmDt7eFYJEYQh1Ot44YLKZuOXiSLodhEA8nmwLJJw9eOF2EQpMJA7e9JciCiK48QPu5Cn18NOB4dabY0BRNBaChofP0SJUuAR6TtjjwzxIM8tZ/F54tIOHfm3b+Ovf61v3dqQEmPg/Hn1wQe61dr9aoig0wFWoq2IDD2OiHeWAv04UZreGTs4UYSWBergfo9YZJl+VH7Ew27dUv/xH5bjhBMTUSYTP/jzz/XKCj7zjCkUdr/4TgfabZk98uQgNlEK9CUgzYi1MdBoYK8H5TK57oEdaBZZtkqM2SmPbgzW67i8jBzh5v+/x8A5EXS72G7HJZSiR08AokQpEEWYegdsokTVKrnugT0tx4nY49uhsIj/vrbGSoSsROypcYnDrnS72OkkLypi9NgjSpQCYQhhiNt5Ll8PxsD6OvZ6WK1SPn+QNlEQINtEUbRTOp8I1tbw3j3FGpREl3wfdu0XI4JuF7pdQOTGV5lD8tgjSvRw4VKdL79Uf/mLbjTiUCpPj7Wsg8+dhSHcvYt//KN1+fIun2wUISvR2Bjkcgd5AXuxiZj1dVxZYe8MfR95vprv794vRgSdDna7yFLu+9tKXhRBq4Uff6w//li327Jo99FFlOjhwu7GuXP63Xc3ipij6KHMJ+Loya1b6g9/0LsqkTGwvg7sneVyB2kTRVG8toRtImOg08Feb4QqNZu4toZhCLwFFwAA0PNwbzYRdrvIE4g8b9ihS9Jnnoerq/jhh/rDD3WjIZ1ojy6iRA+XIMBWC3nZdBKO5SN64N5ZFMGdO3jrFnre7nETY6DZRM+DSsUcaJwIggCUAqUgipAI63X8zW/0Bx/orbXXyXqlfo8IAZDn7e6dAYDnge+j4wAi+j4as8mMYqPMGFhZwStXMAgAEe7dw2ZTMvyPKKJEBw8RLC3h1auq28UggGaT29MxyXCzpcDH9QBfNAxhcRFv31Z76YYnAs/DKELXBcd5WDYREfR6cPWqun5dra8Pt/uzErFG+34sH3uME3F0yXHifzKocYhg26A1eR7cvYvXryvHAdele/ew2TyoN7pXwhA6Hbx1S127pnq9r/vVHyNEiQ4YPlqffKJ//WuLR22sr8ehE8+DIMDkYQeLMeD7uLioFhb2OiGMr+EAK5KJOHOP/JzsdvENabdhYQHb7dGvxDYRACgFnofJXdr14h2HEMH3cbMSUS5HjgOtFiws4M2bqlymsTFaXj6YeQP3Ra+Hy8v47rv6N7+x1tbEItsWUaIDhm2TTgebTQxD8H1oNJAILIs8Dz3vYb2u58H6OgBAJrPTyFS+vEuX1Ntv6+VlBDiwGms2bfgJtSZEiqIN06zdxtu3sd0e/W9ZRrlRYy82EaMUOQ6wQzcYJ0KEQgEyGWg2sdXCMITxcSqXaWUF91LAfbDcu4d/+Yu+fl01mxBFokTbIkp0wAyUxhAfsEYDjQHLAt+HA5lGNpJuF9fW0HGgWNxpZUgUgefBhQvqD3+wVlZGHwzPAz7ACRx1bjSw0dh2oFrS3qEUsU00WObTbuOdO2p7mwh9H9ldDQIYiiv7PjSbcaxtEESwbYItuTNEyOcpm6VmE7tdRISxMVMsUr2+rVH28FhZwQ8/1PfuybCkXZBujwPGmLi8ha0PtokAyHHiICvAQ/lKdjq4uoqZDFUquLoKABvxmkE8D+/eRTbTtjsb587pq1fV669Hc3OGI1mtFr77rl5cVETwzW9GZ89GW80oYyCKEJF4Ki4ihCElAtHp4OKi6nRGZ9FZvpVivR72zi5dUh9/rL/xjejYMWJ3jFEqjhMlNhHbd0pBoUDNJjabyDVH3NGyw1t+eBzgxJUnG7GJDpikcQEAwhB6PWg0UCnIZiEIDtI746jt7dvq5k3l+9DpwOqqymZhbCzOyvd6I4qVez1YWoqVaDvu3sWLF9XqKiRmiO/D9evqiy/UhQtqZSUug67X8auv1OrqRuSLX4776ZIsPtOP3I9+RY5YKwWWRVu9s1pNffGFvnFDcco/QakNm4hjUlrH4pvPQzZLjQbynBBWqH3LAf+oLC3hlSuq07lvq0pkaC+IEh0wXKRnDAAgT8xpNFApzOUO2DszBrpdeO89/fbbut3GTgdrNcxk4pgIADQaI05+t4sLCyqpsRwJH7xWCzudDcEiAqUgkyFjoNcD34dr19T/+T/2pUtq8F9xrMeyABEH40Q7mwYcsdaatB6hRP20oLp5E31/48o5RwZAvo+cB2TbBxEKBcpkoNmEbndPN3Nnogg8Dz/+WP/Hf1gcXBMOHFGiA4Z/3okAkdgmarXAtimXoyAAz8MkrPuAceJOB+/dU2tr2GphEEC7DfU6ZjI0Pk7VKiHC+vqIJBQntndNZhsDrRYONbsrRdls/NK1Gq6sYL2+ETbaahPtfaA13zStwbZHR6x5QuPQ4iClwLa5nig2i2w7dsRyOcpkqNVCzzuAW91q4fXruLSk9l0biQgAuDUEJiSIEh0w7J3x3B/+Le100LIgl6MgwG43PmYPXtPYauHioup2Yzet08FmExwHKhUzNkaIUK+PsIk8D2o12NXFiCJoNqHV2uTEaQ3ZLBFhu43Ly2ptbdOgMlaivk3EubO9dldEEfg+WhY4DgTBiMsmgpUVvHt3039CTOqJ2CYCxyEOUeVy4DjQ7aIxmMk8aN1Ws4mXLqnV1Y0CqPuFd9t1u9jrPahJxardbOITVp0kSnTARFFiE8X9ZcZAJgPZLPg+tFq4vo5aQ6GwMU5/fz/azSYsLCARWhY0GqrdRn7RbBbYO9taSchwexcnqrZ7XWOw1UJ+zoS+ElG7DUtLWKtt+q/GxD/4Se0411jv5b2wfPeVCEbWE22VAKUgk4kj1r1eMvKJYCAwVK3S8eMmn9/LVWxLswlXrqj1dWTV28dCx6kpMzVFS0t49+4DKRERNBp46ZL6xS82Bng/GUju7IDhzH1iE7HVkMlQNgueF3dacXInMYuSY8P/alf4kY0GLi0prSmbJfbRoO+wlMvUbGK9zt7Z8C84EUxN0dQUAcDhw2awC3fQwNlGiYAIWy24dw/X1jb918Q703pEFn/XmxYEHPSBIBjtAY1UItumbhd9P179atvxyKdE3MfG6PhxUyjQg1QS+T6urSmlqFCgZhPW13FiYkTRlufB4qKybZiaMhw7T5iaoulpunsXs1l14sQ+23BrNVxawvV1vHNHnT+vCoUnKhIuSnTAsBIBoNZsEyEAOA44Dvk+Nhq0toaWRdksDCoRDDSj7QpHcBsNvHsXjx83xSKtrmKrFX/1bZtKJQCgkd4Z8/zz0Xe/GwGAbcdmRXKuktljrRa0WjCkRK4bi9TyMtbrsFmJMIri6kStKamx3ou28lQQ2yaleCY/7kWUubIRETwPPQ8zGXKcjaZiflMTE3TihCkUCGD/SsTh9slJmp01KyvKdWFsLNr6Sa2v4+9+Z5XL9P3vk+vSoBLNzNDMDJ07px6kxe/SJfWf/2kZA2E4uqP4sUaU6IDhn3cAbgGNzQTbjv0Obg3XGkqljTPDjpIxaAxpDWEIa2t48aIaH6fTp0f8fgYBrK5iEMDYmJmaIteF27eRCA4dolyOLAtKJULEwdzZ1avqxg115IhpNpEIMhkolTa+yFzIw0WP/QumbndT7gw2bCJOAuJQxfCATRTXE7FNNFJQhhxSY5Cz+BzoASB21naO7/DjAdDzwPfBstC2N6R8YoK++91oetoUCnHwiEuKRpZZ7YWpKTp0iC5eRK3xxAnMZocrSI2BVgt6Pbx6VT3zjBkf37h3mQy4LoUhhuF+9IOlkMcPPP98ZNtw7px6wpRI4kQHTKJEWg8qETlOXKncV6KN77FSxIeEG8p7PVxYUO+8Y124MNpA8jy8e1cZA3NzNDNDuRzVamBZcOKEKRbJsqBQAERotzcG/Vy5on77W/3VV6pWGzGFnmPMnOnjAhzHAc8b/uHlOBFfwFbPy5g4Ym1ZiXc2umqJza7BY8zloIjkONQvEdp9+BlHrAHA96Efsd7Q9/FxevPN8NlnjePE0mNZcXR/f1OKxsZobo66XVxZicvNW61NN5P9x/V1Dm/Ht4jvgGURFxzwX7pdXF/H9XXcY5EBV04YA5kMvfSSee21iEdKPUliJDbRAdMftUNaIw91hn4rlutCuw21Gs7OEksG/6f+DI244mZxEW/c2Mn89jxYWkJj4JlnzNQUra9DGGKpZE6eNKxBfPCG6nc8D8+d0wAwWJLDWBbYNhiDvR5y/5frwtYL0DqOdnneiMNMBAPeGSsRbfU32bkwBlkXmGSWiOPE3qLvxyn5Hehn8eNLiiKOE42+a7YNlQoBwNqaqlZpH9t3bRvyeXrmGdNq4YULcUnnG2+E09MEfRlChFYLL19WExNUqRAbnoMmGP9QffCBunRJI8KZM9Hrr+8+K9f3cXkZwxCmp8l1CREQiZ30oYDU48sT8SYeJaIIecCF1hRFcdMjn898npQCzp0VixuHoe+dxdqxtIS3binPG+E/GAN37qiLF9WtW7FNVK3S2BidOGGOHjVTU8Q2y6DrwYb9zkVMlkWOA1HES8QAEVyXlBpe6NzPncUiNfRUfDAANibAjYxYJ1aJbW8coWQqCCuRUpiIHT/DyMtm5YLYJoIhm2gIx4GxMQIAHpCwD5QC16VnnjH5PF2+rL78Ul2+rFotTOrpeSJwNkulEq2u4uXLql7HKILBmKDvQ72OS0vqxg386iu1uLj7AfQ84GfrdGBuzrguaA0crl5f308i79FElOiA6Ues48hLYr2zElkWtVpo2zTYpzqkRPfuqdu31ci+kDCEv/xF/+pX1tWraAzMzJh8nmZn6Yc/DF95JcpkRvS+skAQQTZLL7wQvfBClM0O5324pDCKoNcD7hHN5UY8FR8z9hRGKlFST5R4ZyNNJ98HIhq8Wi59YCVKSoTYuWMlGhnZ4Q5YpSAIsF/ZuO26FK75BICVlf333DgOHD5MxSLcuIH1OtLA/H92Zm0bDh82b74Ztdvw/vt6YUGFIZZKlGzHbrdxcVE5Dk1MkGUNa/1WiKDZxFu38JNPdL2u5ueJizYnJwkRlpbidpYnAFGiA2awmZN3eDBcQ5TNxhHTwalAAxFrAIAg2Gj4GoIIul1uTEdEyGTi8HA+T9nsaMPB82B5GYk49UNnzpi///toKJFsWeA4FIbQ7ULfJhqRxeOItTHgeeg4MPSKST0RF/VsV2PdV0a0bVCKkj/ybbHteGwbt9dzR4sxm8yKQbj6gdU/imAwYj2E4wArUa12fzbRoFHGZlEmQ1GEuVyc1OcmPt+HXg8zGRobo/l5Y9vQamG9jmEI1SrxqBaloNXCa9eUZcHUFEeOdsEYuHxZff65Xl+HTIZmZ43rQiYDMzOkNS0s7DXStDOXLqnf/966fl0N1bJ+nRyYEtHAXB7fh14POCD3tG2ASRwN246DuAzbROzdAGzy7QdtIhgonPG8EdWJSZkvh2B3zQFxeJsIZmfNxIQ5etR897vh8ePDStS3ibDT4TjRaJvIdVmJwHVhaEtaYhMl3hln8YcgipP0jrOR505iTJZF/WJFZIuy20VjwHVHGDuJs9mfxII7e2esRKuruDVSNkQQQKMRD+HtV1cQ22W2DbkcVCo0MUHVKjUauLYGRFxJwElJqFbJcbjSAsIQKhXKZEApyuUgCOD6dbQsmJ6OlWiH08EKe/WqunJF2TaMjZmJCcpmKZOhmRlSChYW1APaRPxOz5/Xv/99nNBIa+nAgUWsez1cX4fz53Wthi++GLVa+Pnn+vnno5MnTbm8J/l/MuA0kOOQbW9aiKoUseWyFa1BKUqUKOHyZfW//7f1ne9EJ06Y5Meff1pht53L2B/k3G7D4qJCpLm50a8OA95ZFEG7jfk8ue5wHLQvE8RSUqmQ1sAjEFkWh7L4/TnWW+8Psq3kOBv2y6AXZtvEQWhjwJi4kqBQoJ2bG9hLsu1t16XYNlWrAABra8h5qO0CvcbAzZvqvff0Sy+ZF16Iej0MQ8hmN5758GHz4x8H9To2GtBo4NqaIoq4zttxKJOJHxZF0GyibVO1SpkMFArw6qvRV1+pixdVNkvj45TJ6MQYHHkx3S6urmKvh5OT9MYb4dGjhiP0mQxMTdHNm+ruXdXt7mE53PYsLKg//UlzXPLzzzURTE+bVJZf7V+J+Cbeu6caDSiXqd3GW7fUl1+qWg35F35tDa5fV4hw5ozh1OzTANtExSLYNrHLwGgN+fywHcEoRUrh1i6t1VVsNvXzz5tjx+LkGq8SK5dpeppmZna6pbYNrgtBAPU6Liwg5/u3K6vrR6wxCKDTgUJhk03EGUAOD3NE3BgoFMi2kc8Pn+qBONFGjfX2caLYtUz+mCgRWxMcgY4iSJSoXt9Welkcw5Bse9spcdz6x4Yq1x+x8TXqqWB1FS9c0PPzxO5hFMX/limVqFSi5WW8fRuXltTaGgBwxwlmMpCE4bj6tFSCmRmTyVA2S8eOGXYdpqcpl4szGO02uu5GIGmQ1VX86itl23T8OJ0+bTj3x++F44ytFuy6kWmHm+Z5sLKCFy+qfB6OHzcLC3jlipqe1mx5ra/HATW2BMfHqVCIS0kfBvtXIm7v/Ogj9dVX+oUXom4Xzp3T3S5GEXzyiZ6dNS++aK5eVR99pOfnabCO7snGGAwC5PLfRgOG4kQjtYDNfiLuCNvUe8FfXDayOI6jFMzPmx/8IJqa2smMzmapXCbPw3Ybl5Zgbg6mpw1voN8Kx4nYO2u3EYByuY22uDAE30et4+45Fp1CgeuGKLHUNvedEQBuFyfi3JnjkNY49LXmEUVhiBwniiLodBLh23RbEtuQGezFHwm7ja5L+Tz5PrTbODh0LSEpIEyqgXo9DEMsFGBILEolqlah2cRMJvbOej103Y2bHEXYbFIYxjaRZUGlQi+9FJ05YzIZqtWwXCaloFZTk5Nm5FKD27fxvff0a69FZ86Ywd+wxDF/kBlsxgDXNBkDL7wQvfii+dnPrOvX1b/9Gz73nJmdNefO6VotzvyWSvT669GJE2Zi4mEdZOu3v7WOHDH76IVptfDWLex2USm4dk3lcnT6tMnliMtw+Xd7aQmXl9WunuetW+qLLza+VocPmzNnHtcVecnQL8ehxBMBiEdV8EneevyU4pT/pm+b1tD3hsC2IQzjXYP5fDx/ZwdyOapWqdfjVUIb4e2RsHfmeYMR6w3jgjNT3J6aOIYsDVwTFEWgdew8wpYa6yH47bB3xon8KNoo1+afX8+jQSUignx+wzliyRtUoiSH5Tjb1hMxrgulEnketlpULo/widif5ReF/hCoMGSbaNMzc918Egrku1epQOIC82QVY7BcjkdNclaR3TfbhmqVjIHlZSgWoVgccbUceC2VaHJyOEzG3jci8mN8H+7cwbt31dmzEdc3AYDvw/nz2vPg6FHDJf7Xrql6HRNPv9PBMIQXXjBHj5qJCfOtb0WHD5t2G7tduHpVjY/HzYm3b6taTX32Gdy5o/J5On3aHD16YMezXscvvlCNBlq/+53+1rdgfDwypmOMT7TXASp377oXL5Y7nbZl9W7ehJkZc+ZMNDlJxeLGB6Z1NQgya2vrrusBEKJGdLR2jQmiaGNGzpdfFn7962oYNogiyyq+9lo4OdkAAERL65wxXhS1DuqdP2zq9ZznVTyv0+sF3a4bBDaAajZbtVrLGOj1dBBYjUa4vBwbS0TQbud931lf9103QAx6vSqRY0xTa21ZbrPZvnfPy+fDTkevrGR830Y0q6vtMNwpQNDrWZbl1OvZet2JItXtttfWGts9uNGwez2n1XKaTbvdttvtdrfbjaKq50UrK2tBoGs1Owyzvh/Was1Op0zkRlHdGEQstdvte/c6jmPW1uxm0zWGHMc0m2G7bXterl5vEIVhOAbgAECz2VpZ6a6tZdttHQRI5EQR1WqtRiNDVGw2m6ur3W430+nYxqharZPNUq1WCEPjOAFRIQhgdXU1DKNOR3teKQxxbW293XYBKkEA3a7fbNYtKxzp6fRvSwYxU69jJhM6TmerbAWBWlrKrK25xuh2u7283F5edptNTWTabW95eVP6oNGwg6Da7YbLy2urq4VmMzM21m63/eXlqNerRlGh28VOp+d5qyydgzSbCtHxPGdhwcnnWwAjwmDNZpGoHEWNXq+zNUzWarlRlFtfD5eWsN12PvtMX7iA2WxL6y5RhKg6HeuDD0qdjgMArkvdLr3zTu/WrQAgIoozJ4cPm9dfj2ybmk06dAjGxrBWw48+0jdu4Le/HXEEYH1d37ypzp0DpbKWVSTqFgptonC/c5ARUSuVVcoFwDt38E9/0ouLHn7zm+9Wq1CtNuv133c6X/r+PaI9xcBs+9VM5p9rtT/Uau91Or1MJhwbYyt04/qi6H8QnXScnyJeM6Zn25Oue7xc/m63e2V5+f9NHkb0nTD8H8vL/+r7S5OT/1worLjuHwHAcWbK5b9tt8+vrPzbvt5zKrxmzH835i9Ed7T+K6JDxlS1/p9KvQMQV7XNzGz4/AAqir5NNK/1IuItgDtR9C+dztTy8r9ms9NjY9/JZD7V+hLRCuI44lHPmzSmY9vvI26rLAAQBONBMF8ovKzU0V6vjPhrrf99uwcbM2fMM1ofRjxENGfMfxJ9SvT/KNXR+idKlYie8f3jACu2/cco+scoeh7g/yNyEf/Bst63rE+IWkQzRC8ThURtgHuIMwB/jfgbgJUo+heiwwCg9b8qdQ7gBWNKUQRERxCN47xDdDQIvq/1TxC/iKLjiDNalwE+QOwh/m0YdoLgJuLfKgWW9RPEJmLF979HZFnWz4lejaJ/QjSIFxD/J+Iq4rYnJAwPh+Ex161qXYuiD4iGzzdiTqmzxpwNgrNa/0rrDxBfDsOi77cs67LWtzY/fCYM/wWxpvVPEP+O6GQQvI14w7KaUfTfjfkOIiL+RamfIA4bEca4njdt2ydzudNR9Nso+mLU5/K9KPqRZf0E8cOt/7XbfbbXe2Fy0pTLFds+1Wy6jYaXzf5eqc+DYFnromXNd7vfs+1jY2OkNfp+5+rVt1dWvgiCjTPuujQ+Tkk8nuty63XsdHBsLI6+1+vIQz4Lhb+anPznXO4D2/4gCJajaD8VBEplHWeyUHi1XH4TEbpdXFrCe/fetU6fNryn9OZN2/PssTHbttVe6sfDUHc6ynXV8ePKGEU0wvTP5ZAIajVLKXgY7ccAACAASURBVLtYDJeX7U7HLpd1t2uvrGx4F6WSNTkJhw6pbFaVSrSyor76ygEAx7HLZZ3JWFrbB7iWayvsYnA/0fQ0DY7suF/CUIchZjJKa+V5qt8AoSzLBoDJSZichM3FE6iUMkYBaKW01hYR5nJw6pQCUMYgkSaytLaiyPJ9bdtKa4VoAeyUj8xmLaVUo6EsCw8dMp6nWq0dHq+JlOcpIrRttG0FoH0fAZRlWVFkRZF2nPh1Z2Ygl6OVFdXpqCBARA1ga20bY4WhUkrz/0WR8n10HK2UTsIZWiulrCDQiIoHjPA3xxgFAFpry7KIdBSpINCOYwFYvZ62bVUuq16P58NaRLYxtmUpvrwwVP1WW+U4FqK9w291NqsBVKulfF+7ro04/KNrjOV5FpFyHIgi7Xm2Mdq2VamkiDTRpntIpI1BRGVZVq+njVH5PL9fK5dDRB5Fgo5jbb0kRKtY1N2uXl1VuZwVRc7CQjxhcm6O+IcqDFUUoVKavzxDFArKcWBpSddqVjarxsZgfp6uXNHdrjM5aa2t2c2mfeIEui4sLaliEcplOHoUZmcxCLaUz/exbchmoVTa9MdyObl7WCqZGzf01asZ388YYwBgfJwqFchkNmoyOCewvo7c2JTL0Z07ijMt6+vY6zmO4xQKVqmkENF16ZlnaGqK8Gc/+0O9Dnfu4J/+FGSzwfe/71Uqwy7xSM6dc3/+8/L3vtf69rc7ADTyvV24ULh1yzGmNz/vnz0b/eIXzkcfZREzRGEUdVhZiECpjG3nfvSj9dOng3o9/+mn8Oc/s5OoEbN/9Ve9732vMWRtHSxRhJ4Hf/yj9eWX6gc/CE+cMNks7M/4/Pxz9+c/L73xRmd+Pvjzn3MLC1a3q3/4w8Zrr22z6wvw88/dpSW7VArn5oL5+eBnPyvXavqttxr1uvXpp7lDh7z5eX96Olxe1pcvO4iqUjGnTvVcdyfT1Rjdaulf/jLf6VhvvGFmZrqlUme7B9fr1t279pdfZpaXrSjS3/pW+9ix3s9/Xspm6a231ldW9J07dqNhT0yEL77YcRwX0Tamc+mSfvvtwunTvVOneuVytLxsnTuXdV0olcz4eLi4aH30kfvmm+2JifBnPysvLNgA8KMfrZ886Z07l/E8VSjAwoJjDJw+3bl9237//cJbb60/95x39659+7a9uKi/8Y2O49Bvf5ufnjYvveT97nd5z8O33lrPZMzqqvX55y4Avvlm8/PP3d/8pggAx497b73VqFSiHSqXWy1redn+7DPbdc2bb3Zcd9hU6XTUhx9mb97MtFrOs892Zmd7V65kLAuPH4+mpoJKZVNvRa1m/eIX5VIp+od/WP/d7wo3bjg//GHr0KEAkS5cyF+4kLtyRZ061X3rrcao7xJGkf744+yvf+3+8IfNiQn/pz+1795Fy4K33gpefjkCgPffz//2t8Uf/Wj9xRdHWB9haLdazq9+ZV24YCHaL71kzp6N3nknsKzgrbe8Tz+1/vznzBtvWFpb772nT50yr70WVqvdbNYHMLsXd4+i282sreX//Ofo3LnQGMNv6pvfjF55JRof3yhfCAJcWcHz59V771n/+I/BoUP0059aWsPZs9G5c/rWLa2UQnSUygLAM8+Yt94KJye7Fv/+I+LRo9luN7u8XFhYgF4PEGF6ms6ejbaWAnFuFUAhYi7nVirb/tgePoxE6uLFYqNhjIkQrWpVPf+8KZU0QPGLL9TaGh45QmNjVCiEp05lx8czros3b2qtXU70jo+bXC5Tr4/Pz5tqlQDg+nV14YICgLExOnvWKEXNJl67plZX41CcZcGxY2ZqijhLuhfW13mYni4Wsdczvm+mpgwRtNt44YLKZODs2WjnbsyEXE4DqFwuW6k4bOAoBbmcW62Ojl4QQT6vs1nMZp183lQqxnFsy8JSqWgM5nI6m3Wz2Uy5bFothai4rK5azYwsCNj8tPDtb2vfpyNHqFTKuO62IW6l0PPYnMFcjiqVbLnsWJZt21Qul9ttZdsqn4dSya5UnP59KBQKynF0Nuvm85ly2XS7yraV60KxSJUKNRqIaLluvlg0lqX7NydXKmVtW3M6Zn1dBQFmMgXLUoiQy+Uqlazn4eoqv1OdyYAxluOYqSnLdS1jsFQq2TZ0OpjNaqWoXC67bvzklmWXSqUBt3cErguIqJRFBOWyk88PP1hrBNBaq/FxcBw3CLJBgNksTUyY8fHsUAo4irBY1K6rta4iWlqrYrFQrRpEOHwYPc8sLqpMJlOpVEaWCxDxt8XKZgv5PPHnrjUUCkGlEhkDmYxWCguFfLU6ohIsisBxMJu1KhV19Kg5fdrMzlKh4EaR67qB42jL0uPj4cyMcV2YmDBzc5DLZW17m6KyPZDPQy4H3/ymfeSIw9UY7TYaA+fPQz5PR47Q889HFy6oa9dUu41376LW6sYNU6+T5ylEuHmTpqfp2LFkTGAIEKe2CoWMxR/P+Lg5cgRv3eL1Mri+Dp6HZ89Gzz47XArExf68M6tQoJ1Xqo+PQ7dLf/kL9Hpqbo6CAKan6fXXw7k5rui3bt1Sr7wSHTliuDsRAEolKpcpn6deD7NZOnLE2DZcvKiKRapWiQhu3FC//rUFAEeOmPFxsiy8dw8//VQvLKDW8bCxIABEw6Oz9kKrBVeuKM+Dchnu3cN8Xs3OmiDA5WV8/31dLtOzz26rRL4P3S4ScQlynNXm/FEy/Gy3OTukFG7NyGoN3JjKBTg8rLpYpGyWdgiFMIiQzcIrr+wp5MfTDnlbZLE4/Jny1jauw9582Ru5M37XUYQA1J9jPTqLn8z55iJAonjGbnIrHAe5xpoHNnkectMcF/Vxror7afgv94XjQD4fL6QbmdLljJIxMDFBRLS8jI0Guu6I3BnfgUKBu5qBC7KTsu/xcfB9unSJtood009+xanAMIy/BqxQPCvKGBysRB+C03CFAszP06uvRvPz5DiQy1Grhc0m9nrIKc6jRw8s1cUD/yqV6MUXAQDabazV8P339fnzqtvF1dVodtZ89pn+5BPNuddymRYXcXExrtW4exdff92cPRuNj484mPHxsiw4dMi02/qrr3B21pw+TVxwuZVWC5eW8KOPtO/Dt78dzc/vXF9HjoNKweIivv22np+ns2ejJGHJhRLJfq6E+Xl6883o889VFOGxY7S8jF99pZ591nDxe/KtXV7Gf/93iz9LfuZymXgV6sIC+r6enNxFKBPabbx2Tc3N0cmT5vx5tbgIUYTLy3jlimq1cOdiqJs31TvvWFEElQp95zvxxXG+lggQ0XF2iTqxVA22hjD9UgDioxsEPJzfcCnAAcLTc6KIELFYHK4PCAL0PGSFGjz5XNUCEPeXUX/L0MC+sxE11iypLLJcxBgElJTn4cBaV74bfLy5zoB3ELESIdJeml2GwP68tJEyxBLAa2Onp83qKtZq2Gzi5CTlcsNCDABaQ7EIvg/r68OzE2ybpqbg+98Pt/Ybb6XVwkIBCgXI56nbxSCAVgtXVzEMYWaGdjB+HQe+/e3I92FsjFyXuCl6aUlduKCXloZrtQ6cTIYmJuD116P5efPOO9b16+p//S97eRnLZfrOd6LJyRG3eGyMSqXRXcrx37SGapVmZ82RI8i2xtWrqtHAL79UHKCZmCCu6VhcxCtXVLeLExPmuedij2k7+EfjxAlTLiMAHD5sjh0zXKcLADMzNDIWU63SmTMRF+bMz5v1db22hjw/mLf3TU4S9zf3erC2hp0OvvBCePq0KZep18N79/DaNevqVZieVoXCpg7GSoU4IzAkDb4Pa2t44gTNz5tPP1XNJhDBygpeu6Y6HYCBarqtNBp44YIKApiZoddeS04UcQOHUjSym3ToLvX7zja9AB8/thqI4gJobog/2C8Z6wIRKAXFImxRIkjqiYYum7vJowiIcLDGOqknGpxGwh8EKxHXUjsOeB5t7onZWOs6NBXEtsmy4tbfIEC2yBjc81bF7eaiMGEIfRMMpqZodRVXV5FNpJHV2zzdpdHAen140waXjx09uqfLajYxn6dCgSYmoN2GXg8XF9XKCkYRcMvrdigFc3MbBz4MYW6OPI9u3lRRBEeO0AOuEtgZywLLolyO8nms1yNeFjA/T2NjdOZMdL81kPGHyRVlx46ZuTmyLOLK0atX1f/9vwgAxSL8zd+Ex45RoQAXLugvv1Tf+EZ06pSZnja7Rk/KZfq7v4v4W8VDG3Y9Ra5LmQyMjYVEyONEiaDRQLb0fB+ee86cPRtVKlSr4X/9lz5/XpdKVKkQf/wTE2DbtLiof/lLHPyOIsIrr5jXXovGx2HICgOIB+JxET3rTq2GN24oPiTsOo28cuoPABp0r5JgPLtsO8faEbnvbDijoTU5DgUBBgEl3hmvkz1om4hVJh71P2RIBgF4XvyYkTZRUo6ceGcceUxmvw0pURgiu2aZDHW7OKhE/D3EgQXTCVwJGQRAhL6PSqFl8cywWMcfHM/Dbpd7XGlykr76CnjAEGwzlkQpKBap08F6HUfOk9oVRECkRgPyeSwW46V47TZeuoTNJpZKdOiQ2c6/24rWMD9PrRZ98gkeOWJefTUanGD78CiV6Hvfi5LPmjd03u+TbAhJv4ua04dw+rQhgmvX1OysmZmhmzdVrUYTE+T7MDNDc3NmbGxPssKDFO7rmpJqVLaYZmbMq69G9TrevaubTZybo+eeM5OTlM+TbcPLL0d8PUn5b+LsdDp4/Lg5dcoAAH/AngcffaS/8Y1oqxJB33RP4BPCjZqdDtr2LmXNI9EacrldZg9qDUrh4BZ5hg0Ez4vbI3i6K0cHDtYmSiwFnoHN7QvJH8OQVwANB0oSqySKkIgS77LvncV/GezMYLvJ98F1Y5tIawrDje68fgcsbe3j55Junio7GCeanTWvvhpdu6b2fk8Q44487v9I/u550G6D41Aixzsvj9SaikWo1WhtDT0Ptmsw3gHXpclJ6vWwXodDh+LykYsXcWFBeR7k82Znm2jr+8pm6dAh8+abYbVKs7M7eXYHyD7O+FZGH5FMhk6fjhCp2cRTp8zhw/Tee/rWLVWpmGoVTpyIM1MP+Np7ZGaGXn01eu89zV7hzEx05IjJZMiyoFymcnl47DwiFArAbuPzz5vvfjcEgG4XazV87z396adqft7kcggAmQxsDeIk5gwfIZ5H0elgLrcvpbfAdXefgtr3zoZsothp4mWEQYBBgINdFweObUOhAJkM9HobI2h9H30fublhq01ENBwnSnZ7sJ2YjJRlsygIkLcwcfjTsrDXg8E4Effxh+GmGBNiPGyfvTaO7/IP4dwcaR0lU592BRFyOWo2cXERHWdTVzAPistk4sUEuzp93EtoWcBziHhs232Rz8PsLNVq2GhgsWhYOy5fVqur0O3CyZMwMbHt7LeR8LyR6ekHatBPhdHvkuPezz9vZmYCDmG+9hpcvqwuXlRzc9GxY4YHen89uC5NT8PLL5tcDj77TFkWZLM7feSOQ6+/Hr3wQgQAiXXqODQ+Tvm86vXwnXf0f/2XBoBnnzVnzkS8p3CAeCwht1Pl82Tb1GxCsQiFwn1fPLeA71mJhuNEmQyPl44TOtwR/jAikWwBWRY3lJHnxTt/ej3o9WLvbOfcGdGw6LAMGUPJ0g5jsN2OU4GOQ46DQ5MtYWD42ZAK2Ha8q5pzef0MHbkuzM4CL00aaeoO4Tj0wgvm2jX88EMNAIOHlhf2ZjKQy+3pJrMza9vQbKLrwsTEngrxBsnn6dAhs76ugwCKRSqVyLbpzJlIKfjsM8WBwocdeH5EGH1EuGEyGbgZRXD0qFGKQ8g0Pr7XnNTBXKIF+TzxjkAimJ/fZX6K1pvCeMkfXRfm5+n06QgAwhB5Lj2iPn7cJDuClYJ8Ph5ZHwRxSQHP3/P9/bxlft1dlQiRokhtZxP1esAr6nn+7MP4anKUsB/VYhuE4zXY68Xe2dCHjrjhy/eViABigwj6vhgLejYLrktRBO02R4WJvTPL2pTFTxiSIb4e9s6CgFuC4+ibbYNt097XENo2HDpk1tfVhx/GTQwJfJ9zOehPrd/FLFIq7iv2PJycNNPTe60aSSgUYG7OXL6sOh3MZrk+A+bnSamI55Q/GdPy98KeLD+toVKhQiE6dcrY9sP6Wd4BRCgW6eRJOnJkl+jvzpw5E508aYig24WVFfz0U/3uuxqReP0x/56PjdHyMl6+rDwPp6dNtRorkeeN2Ke6K5ZFI+cNDpLYREMxWq05ix+PUuRZHA9p5lwuF5cgJIsYeZYAr5xnr3Doc0eMo/sD9UScNNx4WFJR5bpUKlEUUbMJPPWGlz5aFkesd/8+cZyIw+e+j5zJ3cf3UCkol6lUGqEyPESlUjG5XPzMewmD8vNUKjQ9fd+RxFyOZmchn48jgKw7HLo+fPiBvuqPHXv1Qftp19RuDR/XB5y4lryFTAYcBy5ejEdnVir04otmbs5oTRMTpt1WS0tYLsP8PGUyxCOv9rcQom8T7VLrwDWZWysbM5l41xUPGOYlgg8DroQc/J+OA0FAvd7GUO2hY8k2kTEbo3yS+UTJI1meON9XKpExyEM2qD/91rIoDNXI9dNDOA7ZNna74HnIk9v2/YvIY1i2/p294EyGS7GhWqX5ebOyspfXoHKZpqZGjxnaAf56vPxy1O1iUmd3IF/1x46ndN8ZL4+vVqlQoFoNXZd4BoLWMDFBKyt04YIeHzdzc0REa2vYbI5eCLFrGcve4kRxjfVQtkjreF9jrwet1sZ2kPt8r/uBlYhferv8EceJPG/QOwNE1HrDeOQ3xUpULsfTadn0S0qEggC2U6KkcoKz+5ZFvq84wZ9MQXoQhsrEPA/bbXCcOE40MUFHj5pOZ5cwOE/R57HW9/s7waJz9uzjOo3rAHlKlYh5/vloetoAgOtCUvE4Pk7lMvg+5HI0M2M8D1stjhMNf+uTSqKRxSYM54l3CGzh5s2Lg3CciOWg3cZCgR6eTTQER0CCIJ5YuN1jWImSdUA88CyJEwFwnCieYFksUq2GrdaGE9q3iYbdUmawFgkgTrTxuGgATHJn+yMpLGBR4+fh/Ry2HQ/JnZykEyfo5s1dfMAjR+i//beQk1xPSXT5YfBUK9HEBA1VghJBLgfT03T6tOGht54HloWt1gjvbHCgH9Ho7+Be6omGdnsM/luOWHsettuUz0M+/7DiRENwnEhrZJNnu8cklY0AQDSiCJC9M64LL5fp3j3e4Bz/Z648GqxsHIRtpWQgbJI78zxM1mzsG3aLiKDTQdeNR9NyH4llxZpSKNDcnHnuOczldqoP4LHW+78UAQCeciXaCp+uI0fM7CxxRTj3LnQ6I5Y4R1G8hLNapZG/6gBgWZTN7uJSJZU7WysbbZuI4oq7hxonGoK9M84K7axEgxHrpJ5oKGKdeGfGYOKdQX9bLOfCtuJ56PuQzcZ7hzh3FgTQ64FlsU20/zSi4wA3VK+tcTCeYMuEbMuCsTH63vfCRHOFh4fc4BEktebQb0/lw9Zu4/nzCgCOHTPFIhFBvY6+j+PjxKtTiTZCKkmFzv30nW36O/bbNcMQ22005uvzzhCJ6yc5TjSSft8ZDtQTAcCmlfNJxDqTgUKBkl0drCBak2Xh1kIqALZWoNcD141XbPfjRHFfBfuGD6JE4+PEPT3lMo2sj+NPcB+V08I+ECXahaQ0xhjodODjjzX3eR49alyXlQgmJqhWo15vU9RZ69huHxxnN5JE7EY2r0N/sjptHiz/UEGETIa0xh3iRLilF98YZPUc8M7QGNKauHDZdSmXixfsQH9iAd+0rZrS7UKvF68hAEg6YMHz4pd4ECXKZDhJirUaHjq0zycRDhBRor3CjdrGwL17+Kc/acuC48dNvY5BgLOzZmkJeHxHEk7i1l+eL7PzgcG4AxaNIdqyPweAg9ZItHsa7qDoe2fEewdHMlBjHQuo6S+G3ByxBu5W1Rpeey06edIAANe1Y3+DK9ccDUIE3S7yslmu9+t3wCIXWA/24u8Dtol4+Ibv76dSTDhYRIn2SqOBtRrygvY7d1SzacIQ1tfRsmB8nEol6nSQm6r48ZkMHD68p+zs4HwiNri2KhFHUh7e3rshhiLWI71LDgnBQC/+1rKjRGVYnqanKdmBs/XZht5at4u9HuVysX/EaXvbjmewsW/4AN4ZjY3BjRu8nHqfTyIcIE9NMfkDwzs/x8bis8T+WqPBEWvDXhj7DvdLEifqZ5FoMBHO8CHf1bw6KLC/H20Hm2hrB2wyjSghqXLYOVK2VYa4Dp7jREnjMe8+5TmWQ6Hx+4Uj1gBQr+PIeLnwNSNKtDt8Tmo1XFhQ4+M0O0tKxc4aHwnbjmcqBQFwo/l9oRT1lQiDABEx9cqUgdzZ6GIf6EesIbaJRl9u3zvbJVLG1UZDWfluFz0PE5sIACyLSiXOvuNW8bovkhLtwbLMwfIl4WtGvLPdYUue/ZSpKWNZqJTmbkluguG2jEwGfH90KfbO9G0iDEPiyTuPghLZNilFnscR6xHiqhTZNvZHSo5+nqQDdjChthXHoXJ5eCZktwu9HrruhhJxZbzrUr0e9wnum8SkiiJoNrFeR63JmKeo9/1RQ5Rodw4doh//ODAGLAsmJ6nZRAC4dw9dV42P0/R0PPUimyXfh30EHRLvjCtrEMmyHvoQ4p1h74xzVdvZRENxopHwYJBddwpkMlCpbDRtsWHieej7lM1u8s5KJdr75LC94Hn4pz/p69fV0aOR50GlMmyaCV8PokS7UywOrdgGAFheVrZtZmdpdtawL8PzFbna5b50ZLAX/9GxiRKTYbvBrEOVjSPhhKBt765E1erG/Gye9dNsYhRtGiDdV6IDy3Pl81Qs0r17qtUiHkQ9Nva1TrwREiROtE9WVnBpSU1O0uxsnGPOZIi7ou53pgwrEYd+gwAfsFLmYNk6ISAhyeLvMGKVqxaV2mW7SSZD1erGcJ9ymU6ciLh2dDCTaFnE3tn+3stWxsbo6FHD7t4XX+h2G8fGxCZKB1Gi/cCFiGEIPBaec96OE09WnJy8v5mWSfFkFGFfiR6Dn2XcPCltJEnf2R5sog0vrFqlZ5+lcnm4FItzZ9wofyBKPTlJJ06YQoGI4unaI1dxCV8DokT3TTLYEGCjP5O9s04HAYB3gd/v07KbEwQPWj38tZHUFhqzU8R6L1n8TIYqlQ0JKJXo6FEzO0vl8iZjSmvI56FcpsHdxw9CpUJHjtDMDJVKhAi5HI2NiRKlg8SJ7ptikY4fNzdubBJx9s6CACwL5ufvY5jpILzibWucCDHN7PJQ2fTg31kmdtjws6tNlPR2lcsbARqtIZejb30rDMNNay/5Sp57zkxNBVNTB6BElgXVqnnzTRgfp7fftvJ5qlTuexa1cCCIEt03xSKdPGkaDVxf3zidtk2ZDBrD07LNPmbvQ7+WeqtNZNtQKtH+nvPByWZHd94mEZwdYkn9eqJtbSLXpeeeMxMTNLglgQNns7MjFnMiwtgYJbvLHxBuzT10yBBBvR4dOkQ7D5MSHh6iRPdNqUSnTpkbNxSn8xnH4fYocl2YmbmPHVWDRFEcsbbtTTXW2SwdPjw8Sulro1ikycnRc1ERN0qrR8K5s+2mtQLA2Bj9/d+H/fV2qTE3Z/7pnwxPKRFSQW78fcO7Rl56KTp82CQ/zohQLsPf/I3JZndfP70d/U1em2wiRMjn4dgxcyD+yD6oVGB2dj9bJ2HAJtrOO+PRRanDg9OEFBElum+4rvq557aue6RXX32gjXdbvTNEKBZpetocPmzGxtKZdlwu08wM7U8vkg5YcXmEnREleoQwBoMAs9mNichaw1//dRQEeL+7QA8IQoRSiaam9lnvl0xKEyUSdkaU6BGCbSLe1JjYRDMzIwK3Xw+VCrz4YvTMMyaf36cOJvvOnp4NgsL+ECV6hIgi8H3YGrFOi0OHzI9//EBxXO4727XGWhBEiR4h2CZ6FPrOmAeP7wxOShOEHZAvyCPE5oj1k1Bft2s9kSAwokSPEMY8ch2wD0gSsd6unkgQGFGiR4j+VJBU0mQPBW5J26GeSBAY+YI8QmzX7fH4woNZRYmEXZEvyCMEd8DytI3HXYm4tTXZqioIOyNK9AjBlY2PnU3EW7lbrU2zQZJ3sXX1kCBs5UkJSDwRPDrTY/cOIrRa+Pvfa9/HwVZYy4JcLl7SLQi7Ikr0CMGTWB8vm+jQIVpZMTdvDttElkX5PMlSQ2GPiHf2CMEVyYiwdfPiI8vLL0c/+EE4Pk5DI4psGwoFmQkt7BWxiR4hSqWNSaaPC5YFPMl7698LBRAlEvaI2ESPBHySKxU4edKUSo+Na7YDti1KJNwHokSPCkpBtWqefdaUy09CObJtU6FgZCa0sEfEO3skyOfp9OlobIwmJ5+Qie6JdxaGaV+K8DggSvRIUK3S978fPl5Zs52xbSgWwbah2037UoTHAVGiRwKeSPtYM7QHiad92zYBPBHKKjxkRImEg0FryGY3QtS2Tfm8RKyFvSJKJBwMpRI98wwl4Xa2iRwnzZ2RwmOEKJFwACBCuUzPPmuq1fgv7G8eOWIKBdzHbm7haUOUSDgAeAXIqVNRsbjxF0R49dXIGPHRhN0RJRIelGIR3ngjymSoWIShEoQnZuSb8LCRb4rwoORy9MorD7RyUhCkxloQhPQRJRIEIX1EiQRBSB9RIkEQ0keUSBCE9BElEgQhfUSJBEFIH1EiQRDSR5RIEIT0ESUSBCF9RIkEQUgfUSJBENJHlEgQhPQRJRIEIX1EiQRBSB9RIkEQ0keUSBCE9BElEgQhfUSJBEFIH1EiQRDSR5RIEIT0ESUSBCF9RIkEQUgfUSJBENJHlEgQhPQRJRIEIX1EiQRBSB9RIkEQ0keUSBCE9BElEgQhfUSJBEFIH1EiQRDSR5RIEIT0ESUSBCF9RIkEQUgfUSJBENJHlEgQhPQRJRIEIX1EiQRBSB9RIkEQ0keUCbV6hQAAAINJREFUSBCE9BElEgQhfUSJBEFIH1EiQRDSR5RIEIT0ESUSBCF9RIkEQUgfUSJBENJHlEgQhPQRJRIEIX1EiQRBSB9RIkEQ0keUSBCE9BElEgQhfUSJBEFIH1EiQRDSR5RIEIT0ESUSBCF9RIkEQUgfUSJBENJHlEgQhPQRJRIEIX3+f9hZHqS9G9vcAAAAAElFTkSuQmCC;" parent="1" vertex="1">
                    <mxGeometry x="840.33" y="280" width="120" height="80" as="geometry"/>
                </mxCell>
                <mxCell id="IDKSLfoBvOOnQwNbsrg4-76" value="" style="shape=image;verticalLabelPosition=bottom;labelBackgroundColor=default;verticalAlign=top;imageAspect=0;image=data:image/png,iVBORw0KGgoAAAANSUhEUgAAAMoAAAEUCAIAAADlRD4UAAAACXBIWXMAAA7EAAAOxAGVKw4bAAAgAElEQVR4nO2dWXMbV5LvM08tAAo7SHARqY3abcseb9HuHvW4J6I7or/o/QL3YSbmqa3umelx+063WnZrsU1JlGhSXAAQBFAAajl5H7JQKIJYSUCUzPMLhcPBBSwU/pWZJzNPHvzqq69AoZgN4qwvQPFzRslLMUOUvBQzRMlLMUOUvBQzRMlLMUOUvBQzRMlLMUOUvBQzRMlLMUOUvBQzRMlLMUOUvBQzRMlLMUOUvBQzRMlLMUOUvBQzRMlLMUOUvBQzRMlLMUOUvBQzRMlLMUOUvBQzRMlLMUOUvBQzRMlLMUOUvBQzRMlLMUOUvBQzRMlLMUOUvBQzRMlLMUOUvBQzRMlLMUP0s76AnxVEUCrhixcik6G1Namf+7urrNfUIAIieP0av/pKf/hQcxw86ys6e8798zU9pATHgXYbXRekPOureTtQ1mtqEIHjoOOAlEB01lfzdqDkNTV8H9ptaLdRma4QJa+pISW0Wug4ynR1UfKaGlJiuw3ttgq8uih5TQ0pod0Gx0FlvUKUvKaGlNBuo7JeUZS8poaU0GqBir2iKHlNjY71QiKVUA1Q8poaHHsp5xhFyWtq+D60Wmy9zvpS3hqUvKZGZ+WorFcXJa+pISW2WtBuq9C+i5LX1JCSa46qKNRFyWtqEIHrgusq69VFyWuaKGH1oOQ1NbidUCksipKXYoYoeSlmiJKXYoYoeSlmiJKXYoYoeSlmiJKXYoYoeSlmiJKXYoYoeSlmyFhDADwPWi1EhHicNG3Wl6T4+TBaXlLCwQE+eKAJAZ984udyqqimGJcRzpEIfB8OD/GHH8T6umg238xVKX4mjJZXu43NJnqe6gVQTMxoebVaYNvA8lIKU0zECHlJCc0mNBrg+2/mehQ/K0Zbr2YTbRs9T20NVUzMaOvVaoFto7JeihMwTuyFtq2co+IkjLRe2GxCo4Ge92auR/GzQlkvxQwZkbXngY6d0L5PWoIIPA+kBF0HVS9S9DBOWhVarYE7j10XHj7UvvpK39lRS0tFL6Pl5boDhwrxtvf1dfHggVapKHkpehndkMNT2vvm6z0P2m2V0FcMZKyGnEHS8Txst897OZKjz4MD3NlBddBLD6c69IWtl++f63tKBLUafvON9vixVqmgEGq+V5fTyqvVOtc5C45NGw3c20PbhgsXpOvC69eqBzjgVDeiY72mdTHvHp2aLBgGrKzQr3/tf/aZn0ye41jhKKe3Xue9HMlVDdOERIKKRSkEGsZZX9Nbwynlhcp6NZvYaIBhkGWBpgFi8O88L3dCTuscHedcWy+irvVKpYCPn0UMvqUUdip58RFz53mh1LFeLK8j26iUvOCU8nJdaLfxPCcmiMC2odEAw4BUinQdEEEIAgDfP9cPHnNK54itFpznXp2I9aJkkjSNEIMITEpQp7+oxMSp4JJ/swmGAclkEHsJEcrrrK/vrDmtvM55WhUgmGVvGBCPEwtLCADlHAFgGitHcc7lxSE8q4pTEsp6hZw29lI1R+iU/DkfwbEXAEiprJdyjtMmtF6+r6zX2PJis9+D56kDwPrQcY7q5L3x5BUWOiDS+8XTTc551v44YWivnCOMX3MUAhCJV0N8+wZlpctlfPlStFoAABcu0KVL5+seh85RZe1hTHlxJprjCd8HIYAoWBkdd5o7O/iHP2ilkgCAL7/0zpu8ADhrT2rlCOPLS9dBCPB99H0yjEBeAHC8OdP3od1Gtl6uO/ULftuJhvbKOY4rL01jeYHvIxERgZTYsWq9MX8ovnNItOaorNe4oT3vkmXnCEFcTwAgxHF1nRfCpygaIUTSqmrlOIm82A/yQxl1judWXlIGKWVNA8RAStGStpTn9dZ0GDfvxc7R87rWi+8dh/znE9eFZhOECKqNTDQxoazX+LEXrxzR90lZL8Z1sdnkeexH5mu8PTVHbug4PETDgEzmDIbGj+kcKRJ7IXRyqnC+5eU40GyipkEiQXrnOQ1rjme+cmQrsLsr/vhH/cEDrd0+g89popUjcWhPBERB3Mrp1tle49uK66JtgxBkWRgahrfHOfIezIMDfPFCOI48k65PMc4tiOS9ugXsMPaa5eW91TgO2DYIwdarG9qHzvFsrRcPz+J24rM6Rl6XcvRcrkje60jsFd7KcZASmk3c3kYAWFmhROKd1yU7R5ZXj/Viz3i21ounejebyJ+X64Lvg36qnYcTM1YzICLoOvFdYxs7aWjPsVq5DP/zP9rXX2vV6umu+u3AccC2OfY68rG9JaG974NtQ6sVFEAd5wwmmOpjyysI7dknTiovKaFex1JJVCpomrw+eOetF8deySRY1hHrpWlBBudsnaPvo20jywsAWi1wXYzHp3DbeaLgzg6WSnj1qlxaGviaYpxe06NFod606jhICdUqlkrYbv98ctmd2Iui1uutir2aTWy1kJNK7fbUSsCtFpbL+OCB9h//oW9sDFPA+M7xSGgfTUyMozDfh4MD3N/HdnusN/BOEMZelkWaFob29JYUhTj2areDzy4c9Hd6dnbwm2+0V6+E66Lj4JCWUn0cf3w8tOfqEAT1kNGvICWyvByn2wv1rifMXBcHxF4EgG9H7IVReZ3MekkZBNzhaJbdXXzwQPM8iMWIx9gkEtTXykwQe/VYr2jsNVIoUkK1CuUySgmaRq5LrguG8a4qjB8Px4FWKygK9awcEadmKk6M70OziY6DsRjoOrXb6LqTXVA4ePHxYw2R7t6V6TR5HkqJug65HOXz1GrBxoZYXZX5fJ8Xn2DlGHZM9MRe/C9sMOyLlNBoYK0W/Irrouuefc3kxHBs4HngeaBpEIt1I4S3YacQL6QqFaxW0XEgHifDAMcB153saeY96Ds74ttvxePHWqOBUgJ/cIYB8/N06ZJst/HlS9Fo9H/liUP70JmGaVXDAF0n3wfHGaYY9oamCboOngeu+w7H+K4Lto0AgVvsacjhf2cYezWb+Ne/avfv65ub6HnYkdfEiQnPg50dfPUKWVjcx8CfsmlSsUhXrkjXhc1NbDT6v8K4sZeugxDkeej7QUUotF6GQYbB2zpGZO0Q0TCkroProufRuysvzwtuqGXRcRcfKQqNeHRrNTw46KqQPY5lnfa+uC68fIkvXohcjubnZSZDQkC9jpPGXqG8bBsyGYDOqHkiME3IZmlhgaSEcnngzOJxY69otyp0Yi/+OhskKdF1UcpubYSJhvCIZJqg6+S64DiTvdW3CrZeiGBZEJaDmIl2Cm1siP/+by38CNJp+uUv/WvXpvDYEUEmQ1984S8uStuGSgUdBydyjkTguri7K376STSbQZ4y9FGmSbEYcVQwJCg6SWIiGntpGhgGmSY7x+6DyL8CRxsHhADTBE0D14V3OvYKnWMyST2jLicaAlCtwvPnghtmKhV89UrU61NzqaZJy8tyZYUyme7KcfwX5/k0rdaRM1mkDHa2sk3hjNoQxpVXNK0KkbwXWy/D6N1Sy04T4MhGSEQwDNB1lte7HXs1GoAIlkU98cBE8uKn9OZN+fvfe5cvy7DwPMU7IwTEYqBpEycmeF2saUeaJVleAGSavW+8L/qYHROaRsdL2hDICHQ9MJth+y/LDgDa7SOrqk5oj647IvY6OMDNTWGatLBAiQTFYqOv843hechrJcuiHucIAJo2Wd4rmaSFBZlOi/A2mmaflM3mpuCGgEQCVldlLjfWq2sauzA+4GJc58iesdUKsnphJNNZOaJpQphJHsKkG9ECoxVNqwrB8sJ2m0Lrxct1rkWwzqBj0rgkN9J67e7i/ftaLkeffuovLkIs9hbZOnaOpkmWBQOcI/n+wHO++mIYEIsRb+Pjh7mHx4/Ff/2XBgDFIv3udzSmvELr5TiTWq9QXhQuDH0/+OA4yBnJBPIKt9GyLMJ2Qk0DXScpIQzt2dqxvWm3wbIwfB22Xp04YFhh2/Og0cBGA3Ud3n9f5vNnMGug3Yb1dWHbuLYmC4Xupbou1OswNwfJ5KmcY/S3TBPicfI8aDYhFutVLV9Mvc4B3wQTIYUA0yQhJk5MOA40m6BplEh0myWjK8epyQsgeK2jWzmCrxsGRZwjQEeOpkkAPHw1SGqz9dJ1qNdHJyY6vby4t6el0/TBB2Ne6TRptfBvf9N2dzGToXy+G8Zy7DU31996aRoAoJSTWa9YjOJx5BpLuACPEt7ziV42XE45zmRjSnnqYqfVG7mUF105TtF6kaaFIRcnJrDTTkh89a1W8HwQISLpOobO0fMgHNvHPtt1cUgOlu9jqNSzKt5xAMD/Zc/CEQJ0qo2ImEzKqVqvoEnLdfH1a3jyRMvl6NYtPx4/krblC3DdIDKJQgS2jZyGQOz+PEw+qTrcSZBMEvdL8oKMmxLGlJeATnGq2UQ+urHRwJ6kFN8yIYCfyKjOoomJdhs8L5CdrhNHS+GRaR2TxokJGhIH8PLE85Bv31nNAvF9cN1AJY5zpCbheUFiYlDeCyef7xWLQSIBnofNJrgu7O3hX/6iPXokonkBvoe6Hnz2PWaMb1S1Cnt7KGV3/1LPaKNx4PZDjr0sC+Jx0HXiVEXHevW+8ejv8jlLjgM6AJTL+Pe/a4hw+bI8OMCNDXHrlvzggyOxTtjmEAZex1eOYcuHpiFbNeiMHtV1QgTDoHicOivHgW/YdaFSwWYTslnZaomDgzOoe7MZqFbR9xERPQ+jvXgcISEe2SMUcoIBTIhgmsSxV6OBjQa0WsgVZdvGeBy4d1wImJ+XxSJVq7i1JS5elNHPmJcF6+vaDz+IQoEWF2U2e/LnkmOvbJb4r2saOE5ggDgt0Nd6cQi+sYGPHmlXr0odAGo1fPRI+D56HuzuikePRCrVG+v0tEX05L00LVgodeQFug6xWNDF1m6DYSAixGIQi4V5r668WKyNBroupFLkulguC9vGXI6aTTo8PJu2CtuGahW5aM3PQygX/iABgtVxFDwyeHyCPxeLQTxOh4fI8uLXlxJtG1IpSCQAADQNikVaWKDDQ/zpJygWIZnsvkKrhdUqvn6Ne3u4tiavX5enOTyL5aXrYFnBX3ddaLWg3cZEgo7LiyXBz+SPP4r//V/NMEhAx6iWy/jtt9rGxli9DNTdpQ2mCaaJvs9lBx4ARoYBvHLkC3IcXiFTLEYce0X/Cj+yDx5of/iDvr0tXBf299G2sVCAXK5/I9EbwLbx4AClJF0nz6Oocwz71Y43I4VfmagZOoy9PA/rdazVuA2QAKheh7AHU9NgYYGWl6lWw+1t7Nm6WKngs2eo63Dlilxakrlcb0VhIhwHo7EXl/IizrE39vI8qFbx2TPxpz9p332ntdtABLrjICJJCbbd3VUyErY3nJXgVBbHv2y9OBMWi4HjBNYrFkNOwMRiYStLN+9l27i/j8+f49aWuHVLxuNULqPjwMoK1evj9ltPFyJoNJD9smkSn54UXdBRZFxvlBPvcwxXjo0G1GrgOMGa1Lax2SSO5ISgTIZyOeLumnAlyB9HqYQbGyKfpwsXYG6O4vGTvnkACLL2HHuRZUGjEXyl3UaiI9aLY9NqFTc3xY8/iu+/F7VaICS9VoNWq5vPxfGO8iIC3yeWl2kGO2w5m8XWixMT3CzbboPrEssrHg9OWogukstlfPZMVKvdLVOVCggBuRwdHp7ZVspGA/j8+XicpETHoeGJupATOMdo3qteR85vmSYIAY0GNpvYboOUyJGuYVDPx8QF31IJX74Ui4v+5csylTrBO+7CnwKHWYkExOPcjci+6Ij14iup13FrS/z972JzU7Ra3WdOL5UEZziyWbpwgQ4PYWtrtLmIhPbE1otjOrZJfBdiMWg0ggti58g5VU6PhStQ9ssvXuDhYbCWlhJbLYzFKB6neBzDWZvQz1pMxP4+bm+LhQU5N0fDdwlwaH94iNksJRJBMWQcZ4fBzDOatJ3QNCkeRw5f6nWMxYKA2rahVArOiORMG3+uUT9j21gqIedj02nK5YgLvqeBTUDotRsNjr2CzTgccAsB8/O0vEyVCu7v4+am8DxYW5ONBmxvCwAQu7v46JGo13Fpif71X727d3sTOX0h4vwWdJ6nMJsAHXl1ExOtFssrCLwg4jgo2P+IL1+KWu2IdjhGDnv5p5L9evZM/Nu/6U+fao4zOufZbEKtBppGlkVcgxuvPkuRvNe4TwN/irFYEKVwbxYXNBsN3NnB9XWBCJcuUSrV5yKqVXj+HKWEy5dloUCcpp8KnZ4rjr2CjzK0XkLA2pq8c8cvlfC770S1igsL9OWX3kcfSU6qC9/nHDrEYpTLUTI51kAllgUvEjvN0Oj76PvIXwxD+3Y7yE2wEMO3zR+V40CthtGMZeS7yB0WlgUAUK9PYR9Vs4n7+7i9jVtbOKh/N3x33FRumkG8OLwXNyQSe42QY4895kiDdWzb4HmQToNpYr2OOzvi+XOh63Tlikyn+7xorYYvXggAXFuTvBjqGxTCqKeUndLmpvj6a217W3SukLv0IAztAcAwgo8+n6eFBSKCWg09DwwDcjlKpQIVCR6UOil0tNc+/Ar3soa5VkToxF5B8avnbbdayPFNLkes9x50PXhea7XeZO8JCENg7rIa9GPhlDy+s5w0dt1xizw882zkBxkWbcP0OueQOdfl+5jJgGlCrYY7O/jihdB1uHpVZjJ9XvTwEDc2BCKsrclsts+fC9ezI6/K9+GHH8S//7vx/LnovB2IxagjLw7TuWMCECGZDHxx35c9oQ2lyIyJni9KSUKAYSCvXDgxwfKKWi+m1YJyGREhn6dEIogTo5+iaQL38larvevwE1Mu48aGODwceK/bbahWEZEymaDdmbvZJrRew2IvjiX6rvB59IiUkM1SIkHtNuRy9NFHPg/m6Jtt4i5iTaPoMJUoug7sl+r1YU8pLwA5zOppAtV19kLhg3fkqeh7HxBBJ5IsMinJ81zf1wF03/dd1wXgR1YQCc/zpAQiXUrpuq7naZ6Hvi+llL4viUBKjUg4js/rGiGkEK6U0G5rrRa1WhSLSSGklL7nCSKNSLqu22iI/X3h+342S/v7eruNnue5LkipSUme5wkBySQ3dEM67bvuqfomfB8B9EoFHYfu3JGO4/WdrliriVJJA5DpNMViPiI5jtZqkeO4vJeLO8LDu3T0TwTC8n3d8+TxH2AcB5pN4bpoGBLAi9xtTUo+SkdalmMY2Grpq6vyn/7Jn5sLVgyuyzcQPc9rt33PQ8dBIono8z0/LmtEaVkgpaxUfCI5qFWrXhelkrBtEQ7V8n3f81xEgag5DjqOkBKkPPLGPQ+lDFRPJD3P830NUZdS4r17/8e21wAomfy+UPhjs3m1XP4yk/nffP4/AcDz0uXybzwvXyjcJxLl8pemuVco3HecRdu+o2llXd+LxfYARLn8pesW0unHiE67PWcYry3rsW1/Uq//KhbbM4w9orKmlRKJHc+bK5d/Y5qlfP4+wLLj/FO7vdVqbbfb1xBzCwtPDcPf3/8EsV4o3Pc8ODy8YJoZy0rq+vea9mKEgoZSrX5eLn8pZUuIw2Lxu2z2mZQ2Ue/jTHSR6FKlgo2Gb1n7pgmed0PTnGTyr7peQRTV6sel0q/z+T/ncv9z7HeRSGs03qtW/zmV+jaX+88B15IgytRqlyuVa9nsd7nctwDgedly+ctG4xYiJBLPstn7lUp5YwNzOVhelvF40PTmunPl8pdSxgqFrxKJhq4vlEoL29vFfP77YvFx3z/WaFwol28lk14+X0PcBtgZcFVLRFcqlUK5nBcio+tQKNy3rKeuG3Ocy677C8eZb7cxlfproXAfMcgteV62VPrStm8AoGU9KxTut9tL5fK9dPqJXiqVLWtN16lS2f3xx7/EYl4ud29jY+Phw/sAoOvFXO49Xddfvfo7opbLfVap7Dx9+mfTvGZZc5636bovHOc5opbLfaDrib29DSLbNB3H+aHR+M9UKp/N/rJerznOtu//5HkvHWdd1y/lcp953t73339tGDct66rnbfj+00Qiruvy0aMfpPQymVu+X1pf/waREonbiIsAc83mt+32X8eR0SDS6UI+/yWi43mHT5+u2/b/Izogsnt+zDTvmibqOgnh7O29lBITiazv2/X6Xzxvm0hkMplC4VcvXjyrVu/3/C6iQNQtS89mP9/f34j+gO8D54TicTKMjBALiYSXSs09e/a0VuO7vZjLvWdZt4igXC6tr3/jui8BYGcHdiJ6MIxLudxdIRIbG39z3YqmXUskbMuiV68eP3rUez1MPH47lbIqFXd9veS6T1x3ve+PGcYN04R43I3HESDmOPjkyRPb/pOmJeNxO53+wDDmAeCnn376xz/+FD6WhrFUKNyxrOtSYqlUXl//Jha7kc1+/urVK/z97/9vvV5cWJDz868LhadbW8UnT+5cvfr8xo2nANBqJZ48udNoJG/ffkyEjx/fyWRqt28/PjjIbm5eyGYb2WwtnT70fXzy5E6tllpe/skwvFYrlcsdLC1tPX9+5enTm5ZVS6UOi8V6Pl9LJA4PD9OPH99Jpeq3bz9+/Tr/6NGVGzdK16+Xd3YWDw6Suv7acWh390oq1bxz50ksRu12bnvb+umnxLVr26uru+OLKQqHdBsba99/fyeddtJpO5ncSqX2stl2PN7rv169mt/YKC4vy2LRN4xaswnPnl0Qwrt583ksZrdauLd35fXrm5cu/bC6+mPP7yIigHj1auXJk1uXLr28efMpf933oVLBhw81APj4YxmP69WqVa/P2fbC4uLm4uIrAGg2rSdP7mxvLyPCwsLurVuPU6na8fdSr6efPLnjefrt24+lbG9s5GKx1Px8KpV6bVlbfd9+s5mvVpfqdarX28vLlcXFg74/9vp17vnzhVTKyuUS29vJeh1u336ysrIFoJdK80+e3Dg8TAPA5csvbt16LEQQqDiOtb19a29vqVoV2ezenTuPDw+z6+u3isUtvVic931YXYWbNxeuXZv/29/EDz/oV69e/e1vLwLAwQFWKvreHn7yySdSwuamsbyc/PWv51++RMfRVlfp4kVaXJSeB6WS4ft4+fJaMgkHB3jx4vJHH90UQv/+e2FZmWIxffOmf+WKnJujzU2xuakvLCTv3Zv77jvx44/G2lrm3r2Ljx9rm5uYSOTrdajVtGIx9cUXuXSaajV8+FBUq9p77y19/rnPGWrbBgDIZoeV1VwXeHnI62TXBcPQX77EXM5YWMgsLKQWF2+srvZ2FRPB119r1ap2/bq8eVNaFh0cQL2u6zp88cVSJgMHB/jkibBtcefOtV/84srxv0sE33yjPXumX7kS3EYOpzY3RaWiI8Ivf+lZFm1u4u6u2N0Vd+9m7t69BQDlMlYq+v4+pFJ07drcvXtfzM/3CZJ2dnB/32i14PPPP/c8cBwtlYJr1+TS0lyx+F7fW1Eq4atXuLsr9vbwo4/8Dz7ov+j49lutWtWKRbp4UTqO5rr4/vvvf/rpbSJ4+VK4rra7KwHg7t3Ve/eWwvxovY4PHgiemDI/P//FF19sb4udHf3KlSs6b9ZbXZWLi3L8VC8RSokAFA2NicD3kVeO0dUEL7t4AXK8/S1sBbMssixstaBeD5rGONmYThMicmKC6w+7u/j4saZp9Itf+MXiwGs+OMC//EUDgE8+kfE42TZICbkcZbOUTJLvY6MBnterLSmh2cRqFbkqZRjUaAT5PM7d1+sgJaRSMtxD0ENP8xJE5k+1WsALaimD6gp3KEV/N52mO3fkzZuS+xSG025DqYTxuJyfH9YfwZOh9/epWhVDFuDtNhwc4IUL8uJF+eKF2Nnp9iTOz9O9ez4X13O5IwtYXad8nubnabfjWrgbHoD0lRU5N4fLy5TNTjCYmo6OMAm/GOZao/VO7mbpm5iAzj5bHmOUTFK1Kup11HXgoSuRLSGctoXXr5HrppZFt29LNmA9qz/uuXj+XDx9qpkmXbhAqRQ0myAlFAoym6VkMpgt2NMfzKbRdUFKNAzqXAOGDUjcBi0lpVLYN1EXfV8hLK/9fdFuB01j3NLDTX9hKsEwYHmZYjF586ZcWZFDdq8gEgByLbnRACJIpYZtpjJNSqdRCDg8hK0tzGYFJz85OwoA9Tru7+PWFto26joUCnTxopQSwjRbMkmD5KtpkMvR/DyFeU0uOgOA/tlnvpSQThNv1hgT6jd4nOvcbL2iL8Vtn+GeggH3CxIJsCxqtcC2IZUK5N7TW+y6uL4uHj7UGg00TapWsVbDbLa3p4+HLPzjH1q1ipkMvHolODcrJRQKlMmQZUGzydbryC86Dh4eIn9a0Wn1YQmLe4eIMJ2eYG8cz5/a2+uON/N9aLV6rZdl0Sef+J4HlgWx2MinnQd1o5SIiD1ljx4MA9LpYBTAw4fay5fiww/ljRt+Nhs0Ku7s4J/+pG9uIm8cjMXggw/k9euS9/4Ph+VVKBAbgiDjpQMi6HNzJ6nkhZa/p8eQC21CHGlz8DwYYr0Y7vxMJpH3qC0syHw+uO/RPyEl1GpYr+P8POVy9NNPqGnCsmRPLpHrmLUaLC/LZBL29vDgAGMxSqdpbg6SSTAM2tnBVgt7xnA6DhweAhFkMhTdbEidUQaui7yROpWiQc7xOL7P1oszw13rJQRbr+DHNA2i+5EG0ckFom2zKQ2+OMQ6cGRiWZDLweEhbG6KRAIA6NatwAU3m7Czg5UK8jtlxYz57rhRdG6Obt+WXEPjjiwYf6fQcSKHvhBA8M449uInKXy3XHtneQ26BYgQj0MyGWwYyeepUOi/D5if+Nu3/VgMvvtOtNt05UqfMIUI0mn47DOfCP78Z73VgkwGkkmYn5cc/fg+Nhq9zpHT1gCQzVJf3+R5UK9DIgHJZP8q1oB7BdUqlErdse2+j+120KE6adOfrkMuB0TEE1DG3GePCLkcXbnib2yIrS1cXxeNRtD7Gl7kyZoGWI7z8/SrX/lsJoTgvWt4QnkNir34EqOhPSJkMrS4SJYVeMae+vvIypsAAA+ySURBVFf469xCDQC6ToUC5fP96xsAoOswNxfUappN8Lygt5Gd18aGePZM7O+jrlM2G0z14eWClJTPk2EQFxC5chyl3Q6cYzbb3/fxJoV4nNJpGN96AYDvY7SDknNgpknR2GtMdB3yeWo28dUrLJWE6457KF0uR2trdHhIW1vQbvcJPU/c78TeMOzm4L08iHRCecl+wy955UhEQhyJsebm6OJFija4he3CrMVo9YpXi/k85XIDpxjoOqTT1JnME+y+5FEtjgPffqt9/bUmJaysSMMAACLiVkckolxOCsFVF2g2ex99x4HDQ4zHKZeDvvLidr98HlKpyeRFR9uAOfZKpXpXjuOg61QoyHJZPH2ql0oIY8sim6VYTL58Kfhe9S2JDneyY4KdGXqj31nfmiURcGewEBA+O6H1CleO/Lvz80c6STgO4BSD42B0GIZl0ccf+60WFotHAls2eLxNmXvcEME0A1NUqWAsBrkctVp4cAC2DUQwN0fLy5RIHLFP2JlmMKhf2XGgWoVYjGOvvs4Rm00komTyVC17bL2IiPe2TISuQz4P+TzoOi0uwq1b/o0bY3Xp8Xr8zh0/FqOnT0WzGZTDw893dVXevi1v3DjtVMWxYq9o/N6j6EjHBEbPFAq3bvNDwO9nYYEuXuwus3lhAhB0esVi3WEYiQR8+GGf98aX224HO8NYIqYJhQI5DpTLYFmQzUKzCZVKsDtvYYEuXKB4nGq1btsjT+cP387xUIOt18ICDXKOnRUfJRKn2ihxNO81sXPMZqlQoGQScjn5z//sj7MgAAge+1u35KVL0rb1H38UvKgPzfDKCv3mN944+bbhTCavvt8Km6F78l4cBvEDcf26jMdpZeVI/yTP9OEGNNfFcT6nbJauXpWNBjx5IjQNVlZkIgGmCfPzVKlAqSTSabm6Ss0mlsvYaoFh0OKivHgxCPkRYWGB1tbk5csjnkteGAIMtF59g84TwBuriPAE1gs6W4bu3fNjsZNMM0SEdBpyueCOjanOiV4/SEz0/R7TN/sQfoubUoQAgGDleFxeKytyZaX3d9l6OQ7U6+B5kEj0GdfRA8trext3dnB5mVZXybIoFqP5edlsip0dLBSQCGwbymVuToSlJVpYINMk08RcjtJpunvXLxZH9OJ6HjSbwVy4QT/Z0wY4KWHfZWcG7sTHLIbLwFzuhO1JQkAmQ7kcNJtQLmM6PYVG857XZ5PcK68wLUaRc6n6ymvwyhGFoCHbezSNtyOjbaPvB/16w8nn6do1Waloto35vLx4UVoW6DoUCrC/D5UK8s6nZhMPDnB5mebm5OJiYDKLRfqXf/EMAwqF0edk9W2TnCKd5Fm3X6/v7Z01XO+q1XgLICwuUrRD8PQMC+3DuGRI7AXQ10cEw+WOj9aIwrlE2w5Pqxu9MucZk4uLVKvR4iIVi8RNi+k0GQbvBAwSDQcHeOmSvH5d5vOBVUinqW9/+iD6GuzoI3RiOCowjGCrGS9a37y2+I9ms9RowPo6Og4PfkaOTadyPRx7ed4A69Vpa+5qqAfqd5Z2T95r0IV25iliq4Xx+FgxMs+l/uAD/+pV3nzcrTvx9gd2N80mHh6ipnEnxTTNfTRRd2IMg5aWKJulvT3c25tgVuDUYedo29BqYaOB1So5DiQSNJUDraBjvXy/n/Viv9apZ3XdZRQewAR9ao4oJY1jvXhmE4+FGSmvMC/c06AS/nXOdnLpiTdIjh/QcLasXseDA3z9us/5qUJQuJtjzI77vpgmLC3JTAb29nBnR5zJ8bAM10g4a1OvBztMEwmITno6DWy9ggk5Pd/oHCqBUhJvZjx+cNDwjonhO1S5CULTiOfcnSCveBzuJOFsO2t3/NvkusFwhL//XdvdRd/v/V324DzSg9suTkYsBhcukGnC06dib2+sYs7sCHMHnge1WlCRs6yxtiGO+eJ9Vo545KRxHB7a47GdQtHNj0P+djxOuh5M8bcsOL0j4yPgAKBQoHh83HvEzUI80eXHH8XWFsZicP267LGRPMYDAJtNsO2TD7TWNEgmgy033C5xhoQfKxswISiZDDZrTePFOZl3rOYYyqtzAHP/mkPfhhyAI7HXIDQN4nEwDPB9FOK0+UmGN7RBIK9xf4sIXBfKZXz4UHv1SngeXLwoP/3UX1k5YqBYFr5P4RriZCAGsz8BaPwN3LOG5ZVIQDpNicR0rBfigLQqBn2G3RkQiHB8t1b45B13jjzCZEhoL0RQCWE31HNa3cneTLOJu7s4P0/F4gTxKQ8B5A7StTU5N0erq3J1tXf+h6ZBKkWtFto2N2GPW0Lue6nR1M/bgO9DvQ7ZLDvHacZefZ1jkF4PD3eBAYtnOjbgKrpyHHKVHetFnIBNJE61yuML4IO7CgU5kfVyXdjeRsfhAqV8773+/cTsHGs1rFa54Hjaz4Dvz1siL8/Dep0ch8fETS32CoY1D/qG75PvUxhgHbdeoW2LfpF70oenVXlxxw6RpXYa61Uo0Mcf+ysr0rYBkfJ5OY68WJQ8jfHgAOfnaWlpoMo1jbi7q1aDVgss61RnOGSzdPeuvHlTTmuZdko4oeN5YFk0rUvihhwY4ByDv4oYZu37/M2+IQinyobHXlyNTiTAsvgtnWrlmM/T3bsSAHZ2tHgcMplxUxJCEBGUy5hMYqHgF4sDL4NjL9MkHqHGo2xPTDpNt2/7iFCt4pmfBcEfMcuL815TdI4Ax/q9EJFX9b6PoQHvu1P+OH23chyHX2plRf72t16YWz8xsRjlcvD++7JYpKUlGjMlIQRlMjA3R9UqR9zBTLYBP8yPAbpu0GV/mo/BMCCbhZs3Jfenn/Ltn5JoLDiVTq/wZXWdEMXAvFfYoDdRKaqnIWfIn5+fp/n5KWR+uEkylaJLlyb4La6KzM0Rb5se/jxwHtgwgglQ6TRN1LISDjBnOJJLJul4sf8Nw03Vi4sEALncNM+eFoI0DWG4cwyTW+OYhGghfIrPwYwQIjjtcn9/tHtC7P7XMCCdhomKJ+E5Bm/bbUkm6dNP/Zs3fQBIp+E0Y6R7GJKYoFBeEFk5Dr8vYfIi/PkZdRxMC5ZXsRgsM8d8eADAMCiTmSD9SAT7+/jypdB1KhbfrnPdTBMuXpzJcd8DV45Hs/bd7MM4r8jB8luy3h4O13Tn5iiRmOxJ4HljIxt7omxsiIcPRTYLH3447il57zrYaSfsI6+wpB1OB0WE4RORMTIH9Z2QF9d0CwW6dk2urcnxGz55P+pEhYFajVv2aHVVTqTLd5eBzdCR0B47of2wFHwIbyM7/fjTNwb7x88/94nGCjswOHKLUqnJVo78vPGQyLNdJ74xhnWrhs6RW6nGCaSwc5TSWxW6Doevue+o0r5ks/ThhzKdpmRyrKMM8eggk3AX53kgXA4Okxe3ngKI6G6zwS83bs7pHaVYpHv3vLCaNhwcvBnpPDBcXmHsxfU16sRew26qpnEm7Werr3D/3DhwTxsANBroefiWr6OnTpjK6SOvsKTt+9093SMTE9EjDhS8wZMIeAjPRKnpnwf8foeUtLuJiejACOi3/zESe51LZ3AMXSfLIt+Hcln4Pp8qetbX9MYRYkDeK+zcCuXV06h0XF6aNtmEsJ83fAyilFguo5TIx7ec9UW9afrnvTol7e7GmFA0bMbCg4OiYlLOMYquQzIJUsLBAQAEcwDPG/2tVzjegxV2tKhORMGRZtGG+ncxMTFTDAP4oKtqFQDgfMqrr/WiaNY+WtLm/5GST7yBeJzC0SP8LT4wWwGd2IsnvCFCKjV6s93PD0QaVnPkfY4QWWeyvHgsVk+XKacNz9sKfBDsHBGx0QjOC1axV/ClyD7H3tCeo36e4B3d4cPOUcVeIXxOoBB8XjAPAzvra3rj9Im9jiUmuhvRWENSBtsZoovtjnNU8grgMf2aBo7DDY/nMTExqGMC4EjeC6POkSjYqRzd4aPk1QPHXrwTXdfxvMZeo/q9pAQAijhH4jlHbL2it0zXVd6ri64H+zeJwDRJ5b26X4qE9uFOf4rGXq0WEGEiQRHnSJoGmqZWjgHsHHkyvmnyqdhnfU1vnHFir269rCMv4vkI0ck2Ku91HCFgbU3+7nfe1avybeuyfzOMbMg5krVHJE0jouBoiei5uir26oHvw9Wr8urVmTSzvxMMco4EwQm2GN2l3VFecDBOj8FXRSFFDyPTqkfG1IbfchwEOO4cSWXtFVFGx15SYjT24qUQHyV/NLQPflHJSxEyeuUYjb1CAfEhNonEkbFvKrRX9DAorcol7eCMp57YCzFov4yOHglD+yGDcRTnjb4NOdSpOfZpJ2T7xLvTooczqmZoxXH6WK/QA3a2chypOfJ2oPCXo2JSzlHRwwRZ+/BbofuLKqnTDN0tHykUI7pVw3bC8N+gyUrhyvF8pqcVfRmWtecjXsO8F3St18DXyuXo4499PglBoegvL14PhomJnl77IfIqFOhXv/JhjHlGivNAH3nxHCWIOEeIWK+RLalKWIqQ4SVt7MReFI29NA2GD2NSKJj+NUcOzzmnSnQkraoSp4rxGbZyDM/cg6OhvcqdKsakj3OEzmAqrmcTUT/nqFCMpk9aNaQz+ozPBA1+WmW2FOPTxzlGiZ6lHU2rKhTjMMx6wbFDG5VzVEzEaHlF59p3Vo7KOSrGYoS8wm20HetF0Y4JhWI4Y8VeELFew0/SUyiiTBx7KeeoGJ+xYq/w2AQV2ismYrRz7IT2BEBhYkIZMMU4TLByZHi2Ox8JplAMp39RKCQae2FnJvTqqvztbyGfVztmFSMYIa+wGTr0hogwN0dzc1M4RVbxs6dPQ04Iu8Xxz3NUKHoQYoT1wrAhRylMMSnj5r2UthQnYNyVo7JeihMwVt4LEdRBVIoTMHHeS6EYnwlqjkphikkZ4RwZFdorTsYI6xX+kFKY4gSMkJeug2mqnWeKkzNQXoig6xSLqf5BxckZZr0MA+Jx1eClODkj5BWLqeZ6xclR1ksxQ4bFXkpeilMy3HpRLKbkpTg5I52jir0UJ2dkaB+cYKVQnIAReS9lvRSnYRzr9cYuRvFzQ8VeihkyIjGhrJfiNIxITMTjpEJ7xYkZHXupcYSKE9NfO9yhqutgmir2Upyc/vscczm6ckXm8xSelq1QnID+8rpxQy4skBokoTglA61XLqciesVpUXG7YoYoeSlmiJKXYoYoeSlmiJKXYoYoeSlmiJKXYoYoeSlmiJKXYoYoeSlmiJKXYoYoeSlmiJKXYoYoeSlmiJKXYoYoeSlmiJKXYoYoeSlmiJKXYoYoeSlmiJKXYoYoeSlmiJKXYoYoeSlmiJKXYoYoeSlmiJKXYoYoeSlmiJKXYoYoeSlmiJKXYoYoeSlmiJKXYob8f9ulTmtUEbr4AAAAAElFTkSuQmCC;movable=1;resizable=1;rotatable=1;deletable=1;editable=1;locked=0;connectable=1;" parent="1" vertex="1">
                    <mxGeometry x="720" y="280" width="120" height="80" as="geometry"/>
                </mxCell>
                <mxCell id="IDKSLfoBvOOnQwNbsrg4-77" value="" style="shape=image;verticalLabelPosition=bottom;labelBackgroundColor=default;verticalAlign=top;imageAspect=0;image=data:image/png,iVBORw0KGgoAAAANSUhEUgAAAMoAAAEUCAIAAADlRD4UAAAACXBIWXMAAA7EAAAOxAGVKw4bAAAgAElEQVR4nO2dWXMbV5LvM08tAAo7SHARqY3abcseb9HuHvW4J6I7or/o/QL3YSbmqa3umelx+063WnZrsU1JlGhSXAAQBFAAajl5H7JQKIJYSUCUzPMLhcPBBSwU/pWZJzNPHvzqq69AoZgN4qwvQPFzRslLMUOUvBQzRMlLMUOUvBQzRMlLMUOUvBQzRMlLMUOUvBQzRMlLMUOUvBQzRMlLMUOUvBQzRMlLMUOUvBQzRMlLMUOUvBQzRMlLMUOUvBQzRMlLMUOUvBQzRMlLMUOUvBQzRMlLMUOUvBQzRMlLMUOUvBQzRMlLMUOUvBQzRMlLMUOUvBQzRMlLMUOUvBQzRMlLMUP0s76AnxVEUCrhixcik6G1Namf+7urrNfUIAIieP0av/pKf/hQcxw86ys6e8798zU9pATHgXYbXRekPOureTtQ1mtqEIHjoOOAlEB01lfzdqDkNTV8H9ptaLdRma4QJa+pISW0Wug4ynR1UfKaGlJiuw3ttgq8uih5TQ0pod0Gx0FlvUKUvKaGlNBuo7JeUZS8poaU0GqBir2iKHlNjY71QiKVUA1Q8poaHHsp5xhFyWtq+D60Wmy9zvpS3hqUvKZGZ+WorFcXJa+pISW2WtBuq9C+i5LX1JCSa46qKNRFyWtqEIHrgusq69VFyWuaKGH1oOQ1NbidUCksipKXYoYoeSlmiJKXYoYoeSlmiJKXYoYoeSlmiJKXYoYoeSlmiJKXYoYoeSlmyFhDADwPWi1EhHicNG3Wl6T4+TBaXlLCwQE+eKAJAZ984udyqqimGJcRzpEIfB8OD/GHH8T6umg238xVKX4mjJZXu43NJnqe6gVQTMxoebVaYNvA8lIKU0zECHlJCc0mNBrg+2/mehQ/K0Zbr2YTbRs9T20NVUzMaOvVaoFto7JeihMwTuyFtq2co+IkjLRe2GxCo4Ge92auR/GzQlkvxQwZkbXngY6d0L5PWoIIPA+kBF0HVS9S9DBOWhVarYE7j10XHj7UvvpK39lRS0tFL6Pl5boDhwrxtvf1dfHggVapKHkpehndkMNT2vvm6z0P2m2V0FcMZKyGnEHS8Txst897OZKjz4MD3NlBddBLD6c69IWtl++f63tKBLUafvON9vixVqmgEGq+V5fTyqvVOtc5C45NGw3c20PbhgsXpOvC69eqBzjgVDeiY72mdTHvHp2aLBgGrKzQr3/tf/aZn0ye41jhKKe3Xue9HMlVDdOERIKKRSkEGsZZX9Nbwynlhcp6NZvYaIBhkGWBpgFi8O88L3dCTuscHedcWy+irvVKpYCPn0UMvqUUdip58RFz53mh1LFeLK8j26iUvOCU8nJdaLfxPCcmiMC2odEAw4BUinQdEEEIAgDfP9cPHnNK54itFpznXp2I9aJkkjSNEIMITEpQp7+oxMSp4JJ/swmGAclkEHsJEcrrrK/vrDmtvM55WhUgmGVvGBCPEwtLCADlHAFgGitHcc7lxSE8q4pTEsp6hZw29lI1R+iU/DkfwbEXAEiprJdyjtMmtF6+r6zX2PJis9+D56kDwPrQcY7q5L3x5BUWOiDS+8XTTc551v44YWivnCOMX3MUAhCJV0N8+wZlpctlfPlStFoAABcu0KVL5+seh85RZe1hTHlxJprjCd8HIYAoWBkdd5o7O/iHP2ilkgCAL7/0zpu8ADhrT2rlCOPLS9dBCPB99H0yjEBeAHC8OdP3od1Gtl6uO/ULftuJhvbKOY4rL01jeYHvIxERgZTYsWq9MX8ovnNItOaorNe4oT3vkmXnCEFcTwAgxHF1nRfCpygaIUTSqmrlOIm82A/yQxl1judWXlIGKWVNA8RAStGStpTn9dZ0GDfvxc7R87rWi+8dh/znE9eFZhOECKqNTDQxoazX+LEXrxzR90lZL8Z1sdnkeexH5mu8PTVHbug4PETDgEzmDIbGj+kcKRJ7IXRyqnC+5eU40GyipkEiQXrnOQ1rjme+cmQrsLsr/vhH/cEDrd0+g89popUjcWhPBERB3Mrp1tle49uK66JtgxBkWRgahrfHOfIezIMDfPFCOI48k65PMc4tiOS9ugXsMPaa5eW91TgO2DYIwdarG9qHzvFsrRcPz+J24rM6Rl6XcvRcrkje60jsFd7KcZASmk3c3kYAWFmhROKd1yU7R5ZXj/Viz3i21ounejebyJ+X64Lvg36qnYcTM1YzICLoOvFdYxs7aWjPsVq5DP/zP9rXX2vV6umu+u3AccC2OfY68rG9JaG974NtQ6sVFEAd5wwmmOpjyysI7dknTiovKaFex1JJVCpomrw+eOetF8deySRY1hHrpWlBBudsnaPvo20jywsAWi1wXYzHp3DbeaLgzg6WSnj1qlxaGviaYpxe06NFod606jhICdUqlkrYbv98ctmd2Iui1uutir2aTWy1kJNK7fbUSsCtFpbL+OCB9h//oW9sDFPA+M7xSGgfTUyMozDfh4MD3N/HdnusN/BOEMZelkWaFob29JYUhTj2areDzy4c9Hd6dnbwm2+0V6+E66Lj4JCWUn0cf3w8tOfqEAT1kNGvICWyvByn2wv1rifMXBcHxF4EgG9H7IVReZ3MekkZBNzhaJbdXXzwQPM8iMWIx9gkEtTXykwQe/VYr2jsNVIoUkK1CuUySgmaRq5LrguG8a4qjB8Px4FWKygK9awcEadmKk6M70OziY6DsRjoOrXb6LqTXVA4ePHxYw2R7t6V6TR5HkqJug65HOXz1GrBxoZYXZX5fJ8Xn2DlGHZM9MRe/C9sMOyLlNBoYK0W/Irrouuefc3kxHBs4HngeaBpEIt1I4S3YacQL6QqFaxW0XEgHifDAMcB153saeY96Ds74ttvxePHWqOBUgJ/cIYB8/N06ZJst/HlS9Fo9H/liUP70JmGaVXDAF0n3wfHGaYY9oamCboOngeu+w7H+K4Lto0AgVvsacjhf2cYezWb+Ne/avfv65ub6HnYkdfEiQnPg50dfPUKWVjcx8CfsmlSsUhXrkjXhc1NbDT6v8K4sZeugxDkeej7QUUotF6GQYbB2zpGZO0Q0TCkroProufRuysvzwtuqGXRcRcfKQqNeHRrNTw46KqQPY5lnfa+uC68fIkvXohcjubnZSZDQkC9jpPGXqG8bBsyGYDOqHkiME3IZmlhgaSEcnngzOJxY69otyp0Yi/+OhskKdF1UcpubYSJhvCIZJqg6+S64DiTvdW3CrZeiGBZEJaDmIl2Cm1siP/+by38CNJp+uUv/WvXpvDYEUEmQ1984S8uStuGSgUdBydyjkTguri7K376STSbQZ4y9FGmSbEYcVQwJCg6SWIiGntpGhgGmSY7x+6DyL8CRxsHhADTBE0D14V3OvYKnWMyST2jLicaAlCtwvPnghtmKhV89UrU61NzqaZJy8tyZYUyme7KcfwX5/k0rdaRM1mkDHa2sk3hjNoQxpVXNK0KkbwXWy/D6N1Sy04T4MhGSEQwDNB1lte7HXs1GoAIlkU98cBE8uKn9OZN+fvfe5cvy7DwPMU7IwTEYqBpEycmeF2saUeaJVleAGSavW+8L/qYHROaRsdL2hDICHQ9MJth+y/LDgDa7SOrqk5oj647IvY6OMDNTWGatLBAiQTFYqOv843hechrJcuiHucIAJo2Wd4rmaSFBZlOi/A2mmaflM3mpuCGgEQCVldlLjfWq2sauzA+4GJc58iesdUKsnphJNNZOaJpQphJHsKkG9ECoxVNqwrB8sJ2m0Lrxct1rkWwzqBj0rgkN9J67e7i/ftaLkeffuovLkIs9hbZOnaOpkmWBQOcI/n+wHO++mIYEIsRb+Pjh7mHx4/Ff/2XBgDFIv3udzSmvELr5TiTWq9QXhQuDH0/+OA4yBnJBPIKt9GyLMJ2Qk0DXScpIQzt2dqxvWm3wbIwfB22Xp04YFhh2/Og0cBGA3Ud3n9f5vNnMGug3Yb1dWHbuLYmC4Xupbou1OswNwfJ5KmcY/S3TBPicfI8aDYhFutVLV9Mvc4B3wQTIYUA0yQhJk5MOA40m6BplEh0myWjK8epyQsgeK2jWzmCrxsGRZwjQEeOpkkAPHw1SGqz9dJ1qNdHJyY6vby4t6el0/TBB2Ne6TRptfBvf9N2dzGToXy+G8Zy7DU31996aRoAoJSTWa9YjOJx5BpLuACPEt7ziV42XE45zmRjSnnqYqfVG7mUF105TtF6kaaFIRcnJrDTTkh89a1W8HwQISLpOobO0fMgHNvHPtt1cUgOlu9jqNSzKt5xAMD/Zc/CEQJ0qo2ImEzKqVqvoEnLdfH1a3jyRMvl6NYtPx4/krblC3DdIDKJQgS2jZyGQOz+PEw+qTrcSZBMEvdL8oKMmxLGlJeATnGq2UQ+urHRwJ6kFN8yIYCfyKjOoomJdhs8L5CdrhNHS+GRaR2TxokJGhIH8PLE85Bv31nNAvF9cN1AJY5zpCbheUFiYlDeCyef7xWLQSIBnofNJrgu7O3hX/6iPXokonkBvoe6Hnz2PWaMb1S1Cnt7KGV3/1LPaKNx4PZDjr0sC+Jx0HXiVEXHevW+8ejv8jlLjgM6AJTL+Pe/a4hw+bI8OMCNDXHrlvzggyOxTtjmEAZex1eOYcuHpiFbNeiMHtV1QgTDoHicOivHgW/YdaFSwWYTslnZaomDgzOoe7MZqFbR9xERPQ+jvXgcISEe2SMUcoIBTIhgmsSxV6OBjQa0WsgVZdvGeBy4d1wImJ+XxSJVq7i1JS5elNHPmJcF6+vaDz+IQoEWF2U2e/LnkmOvbJb4r2saOE5ggDgt0Nd6cQi+sYGPHmlXr0odAGo1fPRI+D56HuzuikePRCrVG+v0tEX05L00LVgodeQFug6xWNDF1m6DYSAixGIQi4V5r668WKyNBroupFLkulguC9vGXI6aTTo8PJu2CtuGahW5aM3PQygX/iABgtVxFDwyeHyCPxeLQTxOh4fI8uLXlxJtG1IpSCQAADQNikVaWKDDQ/zpJygWIZnsvkKrhdUqvn6Ne3u4tiavX5enOTyL5aXrYFnBX3ddaLWg3cZEgo7LiyXBz+SPP4r//V/NMEhAx6iWy/jtt9rGxli9DNTdpQ2mCaaJvs9lBx4ARoYBvHLkC3IcXiFTLEYce0X/Cj+yDx5of/iDvr0tXBf299G2sVCAXK5/I9EbwLbx4AClJF0nz6Oocwz71Y43I4VfmagZOoy9PA/rdazVuA2QAKheh7AHU9NgYYGWl6lWw+1t7Nm6WKngs2eo63Dlilxakrlcb0VhIhwHo7EXl/IizrE39vI8qFbx2TPxpz9p332ntdtABLrjICJJCbbd3VUyErY3nJXgVBbHv2y9OBMWi4HjBNYrFkNOwMRiYStLN+9l27i/j8+f49aWuHVLxuNULqPjwMoK1evj9ltPFyJoNJD9smkSn54UXdBRZFxvlBPvcwxXjo0G1GrgOMGa1Lax2SSO5ISgTIZyOeLumnAlyB9HqYQbGyKfpwsXYG6O4vGTvnkACLL2HHuRZUGjEXyl3UaiI9aLY9NqFTc3xY8/iu+/F7VaICS9VoNWq5vPxfGO8iIC3yeWl2kGO2w5m8XWixMT3CzbboPrEssrHg9OWogukstlfPZMVKvdLVOVCggBuRwdHp7ZVspGA/j8+XicpETHoeGJupATOMdo3qteR85vmSYIAY0GNpvYboOUyJGuYVDPx8QF31IJX74Ui4v+5csylTrBO+7CnwKHWYkExOPcjci+6Ij14iup13FrS/z972JzU7Ra3WdOL5UEZziyWbpwgQ4PYWtrtLmIhPbE1otjOrZJfBdiMWg0ggti58g5VU6PhStQ9ssvXuDhYbCWlhJbLYzFKB6neBzDWZvQz1pMxP4+bm+LhQU5N0fDdwlwaH94iNksJRJBMWQcZ4fBzDOatJ3QNCkeRw5f6nWMxYKA2rahVArOiORMG3+uUT9j21gqIedj02nK5YgLvqeBTUDotRsNjr2CzTgccAsB8/O0vEyVCu7v4+am8DxYW5ONBmxvCwAQu7v46JGo13Fpif71X727d3sTOX0h4vwWdJ6nMJsAHXl1ExOtFssrCLwg4jgo2P+IL1+KWu2IdjhGDnv5p5L9evZM/Nu/6U+fao4zOufZbEKtBppGlkVcgxuvPkuRvNe4TwN/irFYEKVwbxYXNBsN3NnB9XWBCJcuUSrV5yKqVXj+HKWEy5dloUCcpp8KnZ4rjr2CjzK0XkLA2pq8c8cvlfC770S1igsL9OWX3kcfSU6qC9/nHDrEYpTLUTI51kAllgUvEjvN0Oj76PvIXwxD+3Y7yE2wEMO3zR+V40CthtGMZeS7yB0WlgUAUK9PYR9Vs4n7+7i9jVtbOKh/N3x33FRumkG8OLwXNyQSe42QY4895kiDdWzb4HmQToNpYr2OOzvi+XOh63Tlikyn+7xorYYvXggAXFuTvBjqGxTCqKeUndLmpvj6a217W3SukLv0IAztAcAwgo8+n6eFBSKCWg09DwwDcjlKpQIVCR6UOil0tNc+/Ar3soa5VkToxF5B8avnbbdayPFNLkes9x50PXhea7XeZO8JCENg7rIa9GPhlDy+s5w0dt1xizw882zkBxkWbcP0OueQOdfl+5jJgGlCrYY7O/jihdB1uHpVZjJ9XvTwEDc2BCKsrclsts+fC9ezI6/K9+GHH8S//7vx/LnovB2IxagjLw7TuWMCECGZDHxx35c9oQ2lyIyJni9KSUKAYSCvXDgxwfKKWi+m1YJyGREhn6dEIogTo5+iaQL38larvevwE1Mu48aGODwceK/bbahWEZEymaDdmbvZJrRew2IvjiX6rvB59IiUkM1SIkHtNuRy9NFHPg/m6Jtt4i5iTaPoMJUoug7sl+r1YU8pLwA5zOppAtV19kLhg3fkqeh7HxBBJ5IsMinJ81zf1wF03/dd1wXgR1YQCc/zpAQiXUrpuq7naZ6Hvi+llL4viUBKjUg4js/rGiGkEK6U0G5rrRa1WhSLSSGklL7nCSKNSLqu22iI/X3h+342S/v7eruNnue5LkipSUme5wkBySQ3dEM67bvuqfomfB8B9EoFHYfu3JGO4/WdrliriVJJA5DpNMViPiI5jtZqkeO4vJeLO8LDu3T0TwTC8n3d8+TxH2AcB5pN4bpoGBLAi9xtTUo+SkdalmMY2Grpq6vyn/7Jn5sLVgyuyzcQPc9rt33PQ8dBIono8z0/LmtEaVkgpaxUfCI5qFWrXhelkrBtEQ7V8n3f81xEgag5DjqOkBKkPPLGPQ+lDFRPJD3P830NUZdS4r17/8e21wAomfy+UPhjs3m1XP4yk/nffP4/AcDz0uXybzwvXyjcJxLl8pemuVco3HecRdu+o2llXd+LxfYARLn8pesW0unHiE67PWcYry3rsW1/Uq//KhbbM4w9orKmlRKJHc+bK5d/Y5qlfP4+wLLj/FO7vdVqbbfb1xBzCwtPDcPf3/8EsV4o3Pc8ODy8YJoZy0rq+vea9mKEgoZSrX5eLn8pZUuIw2Lxu2z2mZQ2Ue/jTHSR6FKlgo2Gb1n7pgmed0PTnGTyr7peQRTV6sel0q/z+T/ncv9z7HeRSGs03qtW/zmV+jaX+88B15IgytRqlyuVa9nsd7nctwDgedly+ctG4xYiJBLPstn7lUp5YwNzOVhelvF40PTmunPl8pdSxgqFrxKJhq4vlEoL29vFfP77YvFx3z/WaFwol28lk14+X0PcBtgZcFVLRFcqlUK5nBcio+tQKNy3rKeuG3Ocy677C8eZb7cxlfproXAfMcgteV62VPrStm8AoGU9KxTut9tL5fK9dPqJXiqVLWtN16lS2f3xx7/EYl4ud29jY+Phw/sAoOvFXO49Xddfvfo7opbLfVap7Dx9+mfTvGZZc5636bovHOc5opbLfaDrib29DSLbNB3H+aHR+M9UKp/N/rJerznOtu//5HkvHWdd1y/lcp953t73339tGDct66rnbfj+00Qiruvy0aMfpPQymVu+X1pf/waREonbiIsAc83mt+32X8eR0SDS6UI+/yWi43mHT5+u2/b/Izogsnt+zDTvmibqOgnh7O29lBITiazv2/X6Xzxvm0hkMplC4VcvXjyrVu/3/C6iQNQtS89mP9/f34j+gO8D54TicTKMjBALiYSXSs09e/a0VuO7vZjLvWdZt4igXC6tr3/jui8BYGcHdiJ6MIxLudxdIRIbG39z3YqmXUskbMuiV68eP3rUez1MPH47lbIqFXd9veS6T1x3ve+PGcYN04R43I3HESDmOPjkyRPb/pOmJeNxO53+wDDmAeCnn376xz/+FD6WhrFUKNyxrOtSYqlUXl//Jha7kc1+/urVK/z97/9vvV5cWJDz868LhadbW8UnT+5cvfr8xo2nANBqJZ48udNoJG/ffkyEjx/fyWRqt28/PjjIbm5eyGYb2WwtnT70fXzy5E6tllpe/skwvFYrlcsdLC1tPX9+5enTm5ZVS6UOi8V6Pl9LJA4PD9OPH99Jpeq3bz9+/Tr/6NGVGzdK16+Xd3YWDw6Suv7acWh390oq1bxz50ksRu12bnvb+umnxLVr26uru+OLKQqHdBsba99/fyeddtJpO5ncSqX2stl2PN7rv169mt/YKC4vy2LRN4xaswnPnl0Qwrt583ksZrdauLd35fXrm5cu/bC6+mPP7yIigHj1auXJk1uXLr28efMpf933oVLBhw81APj4YxmP69WqVa/P2fbC4uLm4uIrAGg2rSdP7mxvLyPCwsLurVuPU6na8fdSr6efPLnjefrt24+lbG9s5GKx1Px8KpV6bVlbfd9+s5mvVpfqdarX28vLlcXFg74/9vp17vnzhVTKyuUS29vJeh1u336ysrIFoJdK80+e3Dg8TAPA5csvbt16LEQQqDiOtb19a29vqVoV2ezenTuPDw+z6+u3isUtvVic931YXYWbNxeuXZv/29/EDz/oV69e/e1vLwLAwQFWKvreHn7yySdSwuamsbyc/PWv51++RMfRVlfp4kVaXJSeB6WS4ft4+fJaMgkHB3jx4vJHH90UQv/+e2FZmWIxffOmf+WKnJujzU2xuakvLCTv3Zv77jvx44/G2lrm3r2Ljx9rm5uYSOTrdajVtGIx9cUXuXSaajV8+FBUq9p77y19/rnPGWrbBgDIZoeV1VwXeHnI62TXBcPQX77EXM5YWMgsLKQWF2+srvZ2FRPB119r1ap2/bq8eVNaFh0cQL2u6zp88cVSJgMHB/jkibBtcefOtV/84srxv0sE33yjPXumX7kS3EYOpzY3RaWiI8Ivf+lZFm1u4u6u2N0Vd+9m7t69BQDlMlYq+v4+pFJ07drcvXtfzM/3CZJ2dnB/32i14PPPP/c8cBwtlYJr1+TS0lyx+F7fW1Eq4atXuLsr9vbwo4/8Dz7ov+j49lutWtWKRbp4UTqO5rr4/vvvf/rpbSJ4+VK4rra7KwHg7t3Ve/eWwvxovY4PHgiemDI/P//FF19sb4udHf3KlSs6b9ZbXZWLi3L8VC8RSokAFA2NicD3kVeO0dUEL7t4AXK8/S1sBbMssixstaBeD5rGONmYThMicmKC6w+7u/j4saZp9Itf+MXiwGs+OMC//EUDgE8+kfE42TZICbkcZbOUTJLvY6MBnterLSmh2cRqFbkqZRjUaAT5PM7d1+sgJaRSMtxD0ENP8xJE5k+1WsALaimD6gp3KEV/N52mO3fkzZuS+xSG025DqYTxuJyfH9YfwZOh9/epWhVDFuDtNhwc4IUL8uJF+eKF2Nnp9iTOz9O9ez4X13O5IwtYXad8nubnabfjWrgbHoD0lRU5N4fLy5TNTjCYmo6OMAm/GOZao/VO7mbpm5iAzj5bHmOUTFK1Kup11HXgoSuRLSGctoXXr5HrppZFt29LNmA9qz/uuXj+XDx9qpkmXbhAqRQ0myAlFAoym6VkMpgt2NMfzKbRdUFKNAzqXAOGDUjcBi0lpVLYN1EXfV8hLK/9fdFuB01j3NLDTX9hKsEwYHmZYjF586ZcWZFDdq8gEgByLbnRACJIpYZtpjJNSqdRCDg8hK0tzGYFJz85OwoA9Tru7+PWFto26joUCnTxopQSwjRbMkmD5KtpkMvR/DyFeU0uOgOA/tlnvpSQThNv1hgT6jd4nOvcbL2iL8Vtn+GeggH3CxIJsCxqtcC2IZUK5N7TW+y6uL4uHj7UGg00TapWsVbDbLa3p4+HLPzjH1q1ipkMvHolODcrJRQKlMmQZUGzydbryC86Dh4eIn9a0Wn1YQmLe4eIMJ2eYG8cz5/a2+uON/N9aLV6rZdl0Sef+J4HlgWx2MinnQd1o5SIiD1ljx4MA9LpYBTAw4fay5fiww/ljRt+Nhs0Ku7s4J/+pG9uIm8cjMXggw/k9euS9/4Ph+VVKBAbgiDjpQMi6HNzJ6nkhZa/p8eQC21CHGlz8DwYYr0Y7vxMJpH3qC0syHw+uO/RPyEl1GpYr+P8POVy9NNPqGnCsmRPLpHrmLUaLC/LZBL29vDgAGMxSqdpbg6SSTAM2tnBVgt7xnA6DhweAhFkMhTdbEidUQaui7yROpWiQc7xOL7P1oszw13rJQRbr+DHNA2i+5EG0ckFom2zKQ2+OMQ6cGRiWZDLweEhbG6KRAIA6NatwAU3m7Czg5UK8jtlxYz57rhRdG6Obt+WXEPjjiwYf6fQcSKHvhBA8M449uInKXy3XHtneQ26BYgQj0MyGWwYyeepUOi/D5if+Nu3/VgMvvtOtNt05UqfMIUI0mn47DOfCP78Z73VgkwGkkmYn5cc/fg+Nhq9zpHT1gCQzVJf3+R5UK9DIgHJZP8q1oB7BdUqlErdse2+j+120KE6adOfrkMuB0TEE1DG3GePCLkcXbnib2yIrS1cXxeNRtD7Gl7kyZoGWI7z8/SrX/lsJoTgvWt4QnkNir34EqOhPSJkMrS4SJYVeMae+vvIypsAAA+ySURBVFf469xCDQC6ToUC5fP96xsAoOswNxfUappN8Lygt5Gd18aGePZM7O+jrlM2G0z14eWClJTPk2EQFxC5chyl3Q6cYzbb3/fxJoV4nNJpGN96AYDvY7SDknNgpknR2GtMdB3yeWo28dUrLJWE6457KF0uR2trdHhIW1vQbvcJPU/c78TeMOzm4L08iHRCecl+wy955UhEQhyJsebm6OJFija4he3CrMVo9YpXi/k85XIDpxjoOqTT1JnME+y+5FEtjgPffqt9/bUmJaysSMMAACLiVkckolxOCsFVF2g2ex99x4HDQ4zHKZeDvvLidr98HlKpyeRFR9uAOfZKpXpXjuOg61QoyHJZPH2ql0oIY8sim6VYTL58Kfhe9S2JDneyY4KdGXqj31nfmiURcGewEBA+O6H1CleO/Lvz80c6STgO4BSD42B0GIZl0ccf+60WFotHAls2eLxNmXvcEME0A1NUqWAsBrkctVp4cAC2DUQwN0fLy5RIHLFP2JlmMKhf2XGgWoVYjGOvvs4Rm00komTyVC17bL2IiPe2TISuQz4P+TzoOi0uwq1b/o0bY3Xp8Xr8zh0/FqOnT0WzGZTDw893dVXevi1v3DjtVMWxYq9o/N6j6EjHBEbPFAq3bvNDwO9nYYEuXuwus3lhAhB0esVi3WEYiQR8+GGf98aX224HO8NYIqYJhQI5DpTLYFmQzUKzCZVKsDtvYYEuXKB4nGq1btsjT+cP387xUIOt18ICDXKOnRUfJRKn2ihxNO81sXPMZqlQoGQScjn5z//sj7MgAAge+1u35KVL0rb1H38UvKgPzfDKCv3mN944+bbhTCavvt8Km6F78l4cBvEDcf26jMdpZeVI/yTP9OEGNNfFcT6nbJauXpWNBjx5IjQNVlZkIgGmCfPzVKlAqSTSabm6Ss0mlsvYaoFh0OKivHgxCPkRYWGB1tbk5csjnkteGAIMtF59g84TwBuriPAE1gs6W4bu3fNjsZNMM0SEdBpyueCOjanOiV4/SEz0/R7TN/sQfoubUoQAgGDleFxeKytyZaX3d9l6OQ7U6+B5kEj0GdfRA8trext3dnB5mVZXybIoFqP5edlsip0dLBSQCGwbymVuToSlJVpYINMk08RcjtJpunvXLxZH9OJ6HjSbwVy4QT/Z0wY4KWHfZWcG7sTHLIbLwFzuhO1JQkAmQ7kcNJtQLmM6PYVG857XZ5PcK68wLUaRc6n6ymvwyhGFoCHbezSNtyOjbaPvB/16w8nn6do1Waloto35vLx4UVoW6DoUCrC/D5UK8s6nZhMPDnB5mebm5OJiYDKLRfqXf/EMAwqF0edk9W2TnCKd5Fm3X6/v7Z01XO+q1XgLICwuUrRD8PQMC+3DuGRI7AXQ10cEw+WOj9aIwrlE2w5Pqxu9MucZk4uLVKvR4iIVi8RNi+k0GQbvBAwSDQcHeOmSvH5d5vOBVUinqW9/+iD6GuzoI3RiOCowjGCrGS9a37y2+I9ms9RowPo6Og4PfkaOTadyPRx7ed4A69Vpa+5qqAfqd5Z2T95r0IV25iliq4Xx+FgxMs+l/uAD/+pV3nzcrTvx9gd2N80mHh6ipnEnxTTNfTRRd2IMg5aWKJulvT3c25tgVuDUYedo29BqYaOB1So5DiQSNJUDraBjvXy/n/Viv9apZ3XdZRQewAR9ao4oJY1jvXhmE4+FGSmvMC/c06AS/nXOdnLpiTdIjh/QcLasXseDA3z9us/5qUJQuJtjzI77vpgmLC3JTAb29nBnR5zJ8bAM10g4a1OvBztMEwmITno6DWy9ggk5Pd/oHCqBUhJvZjx+cNDwjonhO1S5CULTiOfcnSCveBzuJOFsO2t3/NvkusFwhL//XdvdRd/v/V324DzSg9suTkYsBhcukGnC06dib2+sYs7sCHMHnge1WlCRs6yxtiGO+eJ9Vo545KRxHB7a47GdQtHNj0P+djxOuh5M8bcsOL0j4yPgAKBQoHh83HvEzUI80eXHH8XWFsZicP267LGRPMYDAJtNsO2TD7TWNEgmgy033C5xhoQfKxswISiZDDZrTePFOZl3rOYYyqtzAHP/mkPfhhyAI7HXIDQN4nEwDPB9FOK0+UmGN7RBIK9xf4sIXBfKZXz4UHv1SngeXLwoP/3UX1k5YqBYFr5P4RriZCAGsz8BaPwN3LOG5ZVIQDpNicR0rBfigLQqBn2G3RkQiHB8t1b45B13jjzCZEhoL0RQCWE31HNa3cneTLOJu7s4P0/F4gTxKQ8B5A7StTU5N0erq3J1tXf+h6ZBKkWtFto2N2GPW0Lue6nR1M/bgO9DvQ7ZLDvHacZefZ1jkF4PD3eBAYtnOjbgKrpyHHKVHetFnIBNJE61yuML4IO7CgU5kfVyXdjeRsfhAqV8773+/cTsHGs1rFa54Hjaz4Dvz1siL8/Dep0ch8fETS32CoY1D/qG75PvUxhgHbdeoW2LfpF70oenVXlxxw6RpXYa61Uo0Mcf+ysr0rYBkfJ5OY68WJQ8jfHgAOfnaWlpoMo1jbi7q1aDVgss61RnOGSzdPeuvHlTTmuZdko4oeN5YFk0rUvihhwY4ByDv4oYZu37/M2+IQinyobHXlyNTiTAsvgtnWrlmM/T3bsSAHZ2tHgcMplxUxJCEBGUy5hMYqHgF4sDL4NjL9MkHqHGo2xPTDpNt2/7iFCt4pmfBcEfMcuL815TdI4Ax/q9EJFX9b6PoQHvu1P+OH23chyHX2plRf72t16YWz8xsRjlcvD++7JYpKUlGjMlIQRlMjA3R9UqR9zBTLYBP8yPAbpu0GV/mo/BMCCbhZs3Jfenn/Ltn5JoLDiVTq/wZXWdEMXAvFfYoDdRKaqnIWfIn5+fp/n5KWR+uEkylaJLlyb4La6KzM0Rb5se/jxwHtgwgglQ6TRN1LISDjBnOJJLJul4sf8Nw03Vi4sEALncNM+eFoI0DWG4cwyTW+OYhGghfIrPwYwQIjjtcn9/tHtC7P7XMCCdhomKJ+E5Bm/bbUkm6dNP/Zs3fQBIp+E0Y6R7GJKYoFBeEFk5Dr8vYfIi/PkZdRxMC5ZXsRgsM8d8eADAMCiTmSD9SAT7+/jypdB1KhbfrnPdTBMuXpzJcd8DV45Hs/bd7MM4r8jB8luy3h4O13Tn5iiRmOxJ4HljIxt7omxsiIcPRTYLH3447il57zrYaSfsI6+wpB1OB0WE4RORMTIH9Z2QF9d0CwW6dk2urcnxGz55P+pEhYFajVv2aHVVTqTLd5eBzdCR0B47of2wFHwIbyM7/fjTNwb7x88/94nGCjswOHKLUqnJVo78vPGQyLNdJ74xhnWrhs6RW6nGCaSwc5TSWxW6Doevue+o0r5ks/ThhzKdpmRyrKMM8eggk3AX53kgXA4Okxe3ngKI6G6zwS83bs7pHaVYpHv3vLCaNhwcvBnpPDBcXmHsxfU16sRew26qpnEm7Werr3D/3DhwTxsANBroefiWr6OnTpjK6SOvsKTt+9093SMTE9EjDhS8wZMIeAjPRKnpnwf8foeUtLuJiejACOi3/zESe51LZ3AMXSfLIt+Hcln4Pp8qetbX9MYRYkDeK+zcCuXV06h0XF6aNtmEsJ83fAyilFguo5TIx7ec9UW9afrnvTol7e7GmFA0bMbCg4OiYlLOMYquQzIJUsLBAQAEcwDPG/2tVzjegxV2tKhORMGRZtGG+ncxMTFTDAP4oKtqFQDgfMqrr/WiaNY+WtLm/5GST7yBeJzC0SP8LT4wWwGd2IsnvCFCKjV6s93PD0QaVnPkfY4QWWeyvHgsVk+XKacNz9sKfBDsHBGx0QjOC1axV/ClyD7H3tCeo36e4B3d4cPOUcVeIXxOoBB8XjAPAzvra3rj9Im9jiUmuhvRWENSBtsZoovtjnNU8grgMf2aBo7DDY/nMTExqGMC4EjeC6POkSjYqRzd4aPk1QPHXrwTXdfxvMZeo/q9pAQAijhH4jlHbL2it0zXVd6ri64H+zeJwDRJ5b26X4qE9uFOf4rGXq0WEGEiQRHnSJoGmqZWjgHsHHkyvmnyqdhnfU1vnHFir269rCMv4vkI0ck2Ku91HCFgbU3+7nfe1avybeuyfzOMbMg5krVHJE0jouBoiei5uir26oHvw9Wr8urVmTSzvxMMco4EwQm2GN2l3VFecDBOj8FXRSFFDyPTqkfG1IbfchwEOO4cSWXtFVFGx15SYjT24qUQHyV/NLQPflHJSxEyeuUYjb1CAfEhNonEkbFvKrRX9DAorcol7eCMp57YCzFov4yOHglD+yGDcRTnjb4NOdSpOfZpJ2T7xLvTooczqmZoxXH6WK/QA3a2chypOfJ2oPCXo2JSzlHRwwRZ+/BbofuLKqnTDN0tHykUI7pVw3bC8N+gyUrhyvF8pqcVfRmWtecjXsO8F3St18DXyuXo4499PglBoegvL14PhomJnl77IfIqFOhXv/JhjHlGivNAH3nxHCWIOEeIWK+RLalKWIqQ4SVt7MReFI29NA2GD2NSKJj+NUcOzzmnSnQkraoSp4rxGbZyDM/cg6OhvcqdKsakj3OEzmAqrmcTUT/nqFCMpk9aNaQz+ozPBA1+WmW2FOPTxzlGiZ6lHU2rKhTjMMx6wbFDG5VzVEzEaHlF59p3Vo7KOSrGYoS8wm20HetF0Y4JhWI4Y8VeELFew0/SUyiiTBx7KeeoGJ+xYq/w2AQV2ismYrRz7IT2BEBhYkIZMMU4TLByZHi2Ox8JplAMp39RKCQae2FnJvTqqvztbyGfVztmFSMYIa+wGTr0hogwN0dzc1M4RVbxs6dPQ04Iu8Xxz3NUKHoQYoT1wrAhRylMMSnj5r2UthQnYNyVo7JeihMwVt4LEdRBVIoTMHHeS6EYnwlqjkphikkZ4RwZFdorTsYI6xX+kFKY4gSMkJeug2mqnWeKkzNQXoig6xSLqf5BxckZZr0MA+Jx1eClODkj5BWLqeZ6xclR1ksxQ4bFXkpeilMy3HpRLKbkpTg5I52jir0UJ2dkaB+cYKVQnIAReS9lvRSnYRzr9cYuRvFzQ8VeihkyIjGhrJfiNIxITMTjpEJ7xYkZHXupcYSKE9NfO9yhqutgmir2Upyc/vscczm6ckXm8xSelq1QnID+8rpxQy4skBokoTglA61XLqciesVpUXG7YoYoeSlmiJKXYoYoeSlmiJKXYoYoeSlmiJKXYoYoeSlmiJKXYoYoeSlmiJKXYoYoeSlmiJKXYoYoeSlmiJKXYoYoeSlmiJKXYoYoeSlmiJKXYoYoeSlmiJKXYoYoeSlmiJKXYoYoeSlmiJKXYoYoeSlmiJKXYoYoeSlmiJKXYoYoeSlmiJKXYoYoeSlmiJKXYob8f9ulTmtUEbr4AAAAAElFTkSuQmCC;movable=1;resizable=1;rotatable=1;deletable=1;editable=1;locked=0;connectable=1;" parent="1" vertex="1">
                    <mxGeometry x="1080" y="280" width="120" height="80" as="geometry"/>
                </mxCell>
                <mxCell id="IDKSLfoBvOOnQwNbsrg4-78" value="" style="shape=image;verticalLabelPosition=bottom;labelBackgroundColor=default;verticalAlign=top;imageAspect=0;image=data:image/png,iVBORw0KGgoAAAANSUhEUgAAAMoAAAEUCAIAAADlRD4UAAAACXBIWXMAAA7EAAAOxAGVKw4bAAAgAElEQVR4nO2dWXMbV5LvM08tAAo7SHARqY3abcseb9HuHvW4J6I7or/o/QL3YSbmqa3umelx+063WnZrsU1JlGhSXAAQBFAAajl5H7JQKIJYSUCUzPMLhcPBBSwU/pWZJzNPHvzqq69AoZgN4qwvQPFzRslLMUOUvBQzRMlLMUOUvBQzRMlLMUOUvBQzRMlLMUOUvBQzRMlLMUOUvBQzRMlLMUOUvBQzRMlLMUOUvBQzRMlLMUOUvBQzRMlLMUOUvBQzRMlLMUOUvBQzRMlLMUOUvBQzRMlLMUOUvBQzRMlLMUOUvBQzRMlLMUOUvBQzRMlLMUOUvBQzRMlLMUOUvBQzRMlLMUP0s76AnxVEUCrhixcik6G1Namf+7urrNfUIAIieP0av/pKf/hQcxw86ys6e8798zU9pATHgXYbXRekPOureTtQ1mtqEIHjoOOAlEB01lfzdqDkNTV8H9ptaLdRma4QJa+pISW0Wug4ynR1UfKaGlJiuw3ttgq8uih5TQ0pod0Gx0FlvUKUvKaGlNBuo7JeUZS8poaU0GqBir2iKHlNjY71QiKVUA1Q8poaHHsp5xhFyWtq+D60Wmy9zvpS3hqUvKZGZ+WorFcXJa+pISW2WtBuq9C+i5LX1JCSa46qKNRFyWtqEIHrgusq69VFyWuaKGH1oOQ1NbidUCksipKXYoYoeSlmiJKXYoYoeSlmiJKXYoYoeSlmiJKXYoYoeSlmiJKXYoYoeSlmyFhDADwPWi1EhHicNG3Wl6T4+TBaXlLCwQE+eKAJAZ984udyqqimGJcRzpEIfB8OD/GHH8T6umg238xVKX4mjJZXu43NJnqe6gVQTMxoebVaYNvA8lIKU0zECHlJCc0mNBrg+2/mehQ/K0Zbr2YTbRs9T20NVUzMaOvVaoFto7JeihMwTuyFtq2co+IkjLRe2GxCo4Ge92auR/GzQlkvxQwZkbXngY6d0L5PWoIIPA+kBF0HVS9S9DBOWhVarYE7j10XHj7UvvpK39lRS0tFL6Pl5boDhwrxtvf1dfHggVapKHkpehndkMNT2vvm6z0P2m2V0FcMZKyGnEHS8Txst897OZKjz4MD3NlBddBLD6c69IWtl++f63tKBLUafvON9vixVqmgEGq+V5fTyqvVOtc5C45NGw3c20PbhgsXpOvC69eqBzjgVDeiY72mdTHvHp2aLBgGrKzQr3/tf/aZn0ye41jhKKe3Xue9HMlVDdOERIKKRSkEGsZZX9Nbwynlhcp6NZvYaIBhkGWBpgFi8O88L3dCTuscHedcWy+irvVKpYCPn0UMvqUUdip58RFz53mh1LFeLK8j26iUvOCU8nJdaLfxPCcmiMC2odEAw4BUinQdEEEIAgDfP9cPHnNK54itFpznXp2I9aJkkjSNEIMITEpQp7+oxMSp4JJ/swmGAclkEHsJEcrrrK/vrDmtvM55WhUgmGVvGBCPEwtLCADlHAFgGitHcc7lxSE8q4pTEsp6hZw29lI1R+iU/DkfwbEXAEiprJdyjtMmtF6+r6zX2PJis9+D56kDwPrQcY7q5L3x5BUWOiDS+8XTTc551v44YWivnCOMX3MUAhCJV0N8+wZlpctlfPlStFoAABcu0KVL5+seh85RZe1hTHlxJprjCd8HIYAoWBkdd5o7O/iHP2ilkgCAL7/0zpu8ADhrT2rlCOPLS9dBCPB99H0yjEBeAHC8OdP3od1Gtl6uO/ULftuJhvbKOY4rL01jeYHvIxERgZTYsWq9MX8ovnNItOaorNe4oT3vkmXnCEFcTwAgxHF1nRfCpygaIUTSqmrlOIm82A/yQxl1judWXlIGKWVNA8RAStGStpTn9dZ0GDfvxc7R87rWi+8dh/znE9eFZhOECKqNTDQxoazX+LEXrxzR90lZL8Z1sdnkeexH5mu8PTVHbug4PETDgEzmDIbGj+kcKRJ7IXRyqnC+5eU40GyipkEiQXrnOQ1rjme+cmQrsLsr/vhH/cEDrd0+g89popUjcWhPBERB3Mrp1tle49uK66JtgxBkWRgahrfHOfIezIMDfPFCOI48k65PMc4tiOS9ugXsMPaa5eW91TgO2DYIwdarG9qHzvFsrRcPz+J24rM6Rl6XcvRcrkje60jsFd7KcZASmk3c3kYAWFmhROKd1yU7R5ZXj/Viz3i21ounejebyJ+X64Lvg36qnYcTM1YzICLoOvFdYxs7aWjPsVq5DP/zP9rXX2vV6umu+u3AccC2OfY68rG9JaG974NtQ6sVFEAd5wwmmOpjyysI7dknTiovKaFex1JJVCpomrw+eOetF8deySRY1hHrpWlBBudsnaPvo20jywsAWi1wXYzHp3DbeaLgzg6WSnj1qlxaGviaYpxe06NFod606jhICdUqlkrYbv98ctmd2Iui1uutir2aTWy1kJNK7fbUSsCtFpbL+OCB9h//oW9sDFPA+M7xSGgfTUyMozDfh4MD3N/HdnusN/BOEMZelkWaFob29JYUhTj2areDzy4c9Hd6dnbwm2+0V6+E66Lj4JCWUn0cf3w8tOfqEAT1kNGvICWyvByn2wv1rifMXBcHxF4EgG9H7IVReZ3MekkZBNzhaJbdXXzwQPM8iMWIx9gkEtTXykwQe/VYr2jsNVIoUkK1CuUySgmaRq5LrguG8a4qjB8Px4FWKygK9awcEadmKk6M70OziY6DsRjoOrXb6LqTXVA4ePHxYw2R7t6V6TR5HkqJug65HOXz1GrBxoZYXZX5fJ8Xn2DlGHZM9MRe/C9sMOyLlNBoYK0W/Irrouuefc3kxHBs4HngeaBpEIt1I4S3YacQL6QqFaxW0XEgHifDAMcB153saeY96Ds74ttvxePHWqOBUgJ/cIYB8/N06ZJst/HlS9Fo9H/liUP70JmGaVXDAF0n3wfHGaYY9oamCboOngeu+w7H+K4Lto0AgVvsacjhf2cYezWb+Ne/avfv65ub6HnYkdfEiQnPg50dfPUKWVjcx8CfsmlSsUhXrkjXhc1NbDT6v8K4sZeugxDkeej7QUUotF6GQYbB2zpGZO0Q0TCkroProufRuysvzwtuqGXRcRcfKQqNeHRrNTw46KqQPY5lnfa+uC68fIkvXohcjubnZSZDQkC9jpPGXqG8bBsyGYDOqHkiME3IZmlhgaSEcnngzOJxY69otyp0Yi/+OhskKdF1UcpubYSJhvCIZJqg6+S64DiTvdW3CrZeiGBZEJaDmIl2Cm1siP/+by38CNJp+uUv/WvXpvDYEUEmQ1984S8uStuGSgUdBydyjkTguri7K376STSbQZ4y9FGmSbEYcVQwJCg6SWIiGntpGhgGmSY7x+6DyL8CRxsHhADTBE0D14V3OvYKnWMyST2jLicaAlCtwvPnghtmKhV89UrU61NzqaZJy8tyZYUyme7KcfwX5/k0rdaRM1mkDHa2sk3hjNoQxpVXNK0KkbwXWy/D6N1Sy04T4MhGSEQwDNB1lte7HXs1GoAIlkU98cBE8uKn9OZN+fvfe5cvy7DwPMU7IwTEYqBpEycmeF2saUeaJVleAGSavW+8L/qYHROaRsdL2hDICHQ9MJth+y/LDgDa7SOrqk5oj647IvY6OMDNTWGatLBAiQTFYqOv843hechrJcuiHucIAJo2Wd4rmaSFBZlOi/A2mmaflM3mpuCGgEQCVldlLjfWq2sauzA+4GJc58iesdUKsnphJNNZOaJpQphJHsKkG9ECoxVNqwrB8sJ2m0Lrxct1rkWwzqBj0rgkN9J67e7i/ftaLkeffuovLkIs9hbZOnaOpkmWBQOcI/n+wHO++mIYEIsRb+Pjh7mHx4/Ff/2XBgDFIv3udzSmvELr5TiTWq9QXhQuDH0/+OA4yBnJBPIKt9GyLMJ2Qk0DXScpIQzt2dqxvWm3wbIwfB22Xp04YFhh2/Og0cBGA3Ud3n9f5vNnMGug3Yb1dWHbuLYmC4Xupbou1OswNwfJ5KmcY/S3TBPicfI8aDYhFutVLV9Mvc4B3wQTIYUA0yQhJk5MOA40m6BplEh0myWjK8epyQsgeK2jWzmCrxsGRZwjQEeOpkkAPHw1SGqz9dJ1qNdHJyY6vby4t6el0/TBB2Ne6TRptfBvf9N2dzGToXy+G8Zy7DU31996aRoAoJSTWa9YjOJx5BpLuACPEt7ziV42XE45zmRjSnnqYqfVG7mUF105TtF6kaaFIRcnJrDTTkh89a1W8HwQISLpOobO0fMgHNvHPtt1cUgOlu9jqNSzKt5xAMD/Zc/CEQJ0qo2ImEzKqVqvoEnLdfH1a3jyRMvl6NYtPx4/krblC3DdIDKJQgS2jZyGQOz+PEw+qTrcSZBMEvdL8oKMmxLGlJeATnGq2UQ+urHRwJ6kFN8yIYCfyKjOoomJdhs8L5CdrhNHS+GRaR2TxokJGhIH8PLE85Bv31nNAvF9cN1AJY5zpCbheUFiYlDeCyef7xWLQSIBnofNJrgu7O3hX/6iPXokonkBvoe6Hnz2PWaMb1S1Cnt7KGV3/1LPaKNx4PZDjr0sC+Jx0HXiVEXHevW+8ejv8jlLjgM6AJTL+Pe/a4hw+bI8OMCNDXHrlvzggyOxTtjmEAZex1eOYcuHpiFbNeiMHtV1QgTDoHicOivHgW/YdaFSwWYTslnZaomDgzOoe7MZqFbR9xERPQ+jvXgcISEe2SMUcoIBTIhgmsSxV6OBjQa0WsgVZdvGeBy4d1wImJ+XxSJVq7i1JS5elNHPmJcF6+vaDz+IQoEWF2U2e/LnkmOvbJb4r2saOE5ggDgt0Nd6cQi+sYGPHmlXr0odAGo1fPRI+D56HuzuikePRCrVG+v0tEX05L00LVgodeQFug6xWNDF1m6DYSAixGIQi4V5r668WKyNBroupFLkulguC9vGXI6aTTo8PJu2CtuGahW5aM3PQygX/iABgtVxFDwyeHyCPxeLQTxOh4fI8uLXlxJtG1IpSCQAADQNikVaWKDDQ/zpJygWIZnsvkKrhdUqvn6Ne3u4tiavX5enOTyL5aXrYFnBX3ddaLWg3cZEgo7LiyXBz+SPP4r//V/NMEhAx6iWy/jtt9rGxli9DNTdpQ2mCaaJvs9lBx4ARoYBvHLkC3IcXiFTLEYce0X/Cj+yDx5of/iDvr0tXBf299G2sVCAXK5/I9EbwLbx4AClJF0nz6Oocwz71Y43I4VfmagZOoy9PA/rdazVuA2QAKheh7AHU9NgYYGWl6lWw+1t7Nm6WKngs2eo63Dlilxakrlcb0VhIhwHo7EXl/IizrE39vI8qFbx2TPxpz9p332ntdtABLrjICJJCbbd3VUyErY3nJXgVBbHv2y9OBMWi4HjBNYrFkNOwMRiYStLN+9l27i/j8+f49aWuHVLxuNULqPjwMoK1evj9ltPFyJoNJD9smkSn54UXdBRZFxvlBPvcwxXjo0G1GrgOMGa1Lax2SSO5ISgTIZyOeLumnAlyB9HqYQbGyKfpwsXYG6O4vGTvnkACLL2HHuRZUGjEXyl3UaiI9aLY9NqFTc3xY8/iu+/F7VaICS9VoNWq5vPxfGO8iIC3yeWl2kGO2w5m8XWixMT3CzbboPrEssrHg9OWogukstlfPZMVKvdLVOVCggBuRwdHp7ZVspGA/j8+XicpETHoeGJupATOMdo3qteR85vmSYIAY0GNpvYboOUyJGuYVDPx8QF31IJX74Ui4v+5csylTrBO+7CnwKHWYkExOPcjci+6Ij14iup13FrS/z972JzU7Ra3WdOL5UEZziyWbpwgQ4PYWtrtLmIhPbE1otjOrZJfBdiMWg0ggti58g5VU6PhStQ9ssvXuDhYbCWlhJbLYzFKB6neBzDWZvQz1pMxP4+bm+LhQU5N0fDdwlwaH94iNksJRJBMWQcZ4fBzDOatJ3QNCkeRw5f6nWMxYKA2rahVArOiORMG3+uUT9j21gqIedj02nK5YgLvqeBTUDotRsNjr2CzTgccAsB8/O0vEyVCu7v4+am8DxYW5ONBmxvCwAQu7v46JGo13Fpif71X727d3sTOX0h4vwWdJ6nMJsAHXl1ExOtFssrCLwg4jgo2P+IL1+KWu2IdjhGDnv5p5L9evZM/Nu/6U+fao4zOufZbEKtBppGlkVcgxuvPkuRvNe4TwN/irFYEKVwbxYXNBsN3NnB9XWBCJcuUSrV5yKqVXj+HKWEy5dloUCcpp8KnZ4rjr2CjzK0XkLA2pq8c8cvlfC770S1igsL9OWX3kcfSU6qC9/nHDrEYpTLUTI51kAllgUvEjvN0Oj76PvIXwxD+3Y7yE2wEMO3zR+V40CthtGMZeS7yB0WlgUAUK9PYR9Vs4n7+7i9jVtbOKh/N3x33FRumkG8OLwXNyQSe42QY4895kiDdWzb4HmQToNpYr2OOzvi+XOh63Tlikyn+7xorYYvXggAXFuTvBjqGxTCqKeUndLmpvj6a217W3SukLv0IAztAcAwgo8+n6eFBSKCWg09DwwDcjlKpQIVCR6UOil0tNc+/Ar3soa5VkToxF5B8avnbbdayPFNLkes9x50PXhea7XeZO8JCENg7rIa9GPhlDy+s5w0dt1xizw882zkBxkWbcP0OueQOdfl+5jJgGlCrYY7O/jihdB1uHpVZjJ9XvTwEDc2BCKsrclsts+fC9ezI6/K9+GHH8S//7vx/LnovB2IxagjLw7TuWMCECGZDHxx35c9oQ2lyIyJni9KSUKAYSCvXDgxwfKKWi+m1YJyGREhn6dEIogTo5+iaQL38larvevwE1Mu48aGODwceK/bbahWEZEymaDdmbvZJrRew2IvjiX6rvB59IiUkM1SIkHtNuRy9NFHPg/m6Jtt4i5iTaPoMJUoug7sl+r1YU8pLwA5zOppAtV19kLhg3fkqeh7HxBBJ5IsMinJ81zf1wF03/dd1wXgR1YQCc/zpAQiXUrpuq7naZ6Hvi+llL4viUBKjUg4js/rGiGkEK6U0G5rrRa1WhSLSSGklL7nCSKNSLqu22iI/X3h+342S/v7eruNnue5LkipSUme5wkBySQ3dEM67bvuqfomfB8B9EoFHYfu3JGO4/WdrliriVJJA5DpNMViPiI5jtZqkeO4vJeLO8LDu3T0TwTC8n3d8+TxH2AcB5pN4bpoGBLAi9xtTUo+SkdalmMY2Grpq6vyn/7Jn5sLVgyuyzcQPc9rt33PQ8dBIono8z0/LmtEaVkgpaxUfCI5qFWrXhelkrBtEQ7V8n3f81xEgag5DjqOkBKkPPLGPQ+lDFRPJD3P830NUZdS4r17/8e21wAomfy+UPhjs3m1XP4yk/nffP4/AcDz0uXybzwvXyjcJxLl8pemuVco3HecRdu+o2llXd+LxfYARLn8pesW0unHiE67PWcYry3rsW1/Uq//KhbbM4w9orKmlRKJHc+bK5d/Y5qlfP4+wLLj/FO7vdVqbbfb1xBzCwtPDcPf3/8EsV4o3Pc8ODy8YJoZy0rq+vea9mKEgoZSrX5eLn8pZUuIw2Lxu2z2mZQ2Ue/jTHSR6FKlgo2Gb1n7pgmed0PTnGTyr7peQRTV6sel0q/z+T/ncv9z7HeRSGs03qtW/zmV+jaX+88B15IgytRqlyuVa9nsd7nctwDgedly+ctG4xYiJBLPstn7lUp5YwNzOVhelvF40PTmunPl8pdSxgqFrxKJhq4vlEoL29vFfP77YvFx3z/WaFwol28lk14+X0PcBtgZcFVLRFcqlUK5nBcio+tQKNy3rKeuG3Ocy677C8eZb7cxlfproXAfMcgteV62VPrStm8AoGU9KxTut9tL5fK9dPqJXiqVLWtN16lS2f3xx7/EYl4ud29jY+Phw/sAoOvFXO49Xddfvfo7opbLfVap7Dx9+mfTvGZZc5636bovHOc5opbLfaDrib29DSLbNB3H+aHR+M9UKp/N/rJerznOtu//5HkvHWdd1y/lcp953t73339tGDct66rnbfj+00Qiruvy0aMfpPQymVu+X1pf/waREonbiIsAc83mt+32X8eR0SDS6UI+/yWi43mHT5+u2/b/Izogsnt+zDTvmibqOgnh7O29lBITiazv2/X6Xzxvm0hkMplC4VcvXjyrVu/3/C6iQNQtS89mP9/f34j+gO8D54TicTKMjBALiYSXSs09e/a0VuO7vZjLvWdZt4igXC6tr3/jui8BYGcHdiJ6MIxLudxdIRIbG39z3YqmXUskbMuiV68eP3rUez1MPH47lbIqFXd9veS6T1x3ve+PGcYN04R43I3HESDmOPjkyRPb/pOmJeNxO53+wDDmAeCnn376xz/+FD6WhrFUKNyxrOtSYqlUXl//Jha7kc1+/urVK/z97/9vvV5cWJDz868LhadbW8UnT+5cvfr8xo2nANBqJZ48udNoJG/ffkyEjx/fyWRqt28/PjjIbm5eyGYb2WwtnT70fXzy5E6tllpe/skwvFYrlcsdLC1tPX9+5enTm5ZVS6UOi8V6Pl9LJA4PD9OPH99Jpeq3bz9+/Tr/6NGVGzdK16+Xd3YWDw6Suv7acWh390oq1bxz50ksRu12bnvb+umnxLVr26uru+OLKQqHdBsba99/fyeddtJpO5ncSqX2stl2PN7rv169mt/YKC4vy2LRN4xaswnPnl0Qwrt583ksZrdauLd35fXrm5cu/bC6+mPP7yIigHj1auXJk1uXLr28efMpf933oVLBhw81APj4YxmP69WqVa/P2fbC4uLm4uIrAGg2rSdP7mxvLyPCwsLurVuPU6na8fdSr6efPLnjefrt24+lbG9s5GKx1Px8KpV6bVlbfd9+s5mvVpfqdarX28vLlcXFg74/9vp17vnzhVTKyuUS29vJeh1u336ysrIFoJdK80+e3Dg8TAPA5csvbt16LEQQqDiOtb19a29vqVoV2ezenTuPDw+z6+u3isUtvVic931YXYWbNxeuXZv/29/EDz/oV69e/e1vLwLAwQFWKvreHn7yySdSwuamsbyc/PWv51++RMfRVlfp4kVaXJSeB6WS4ft4+fJaMgkHB3jx4vJHH90UQv/+e2FZmWIxffOmf+WKnJujzU2xuakvLCTv3Zv77jvx44/G2lrm3r2Ljx9rm5uYSOTrdajVtGIx9cUXuXSaajV8+FBUq9p77y19/rnPGWrbBgDIZoeV1VwXeHnI62TXBcPQX77EXM5YWMgsLKQWF2+srvZ2FRPB119r1ap2/bq8eVNaFh0cQL2u6zp88cVSJgMHB/jkibBtcefOtV/84srxv0sE33yjPXumX7kS3EYOpzY3RaWiI8Ivf+lZFm1u4u6u2N0Vd+9m7t69BQDlMlYq+v4+pFJ07drcvXtfzM/3CZJ2dnB/32i14PPPP/c8cBwtlYJr1+TS0lyx+F7fW1Eq4atXuLsr9vbwo4/8Dz7ov+j49lutWtWKRbp4UTqO5rr4/vvvf/rpbSJ4+VK4rra7KwHg7t3Ve/eWwvxovY4PHgiemDI/P//FF19sb4udHf3KlSs6b9ZbXZWLi3L8VC8RSokAFA2NicD3kVeO0dUEL7t4AXK8/S1sBbMssixstaBeD5rGONmYThMicmKC6w+7u/j4saZp9Itf+MXiwGs+OMC//EUDgE8+kfE42TZICbkcZbOUTJLvY6MBnterLSmh2cRqFbkqZRjUaAT5PM7d1+sgJaRSMtxD0ENP8xJE5k+1WsALaimD6gp3KEV/N52mO3fkzZuS+xSG025DqYTxuJyfH9YfwZOh9/epWhVDFuDtNhwc4IUL8uJF+eKF2Nnp9iTOz9O9ez4X13O5IwtYXad8nubnabfjWrgbHoD0lRU5N4fLy5TNTjCYmo6OMAm/GOZao/VO7mbpm5iAzj5bHmOUTFK1Kup11HXgoSuRLSGctoXXr5HrppZFt29LNmA9qz/uuXj+XDx9qpkmXbhAqRQ0myAlFAoym6VkMpgt2NMfzKbRdUFKNAzqXAOGDUjcBi0lpVLYN1EXfV8hLK/9fdFuB01j3NLDTX9hKsEwYHmZYjF586ZcWZFDdq8gEgByLbnRACJIpYZtpjJNSqdRCDg8hK0tzGYFJz85OwoA9Tru7+PWFto26joUCnTxopQSwjRbMkmD5KtpkMvR/DyFeU0uOgOA/tlnvpSQThNv1hgT6jd4nOvcbL2iL8Vtn+GeggH3CxIJsCxqtcC2IZUK5N7TW+y6uL4uHj7UGg00TapWsVbDbLa3p4+HLPzjH1q1ipkMvHolODcrJRQKlMmQZUGzydbryC86Dh4eIn9a0Wn1YQmLe4eIMJ2eYG8cz5/a2+uON/N9aLV6rZdl0Sef+J4HlgWx2MinnQd1o5SIiD1ljx4MA9LpYBTAw4fay5fiww/ljRt+Nhs0Ku7s4J/+pG9uIm8cjMXggw/k9euS9/4Ph+VVKBAbgiDjpQMi6HNzJ6nkhZa/p8eQC21CHGlz8DwYYr0Y7vxMJpH3qC0syHw+uO/RPyEl1GpYr+P8POVy9NNPqGnCsmRPLpHrmLUaLC/LZBL29vDgAGMxSqdpbg6SSTAM2tnBVgt7xnA6DhweAhFkMhTdbEidUQaui7yROpWiQc7xOL7P1oszw13rJQRbr+DHNA2i+5EG0ckFom2zKQ2+OMQ6cGRiWZDLweEhbG6KRAIA6NatwAU3m7Czg5UK8jtlxYz57rhRdG6Obt+WXEPjjiwYf6fQcSKHvhBA8M449uInKXy3XHtneQ26BYgQj0MyGWwYyeepUOi/D5if+Nu3/VgMvvtOtNt05UqfMIUI0mn47DOfCP78Z73VgkwGkkmYn5cc/fg+Nhq9zpHT1gCQzVJf3+R5UK9DIgHJZP8q1oB7BdUqlErdse2+j+120KE6adOfrkMuB0TEE1DG3GePCLkcXbnib2yIrS1cXxeNRtD7Gl7kyZoGWI7z8/SrX/lsJoTgvWt4QnkNir34EqOhPSJkMrS4SJYVeMae+vvIypsAAA+ySURBVFf469xCDQC6ToUC5fP96xsAoOswNxfUappN8Lygt5Gd18aGePZM7O+jrlM2G0z14eWClJTPk2EQFxC5chyl3Q6cYzbb3/fxJoV4nNJpGN96AYDvY7SDknNgpknR2GtMdB3yeWo28dUrLJWE6457KF0uR2trdHhIW1vQbvcJPU/c78TeMOzm4L08iHRCecl+wy955UhEQhyJsebm6OJFija4he3CrMVo9YpXi/k85XIDpxjoOqTT1JnME+y+5FEtjgPffqt9/bUmJaysSMMAACLiVkckolxOCsFVF2g2ex99x4HDQ4zHKZeDvvLidr98HlKpyeRFR9uAOfZKpXpXjuOg61QoyHJZPH2ql0oIY8sim6VYTL58Kfhe9S2JDneyY4KdGXqj31nfmiURcGewEBA+O6H1CleO/Lvz80c6STgO4BSD42B0GIZl0ccf+60WFotHAls2eLxNmXvcEME0A1NUqWAsBrkctVp4cAC2DUQwN0fLy5RIHLFP2JlmMKhf2XGgWoVYjGOvvs4Rm00komTyVC17bL2IiPe2TISuQz4P+TzoOi0uwq1b/o0bY3Xp8Xr8zh0/FqOnT0WzGZTDw893dVXevi1v3DjtVMWxYq9o/N6j6EjHBEbPFAq3bvNDwO9nYYEuXuwus3lhAhB0esVi3WEYiQR8+GGf98aX224HO8NYIqYJhQI5DpTLYFmQzUKzCZVKsDtvYYEuXKB4nGq1btsjT+cP387xUIOt18ICDXKOnRUfJRKn2ihxNO81sXPMZqlQoGQScjn5z//sj7MgAAge+1u35KVL0rb1H38UvKgPzfDKCv3mN944+bbhTCavvt8Km6F78l4cBvEDcf26jMdpZeVI/yTP9OEGNNfFcT6nbJauXpWNBjx5IjQNVlZkIgGmCfPzVKlAqSTSabm6Ss0mlsvYaoFh0OKivHgxCPkRYWGB1tbk5csjnkteGAIMtF59g84TwBuriPAE1gs6W4bu3fNjsZNMM0SEdBpyueCOjanOiV4/SEz0/R7TN/sQfoubUoQAgGDleFxeKytyZaX3d9l6OQ7U6+B5kEj0GdfRA8trext3dnB5mVZXybIoFqP5edlsip0dLBSQCGwbymVuToSlJVpYINMk08RcjtJpunvXLxZH9OJ6HjSbwVy4QT/Z0wY4KWHfZWcG7sTHLIbLwFzuhO1JQkAmQ7kcNJtQLmM6PYVG857XZ5PcK68wLUaRc6n6ymvwyhGFoCHbezSNtyOjbaPvB/16w8nn6do1Waloto35vLx4UVoW6DoUCrC/D5UK8s6nZhMPDnB5mebm5OJiYDKLRfqXf/EMAwqF0edk9W2TnCKd5Fm3X6/v7Z01XO+q1XgLICwuUrRD8PQMC+3DuGRI7AXQ10cEw+WOj9aIwrlE2w5Pqxu9MucZk4uLVKvR4iIVi8RNi+k0GQbvBAwSDQcHeOmSvH5d5vOBVUinqW9/+iD6GuzoI3RiOCowjGCrGS9a37y2+I9ms9RowPo6Og4PfkaOTadyPRx7ed4A69Vpa+5qqAfqd5Z2T95r0IV25iliq4Xx+FgxMs+l/uAD/+pV3nzcrTvx9gd2N80mHh6ipnEnxTTNfTRRd2IMg5aWKJulvT3c25tgVuDUYedo29BqYaOB1So5DiQSNJUDraBjvXy/n/Viv9apZ3XdZRQewAR9ao4oJY1jvXhmE4+FGSmvMC/c06AS/nXOdnLpiTdIjh/QcLasXseDA3z9us/5qUJQuJtjzI77vpgmLC3JTAb29nBnR5zJ8bAM10g4a1OvBztMEwmITno6DWy9ggk5Pd/oHCqBUhJvZjx+cNDwjonhO1S5CULTiOfcnSCveBzuJOFsO2t3/NvkusFwhL//XdvdRd/v/V324DzSg9suTkYsBhcukGnC06dib2+sYs7sCHMHnge1WlCRs6yxtiGO+eJ9Vo545KRxHB7a47GdQtHNj0P+djxOuh5M8bcsOL0j4yPgAKBQoHh83HvEzUI80eXHH8XWFsZicP267LGRPMYDAJtNsO2TD7TWNEgmgy033C5xhoQfKxswISiZDDZrTePFOZl3rOYYyqtzAHP/mkPfhhyAI7HXIDQN4nEwDPB9FOK0+UmGN7RBIK9xf4sIXBfKZXz4UHv1SngeXLwoP/3UX1k5YqBYFr5P4RriZCAGsz8BaPwN3LOG5ZVIQDpNicR0rBfigLQqBn2G3RkQiHB8t1b45B13jjzCZEhoL0RQCWE31HNa3cneTLOJu7s4P0/F4gTxKQ8B5A7StTU5N0erq3J1tXf+h6ZBKkWtFto2N2GPW0Lue6nR1M/bgO9DvQ7ZLDvHacZefZ1jkF4PD3eBAYtnOjbgKrpyHHKVHetFnIBNJE61yuML4IO7CgU5kfVyXdjeRsfhAqV8773+/cTsHGs1rFa54Hjaz4Dvz1siL8/Dep0ch8fETS32CoY1D/qG75PvUxhgHbdeoW2LfpF70oenVXlxxw6RpXYa61Uo0Mcf+ysr0rYBkfJ5OY68WJQ8jfHgAOfnaWlpoMo1jbi7q1aDVgss61RnOGSzdPeuvHlTTmuZdko4oeN5YFk0rUvihhwY4ByDv4oYZu37/M2+IQinyobHXlyNTiTAsvgtnWrlmM/T3bsSAHZ2tHgcMplxUxJCEBGUy5hMYqHgF4sDL4NjL9MkHqHGo2xPTDpNt2/7iFCt4pmfBcEfMcuL815TdI4Ax/q9EJFX9b6PoQHvu1P+OH23chyHX2plRf72t16YWz8xsRjlcvD++7JYpKUlGjMlIQRlMjA3R9UqR9zBTLYBP8yPAbpu0GV/mo/BMCCbhZs3Jfenn/Ltn5JoLDiVTq/wZXWdEMXAvFfYoDdRKaqnIWfIn5+fp/n5KWR+uEkylaJLlyb4La6KzM0Rb5se/jxwHtgwgglQ6TRN1LISDjBnOJJLJul4sf8Nw03Vi4sEALncNM+eFoI0DWG4cwyTW+OYhGghfIrPwYwQIjjtcn9/tHtC7P7XMCCdhomKJ+E5Bm/bbUkm6dNP/Zs3fQBIp+E0Y6R7GJKYoFBeEFk5Dr8vYfIi/PkZdRxMC5ZXsRgsM8d8eADAMCiTmSD9SAT7+/jypdB1KhbfrnPdTBMuXpzJcd8DV45Hs/bd7MM4r8jB8luy3h4O13Tn5iiRmOxJ4HljIxt7omxsiIcPRTYLH3447il57zrYaSfsI6+wpB1OB0WE4RORMTIH9Z2QF9d0CwW6dk2urcnxGz55P+pEhYFajVv2aHVVTqTLd5eBzdCR0B47of2wFHwIbyM7/fjTNwb7x88/94nGCjswOHKLUqnJVo78vPGQyLNdJ74xhnWrhs6RW6nGCaSwc5TSWxW6Doevue+o0r5ks/ThhzKdpmRyrKMM8eggk3AX53kgXA4Okxe3ngKI6G6zwS83bs7pHaVYpHv3vLCaNhwcvBnpPDBcXmHsxfU16sRew26qpnEm7Werr3D/3DhwTxsANBroefiWr6OnTpjK6SOvsKTt+9093SMTE9EjDhS8wZMIeAjPRKnpnwf8foeUtLuJiejACOi3/zESe51LZ3AMXSfLIt+Hcln4Pp8qetbX9MYRYkDeK+zcCuXV06h0XF6aNtmEsJ83fAyilFguo5TIx7ec9UW9afrnvTol7e7GmFA0bMbCg4OiYlLOMYquQzIJUsLBAQAEcwDPG/2tVzjegxV2tKhORMGRZtGG+ncxMTFTDAP4oKtqFQDgfMqrr/WiaNY+WtLm/5GST7yBeJzC0SP8LT4wWwGd2IsnvCFCKjV6s93PD0QaVnPkfY4QWWeyvHgsVk+XKacNz9sKfBDsHBGx0QjOC1axV/ClyD7H3tCeo36e4B3d4cPOUcVeIXxOoBB8XjAPAzvra3rj9Im9jiUmuhvRWENSBtsZoovtjnNU8grgMf2aBo7DDY/nMTExqGMC4EjeC6POkSjYqRzd4aPk1QPHXrwTXdfxvMZeo/q9pAQAijhH4jlHbL2it0zXVd6ri64H+zeJwDRJ5b26X4qE9uFOf4rGXq0WEGEiQRHnSJoGmqZWjgHsHHkyvmnyqdhnfU1vnHFir269rCMv4vkI0ck2Ku91HCFgbU3+7nfe1avybeuyfzOMbMg5krVHJE0jouBoiei5uir26oHvw9Wr8urVmTSzvxMMco4EwQm2GN2l3VFecDBOj8FXRSFFDyPTqkfG1IbfchwEOO4cSWXtFVFGx15SYjT24qUQHyV/NLQPflHJSxEyeuUYjb1CAfEhNonEkbFvKrRX9DAorcol7eCMp57YCzFov4yOHglD+yGDcRTnjb4NOdSpOfZpJ2T7xLvTooczqmZoxXH6WK/QA3a2chypOfJ2oPCXo2JSzlHRwwRZ+/BbofuLKqnTDN0tHykUI7pVw3bC8N+gyUrhyvF8pqcVfRmWtecjXsO8F3St18DXyuXo4499PglBoegvL14PhomJnl77IfIqFOhXv/JhjHlGivNAH3nxHCWIOEeIWK+RLalKWIqQ4SVt7MReFI29NA2GD2NSKJj+NUcOzzmnSnQkraoSp4rxGbZyDM/cg6OhvcqdKsakj3OEzmAqrmcTUT/nqFCMpk9aNaQz+ozPBA1+WmW2FOPTxzlGiZ6lHU2rKhTjMMx6wbFDG5VzVEzEaHlF59p3Vo7KOSrGYoS8wm20HetF0Y4JhWI4Y8VeELFew0/SUyiiTBx7KeeoGJ+xYq/w2AQV2ismYrRz7IT2BEBhYkIZMMU4TLByZHi2Ox8JplAMp39RKCQae2FnJvTqqvztbyGfVztmFSMYIa+wGTr0hogwN0dzc1M4RVbxs6dPQ04Iu8Xxz3NUKHoQYoT1wrAhRylMMSnj5r2UthQnYNyVo7JeihMwVt4LEdRBVIoTMHHeS6EYnwlqjkphikkZ4RwZFdorTsYI6xX+kFKY4gSMkJeug2mqnWeKkzNQXoig6xSLqf5BxckZZr0MA+Jx1eClODkj5BWLqeZ6xclR1ksxQ4bFXkpeilMy3HpRLKbkpTg5I52jir0UJ2dkaB+cYKVQnIAReS9lvRSnYRzr9cYuRvFzQ8VeihkyIjGhrJfiNIxITMTjpEJ7xYkZHXupcYSKE9NfO9yhqutgmir2Upyc/vscczm6ckXm8xSelq1QnID+8rpxQy4skBokoTglA61XLqciesVpUXG7YoYoeSlmiJKXYoYoeSlmiJKXYoYoeSlmiJKXYoYoeSlmiJKXYoYoeSlmiJKXYoYoeSlmiJKXYoYoeSlmiJKXYoYoeSlmiJKXYoYoeSlmiJKXYoYoeSlmiJKXYoYoeSlmiJKXYoYoeSlmiJKXYoYoeSlmiJKXYoYoeSlmiJKXYoYoeSlmiJKXYoYoeSlmiJKXYob8f9ulTmtUEbr4AAAAAElFTkSuQmCC;movable=1;resizable=1;rotatable=1;deletable=1;editable=1;locked=0;connectable=1;" parent="1" vertex="1">
                    <mxGeometry x="1200" y="280" width="120" height="80" as="geometry"/>
                </mxCell>
                <mxCell id="4" value="" style="shape=image;verticalLabelPosition=bottom;labelBackgroundColor=default;verticalAlign=top;imageAspect=0;image=data:image/png,iVBORw0KGgoAAAANSUhEUgAAAMoAAAEUCAIAAADlRD4UAAAACXBIWXMAAA7EAAAOxAGVKw4bAAAgAElEQVR4nO2dWXMbV5LvM08tAAo7SHARqY3abcseb9HuHvW4J6I7or/o/QL3YSbmqa3umelx+063WnZrsU1JlGhSXAAQBFAAajl5H7JQKIJYSUCUzPMLhcPBBSwU/pWZJzNPHvzqq69AoZgN4qwvQPFzRslLMUOUvBQzRMlLMUOUvBQzRMlLMUOUvBQzRMlLMUOUvBQzRMlLMUOUvBQzRMlLMUOUvBQzRMlLMUOUvBQzRMlLMUOUvBQzRMlLMUOUvBQzRMlLMUOUvBQzRMlLMUOUvBQzRMlLMUOUvBQzRMlLMUOUvBQzRMlLMUOUvBQzRMlLMUOUvBQzRMlLMUOUvBQzRMlLMUP0s76AnxVEUCrhixcik6G1Namf+7urrNfUIAIieP0av/pKf/hQcxw86ys6e8798zU9pATHgXYbXRekPOureTtQ1mtqEIHjoOOAlEB01lfzdqDkNTV8H9ptaLdRma4QJa+pISW0Wug4ynR1UfKaGlJiuw3ttgq8uih5TQ0pod0Gx0FlvUKUvKaGlNBuo7JeUZS8poaU0GqBir2iKHlNjY71QiKVUA1Q8poaHHsp5xhFyWtq+D60Wmy9zvpS3hqUvKZGZ+WorFcXJa+pISW2WtBuq9C+i5LX1JCSa46qKNRFyWtqEIHrgusq69VFyWuaKGH1oOQ1NbidUCksipKXYoYoeSlmiJKXYoYoeSlmiJKXYoYoeSlmiJKXYoYoeSlmiJKXYoYoeSlmyFhDADwPWi1EhHicNG3Wl6T4+TBaXlLCwQE+eKAJAZ984udyqqimGJcRzpEIfB8OD/GHH8T6umg238xVKX4mjJZXu43NJnqe6gVQTMxoebVaYNvA8lIKU0zECHlJCc0mNBrg+2/mehQ/K0Zbr2YTbRs9T20NVUzMaOvVaoFto7JeihMwTuyFtq2co+IkjLRe2GxCo4Ge92auR/GzQlkvxQwZkbXngY6d0L5PWoIIPA+kBF0HVS9S9DBOWhVarYE7j10XHj7UvvpK39lRS0tFL6Pl5boDhwrxtvf1dfHggVapKHkpehndkMNT2vvm6z0P2m2V0FcMZKyGnEHS8Txst897OZKjz4MD3NlBddBLD6c69IWtl++f63tKBLUafvON9vixVqmgEGq+V5fTyqvVOtc5C45NGw3c20PbhgsXpOvC69eqBzjgVDeiY72mdTHvHp2aLBgGrKzQr3/tf/aZn0ye41jhKKe3Xue9HMlVDdOERIKKRSkEGsZZX9Nbwynlhcp6NZvYaIBhkGWBpgFi8O88L3dCTuscHedcWy+irvVKpYCPn0UMvqUUdip58RFz53mh1LFeLK8j26iUvOCU8nJdaLfxPCcmiMC2odEAw4BUinQdEEEIAgDfP9cPHnNK54itFpznXp2I9aJkkjSNEIMITEpQp7+oxMSp4JJ/swmGAclkEHsJEcrrrK/vrDmtvM55WhUgmGVvGBCPEwtLCADlHAFgGitHcc7lxSE8q4pTEsp6hZw29lI1R+iU/DkfwbEXAEiprJdyjtMmtF6+r6zX2PJis9+D56kDwPrQcY7q5L3x5BUWOiDS+8XTTc551v44YWivnCOMX3MUAhCJV0N8+wZlpctlfPlStFoAABcu0KVL5+seh85RZe1hTHlxJprjCd8HIYAoWBkdd5o7O/iHP2ilkgCAL7/0zpu8ADhrT2rlCOPLS9dBCPB99H0yjEBeAHC8OdP3od1Gtl6uO/ULftuJhvbKOY4rL01jeYHvIxERgZTYsWq9MX8ovnNItOaorNe4oT3vkmXnCEFcTwAgxHF1nRfCpygaIUTSqmrlOIm82A/yQxl1judWXlIGKWVNA8RAStGStpTn9dZ0GDfvxc7R87rWi+8dh/znE9eFZhOECKqNTDQxoazX+LEXrxzR90lZL8Z1sdnkeexH5mu8PTVHbug4PETDgEzmDIbGj+kcKRJ7IXRyqnC+5eU40GyipkEiQXrnOQ1rjme+cmQrsLsr/vhH/cEDrd0+g89popUjcWhPBERB3Mrp1tle49uK66JtgxBkWRgahrfHOfIezIMDfPFCOI48k65PMc4tiOS9ugXsMPaa5eW91TgO2DYIwdarG9qHzvFsrRcPz+J24rM6Rl6XcvRcrkje60jsFd7KcZASmk3c3kYAWFmhROKd1yU7R5ZXj/Viz3i21ounejebyJ+X64Lvg36qnYcTM1YzICLoOvFdYxs7aWjPsVq5DP/zP9rXX2vV6umu+u3AccC2OfY68rG9JaG974NtQ6sVFEAd5wwmmOpjyysI7dknTiovKaFex1JJVCpomrw+eOetF8deySRY1hHrpWlBBudsnaPvo20jywsAWi1wXYzHp3DbeaLgzg6WSnj1qlxaGviaYpxe06NFod606jhICdUqlkrYbv98ctmd2Iui1uutir2aTWy1kJNK7fbUSsCtFpbL+OCB9h//oW9sDFPA+M7xSGgfTUyMozDfh4MD3N/HdnusN/BOEMZelkWaFob29JYUhTj2areDzy4c9Hd6dnbwm2+0V6+E66Lj4JCWUn0cf3w8tOfqEAT1kNGvICWyvByn2wv1rifMXBcHxF4EgG9H7IVReZ3MekkZBNzhaJbdXXzwQPM8iMWIx9gkEtTXykwQe/VYr2jsNVIoUkK1CuUySgmaRq5LrguG8a4qjB8Px4FWKygK9awcEadmKk6M70OziY6DsRjoOrXb6LqTXVA4ePHxYw2R7t6V6TR5HkqJug65HOXz1GrBxoZYXZX5fJ8Xn2DlGHZM9MRe/C9sMOyLlNBoYK0W/Irrouuefc3kxHBs4HngeaBpEIt1I4S3YacQL6QqFaxW0XEgHifDAMcB153saeY96Ds74ttvxePHWqOBUgJ/cIYB8/N06ZJst/HlS9Fo9H/liUP70JmGaVXDAF0n3wfHGaYY9oamCboOngeu+w7H+K4Lto0AgVvsacjhf2cYezWb+Ne/avfv65ub6HnYkdfEiQnPg50dfPUKWVjcx8CfsmlSsUhXrkjXhc1NbDT6v8K4sZeugxDkeej7QUUotF6GQYbB2zpGZO0Q0TCkroProufRuysvzwtuqGXRcRcfKQqNeHRrNTw46KqQPY5lnfa+uC68fIkvXohcjubnZSZDQkC9jpPGXqG8bBsyGYDOqHkiME3IZmlhgaSEcnngzOJxY69otyp0Yi/+OhskKdF1UcpubYSJhvCIZJqg6+S64DiTvdW3CrZeiGBZEJaDmIl2Cm1siP/+by38CNJp+uUv/WvXpvDYEUEmQ1984S8uStuGSgUdBydyjkTguri7K376STSbQZ4y9FGmSbEYcVQwJCg6SWIiGntpGhgGmSY7x+6DyL8CRxsHhADTBE0D14V3OvYKnWMyST2jLicaAlCtwvPnghtmKhV89UrU61NzqaZJy8tyZYUyme7KcfwX5/k0rdaRM1mkDHa2sk3hjNoQxpVXNK0KkbwXWy/D6N1Sy04T4MhGSEQwDNB1lte7HXs1GoAIlkU98cBE8uKn9OZN+fvfe5cvy7DwPMU7IwTEYqBpEycmeF2saUeaJVleAGSavW+8L/qYHROaRsdL2hDICHQ9MJth+y/LDgDa7SOrqk5oj647IvY6OMDNTWGatLBAiQTFYqOv843hechrJcuiHucIAJo2Wd4rmaSFBZlOi/A2mmaflM3mpuCGgEQCVldlLjfWq2sauzA+4GJc58iesdUKsnphJNNZOaJpQphJHsKkG9ECoxVNqwrB8sJ2m0Lrxct1rkWwzqBj0rgkN9J67e7i/ftaLkeffuovLkIs9hbZOnaOpkmWBQOcI/n+wHO++mIYEIsRb+Pjh7mHx4/Ff/2XBgDFIv3udzSmvELr5TiTWq9QXhQuDH0/+OA4yBnJBPIKt9GyLMJ2Qk0DXScpIQzt2dqxvWm3wbIwfB22Xp04YFhh2/Og0cBGA3Ud3n9f5vNnMGug3Yb1dWHbuLYmC4Xupbou1OswNwfJ5KmcY/S3TBPicfI8aDYhFutVLV9Mvc4B3wQTIYUA0yQhJk5MOA40m6BplEh0myWjK8epyQsgeK2jWzmCrxsGRZwjQEeOpkkAPHw1SGqz9dJ1qNdHJyY6vby4t6el0/TBB2Ne6TRptfBvf9N2dzGToXy+G8Zy7DU31996aRoAoJSTWa9YjOJx5BpLuACPEt7ziV42XE45zmRjSnnqYqfVG7mUF105TtF6kaaFIRcnJrDTTkh89a1W8HwQISLpOobO0fMgHNvHPtt1cUgOlu9jqNSzKt5xAMD/Zc/CEQJ0qo2ImEzKqVqvoEnLdfH1a3jyRMvl6NYtPx4/krblC3DdIDKJQgS2jZyGQOz+PEw+qTrcSZBMEvdL8oKMmxLGlJeATnGq2UQ+urHRwJ6kFN8yIYCfyKjOoomJdhs8L5CdrhNHS+GRaR2TxokJGhIH8PLE85Bv31nNAvF9cN1AJY5zpCbheUFiYlDeCyef7xWLQSIBnofNJrgu7O3hX/6iPXokonkBvoe6Hnz2PWaMb1S1Cnt7KGV3/1LPaKNx4PZDjr0sC+Jx0HXiVEXHevW+8ejv8jlLjgM6AJTL+Pe/a4hw+bI8OMCNDXHrlvzggyOxTtjmEAZex1eOYcuHpiFbNeiMHtV1QgTDoHicOivHgW/YdaFSwWYTslnZaomDgzOoe7MZqFbR9xERPQ+jvXgcISEe2SMUcoIBTIhgmsSxV6OBjQa0WsgVZdvGeBy4d1wImJ+XxSJVq7i1JS5elNHPmJcF6+vaDz+IQoEWF2U2e/LnkmOvbJb4r2saOE5ggDgt0Nd6cQi+sYGPHmlXr0odAGo1fPRI+D56HuzuikePRCrVG+v0tEX05L00LVgodeQFug6xWNDF1m6DYSAixGIQi4V5r668WKyNBroupFLkulguC9vGXI6aTTo8PJu2CtuGahW5aM3PQygX/iABgtVxFDwyeHyCPxeLQTxOh4fI8uLXlxJtG1IpSCQAADQNikVaWKDDQ/zpJygWIZnsvkKrhdUqvn6Ne3u4tiavX5enOTyL5aXrYFnBX3ddaLWg3cZEgo7LiyXBz+SPP4r//V/NMEhAx6iWy/jtt9rGxli9DNTdpQ2mCaaJvs9lBx4ARoYBvHLkC3IcXiFTLEYce0X/Cj+yDx5of/iDvr0tXBf299G2sVCAXK5/I9EbwLbx4AClJF0nz6Oocwz71Y43I4VfmagZOoy9PA/rdazVuA2QAKheh7AHU9NgYYGWl6lWw+1t7Nm6WKngs2eo63Dlilxakrlcb0VhIhwHo7EXl/IizrE39vI8qFbx2TPxpz9p332ntdtABLrjICJJCbbd3VUyErY3nJXgVBbHv2y9OBMWi4HjBNYrFkNOwMRiYStLN+9l27i/j8+f49aWuHVLxuNULqPjwMoK1evj9ltPFyJoNJD9smkSn54UXdBRZFxvlBPvcwxXjo0G1GrgOMGa1Lax2SSO5ISgTIZyOeLumnAlyB9HqYQbGyKfpwsXYG6O4vGTvnkACLL2HHuRZUGjEXyl3UaiI9aLY9NqFTc3xY8/iu+/F7VaICS9VoNWq5vPxfGO8iIC3yeWl2kGO2w5m8XWixMT3CzbboPrEssrHg9OWogukstlfPZMVKvdLVOVCggBuRwdHp7ZVspGA/j8+XicpETHoeGJupATOMdo3qteR85vmSYIAY0GNpvYboOUyJGuYVDPx8QF31IJX74Ui4v+5csylTrBO+7CnwKHWYkExOPcjci+6Ij14iup13FrS/z972JzU7Ra3WdOL5UEZziyWbpwgQ4PYWtrtLmIhPbE1otjOrZJfBdiMWg0ggti58g5VU6PhStQ9ssvXuDhYbCWlhJbLYzFKB6neBzDWZvQz1pMxP4+bm+LhQU5N0fDdwlwaH94iNksJRJBMWQcZ4fBzDOatJ3QNCkeRw5f6nWMxYKA2rahVArOiORMG3+uUT9j21gqIedj02nK5YgLvqeBTUDotRsNjr2CzTgccAsB8/O0vEyVCu7v4+am8DxYW5ONBmxvCwAQu7v46JGo13Fpif71X727d3sTOX0h4vwWdJ6nMJsAHXl1ExOtFssrCLwg4jgo2P+IL1+KWu2IdjhGDnv5p5L9evZM/Nu/6U+fao4zOufZbEKtBppGlkVcgxuvPkuRvNe4TwN/irFYEKVwbxYXNBsN3NnB9XWBCJcuUSrV5yKqVXj+HKWEy5dloUCcpp8KnZ4rjr2CjzK0XkLA2pq8c8cvlfC770S1igsL9OWX3kcfSU6qC9/nHDrEYpTLUTI51kAllgUvEjvN0Oj76PvIXwxD+3Y7yE2wEMO3zR+V40CthtGMZeS7yB0WlgUAUK9PYR9Vs4n7+7i9jVtbOKh/N3x33FRumkG8OLwXNyQSe42QY4895kiDdWzb4HmQToNpYr2OOzvi+XOh63Tlikyn+7xorYYvXggAXFuTvBjqGxTCqKeUndLmpvj6a217W3SukLv0IAztAcAwgo8+n6eFBSKCWg09DwwDcjlKpQIVCR6UOil0tNc+/Ar3soa5VkToxF5B8avnbbdayPFNLkes9x50PXhea7XeZO8JCENg7rIa9GPhlDy+s5w0dt1xizw882zkBxkWbcP0OueQOdfl+5jJgGlCrYY7O/jihdB1uHpVZjJ9XvTwEDc2BCKsrclsts+fC9ezI6/K9+GHH8S//7vx/LnovB2IxagjLw7TuWMCECGZDHxx35c9oQ2lyIyJni9KSUKAYSCvXDgxwfKKWi+m1YJyGREhn6dEIogTo5+iaQL38larvevwE1Mu48aGODwceK/bbahWEZEymaDdmbvZJrRew2IvjiX6rvB59IiUkM1SIkHtNuRy9NFHPg/m6Jtt4i5iTaPoMJUoug7sl+r1YU8pLwA5zOppAtV19kLhg3fkqeh7HxBBJ5IsMinJ81zf1wF03/dd1wXgR1YQCc/zpAQiXUrpuq7naZ6Hvi+llL4viUBKjUg4js/rGiGkEK6U0G5rrRa1WhSLSSGklL7nCSKNSLqu22iI/X3h+342S/v7eruNnue5LkipSUme5wkBySQ3dEM67bvuqfomfB8B9EoFHYfu3JGO4/WdrliriVJJA5DpNMViPiI5jtZqkeO4vJeLO8LDu3T0TwTC8n3d8+TxH2AcB5pN4bpoGBLAi9xtTUo+SkdalmMY2Grpq6vyn/7Jn5sLVgyuyzcQPc9rt33PQ8dBIono8z0/LmtEaVkgpaxUfCI5qFWrXhelkrBtEQ7V8n3f81xEgag5DjqOkBKkPPLGPQ+lDFRPJD3P830NUZdS4r17/8e21wAomfy+UPhjs3m1XP4yk/nffP4/AcDz0uXybzwvXyjcJxLl8pemuVco3HecRdu+o2llXd+LxfYARLn8pesW0unHiE67PWcYry3rsW1/Uq//KhbbM4w9orKmlRKJHc+bK5d/Y5qlfP4+wLLj/FO7vdVqbbfb1xBzCwtPDcPf3/8EsV4o3Pc8ODy8YJoZy0rq+vea9mKEgoZSrX5eLn8pZUuIw2Lxu2z2mZQ2Ue/jTHSR6FKlgo2Gb1n7pgmed0PTnGTyr7peQRTV6sel0q/z+T/ncv9z7HeRSGs03qtW/zmV+jaX+88B15IgytRqlyuVa9nsd7nctwDgedly+ctG4xYiJBLPstn7lUp5YwNzOVhelvF40PTmunPl8pdSxgqFrxKJhq4vlEoL29vFfP77YvFx3z/WaFwol28lk14+X0PcBtgZcFVLRFcqlUK5nBcio+tQKNy3rKeuG3Ocy677C8eZb7cxlfproXAfMcgteV62VPrStm8AoGU9KxTut9tL5fK9dPqJXiqVLWtN16lS2f3xx7/EYl4ud29jY+Phw/sAoOvFXO49Xddfvfo7opbLfVap7Dx9+mfTvGZZc5636bovHOc5opbLfaDrib29DSLbNB3H+aHR+M9UKp/N/rJerznOtu//5HkvHWdd1y/lcp953t73339tGDct66rnbfj+00Qiruvy0aMfpPQymVu+X1pf/waREonbiIsAc83mt+32X8eR0SDS6UI+/yWi43mHT5+u2/b/Izogsnt+zDTvmibqOgnh7O29lBITiazv2/X6Xzxvm0hkMplC4VcvXjyrVu/3/C6iQNQtS89mP9/f34j+gO8D54TicTKMjBALiYSXSs09e/a0VuO7vZjLvWdZt4igXC6tr3/jui8BYGcHdiJ6MIxLudxdIRIbG39z3YqmXUskbMuiV68eP3rUez1MPH47lbIqFXd9veS6T1x3ve+PGcYN04R43I3HESDmOPjkyRPb/pOmJeNxO53+wDDmAeCnn376xz/+FD6WhrFUKNyxrOtSYqlUXl//Jha7kc1+/urVK/z97/9vvV5cWJDz868LhadbW8UnT+5cvfr8xo2nANBqJZ48udNoJG/ffkyEjx/fyWRqt28/PjjIbm5eyGYb2WwtnT70fXzy5E6tllpe/skwvFYrlcsdLC1tPX9+5enTm5ZVS6UOi8V6Pl9LJA4PD9OPH99Jpeq3bz9+/Tr/6NGVGzdK16+Xd3YWDw6Suv7acWh390oq1bxz50ksRu12bnvb+umnxLVr26uru+OLKQqHdBsba99/fyeddtJpO5ncSqX2stl2PN7rv169mt/YKC4vy2LRN4xaswnPnl0Qwrt583ksZrdauLd35fXrm5cu/bC6+mPP7yIigHj1auXJk1uXLr28efMpf933oVLBhw81APj4YxmP69WqVa/P2fbC4uLm4uIrAGg2rSdP7mxvLyPCwsLurVuPU6na8fdSr6efPLnjefrt24+lbG9s5GKx1Px8KpV6bVlbfd9+s5mvVpfqdarX28vLlcXFg74/9vp17vnzhVTKyuUS29vJeh1u336ysrIFoJdK80+e3Dg8TAPA5csvbt16LEQQqDiOtb19a29vqVoV2ezenTuPDw+z6+u3isUtvVic931YXYWbNxeuXZv/29/EDz/oV69e/e1vLwLAwQFWKvreHn7yySdSwuamsbyc/PWv51++RMfRVlfp4kVaXJSeB6WS4ft4+fJaMgkHB3jx4vJHH90UQv/+e2FZmWIxffOmf+WKnJujzU2xuakvLCTv3Zv77jvx44/G2lrm3r2Ljx9rm5uYSOTrdajVtGIx9cUXuXSaajV8+FBUq9p77y19/rnPGWrbBgDIZoeV1VwXeHnI62TXBcPQX77EXM5YWMgsLKQWF2+srvZ2FRPB119r1ap2/bq8eVNaFh0cQL2u6zp88cVSJgMHB/jkibBtcefOtV/84srxv0sE33yjPXumX7kS3EYOpzY3RaWiI8Ivf+lZFm1u4u6u2N0Vd+9m7t69BQDlMlYq+v4+pFJ07drcvXtfzM/3CZJ2dnB/32i14PPPP/c8cBwtlYJr1+TS0lyx+F7fW1Eq4atXuLsr9vbwo4/8Dz7ov+j49lutWtWKRbp4UTqO5rr4/vvvf/rpbSJ4+VK4rra7KwHg7t3Ve/eWwvxovY4PHgiemDI/P//FF19sb4udHf3KlSs6b9ZbXZWLi3L8VC8RSokAFA2NicD3kVeO0dUEL7t4AXK8/S1sBbMssixstaBeD5rGONmYThMicmKC6w+7u/j4saZp9Itf+MXiwGs+OMC//EUDgE8+kfE42TZICbkcZbOUTJLvY6MBnterLSmh2cRqFbkqZRjUaAT5PM7d1+sgJaRSMtxD0ENP8xJE5k+1WsALaimD6gp3KEV/N52mO3fkzZuS+xSG025DqYTxuJyfH9YfwZOh9/epWhVDFuDtNhwc4IUL8uJF+eKF2Nnp9iTOz9O9ez4X13O5IwtYXad8nubnabfjWrgbHoD0lRU5N4fLy5TNTjCYmo6OMAm/GOZao/VO7mbpm5iAzj5bHmOUTFK1Kup11HXgoSuRLSGctoXXr5HrppZFt29LNmA9qz/uuXj+XDx9qpkmXbhAqRQ0myAlFAoym6VkMpgt2NMfzKbRdUFKNAzqXAOGDUjcBi0lpVLYN1EXfV8hLK/9fdFuB01j3NLDTX9hKsEwYHmZYjF586ZcWZFDdq8gEgByLbnRACJIpYZtpjJNSqdRCDg8hK0tzGYFJz85OwoA9Tru7+PWFto26joUCnTxopQSwjRbMkmD5KtpkMvR/DyFeU0uOgOA/tlnvpSQThNv1hgT6jd4nOvcbL2iL8Vtn+GeggH3CxIJsCxqtcC2IZUK5N7TW+y6uL4uHj7UGg00TapWsVbDbLa3p4+HLPzjH1q1ipkMvHolODcrJRQKlMmQZUGzydbryC86Dh4eIn9a0Wn1YQmLe4eIMJ2eYG8cz5/a2+uON/N9aLV6rZdl0Sef+J4HlgWx2MinnQd1o5SIiD1ljx4MA9LpYBTAw4fay5fiww/ljRt+Nhs0Ku7s4J/+pG9uIm8cjMXggw/k9euS9/4Ph+VVKBAbgiDjpQMi6HNzJ6nkhZa/p8eQC21CHGlz8DwYYr0Y7vxMJpH3qC0syHw+uO/RPyEl1GpYr+P8POVy9NNPqGnCsmRPLpHrmLUaLC/LZBL29vDgAGMxSqdpbg6SSTAM2tnBVgt7xnA6DhweAhFkMhTdbEidUQaui7yROpWiQc7xOL7P1oszw13rJQRbr+DHNA2i+5EG0ckFom2zKQ2+OMQ6cGRiWZDLweEhbG6KRAIA6NatwAU3m7Czg5UK8jtlxYz57rhRdG6Obt+WXEPjjiwYf6fQcSKHvhBA8M449uInKXy3XHtneQ26BYgQj0MyGWwYyeepUOi/D5if+Nu3/VgMvvtOtNt05UqfMIUI0mn47DOfCP78Z73VgkwGkkmYn5cc/fg+Nhq9zpHT1gCQzVJf3+R5UK9DIgHJZP8q1oB7BdUqlErdse2+j+120KE6adOfrkMuB0TEE1DG3GePCLkcXbnib2yIrS1cXxeNRtD7Gl7kyZoGWI7z8/SrX/lsJoTgvWt4QnkNir34EqOhPSJkMrS4SJYVeMae+vvIypsAAA+ySURBVFf469xCDQC6ToUC5fP96xsAoOswNxfUappN8Lygt5Gd18aGePZM7O+jrlM2G0z14eWClJTPk2EQFxC5chyl3Q6cYzbb3/fxJoV4nNJpGN96AYDvY7SDknNgpknR2GtMdB3yeWo28dUrLJWE6457KF0uR2trdHhIW1vQbvcJPU/c78TeMOzm4L08iHRCecl+wy955UhEQhyJsebm6OJFija4he3CrMVo9YpXi/k85XIDpxjoOqTT1JnME+y+5FEtjgPffqt9/bUmJaysSMMAACLiVkckolxOCsFVF2g2ex99x4HDQ4zHKZeDvvLidr98HlKpyeRFR9uAOfZKpXpXjuOg61QoyHJZPH2ql0oIY8sim6VYTL58Kfhe9S2JDneyY4KdGXqj31nfmiURcGewEBA+O6H1CleO/Lvz80c6STgO4BSD42B0GIZl0ccf+60WFotHAls2eLxNmXvcEME0A1NUqWAsBrkctVp4cAC2DUQwN0fLy5RIHLFP2JlmMKhf2XGgWoVYjGOvvs4Rm00komTyVC17bL2IiPe2TISuQz4P+TzoOi0uwq1b/o0bY3Xp8Xr8zh0/FqOnT0WzGZTDw893dVXevi1v3DjtVMWxYq9o/N6j6EjHBEbPFAq3bvNDwO9nYYEuXuwus3lhAhB0esVi3WEYiQR8+GGf98aX224HO8NYIqYJhQI5DpTLYFmQzUKzCZVKsDtvYYEuXKB4nGq1btsjT+cP387xUIOt18ICDXKOnRUfJRKn2ihxNO81sXPMZqlQoGQScjn5z//sj7MgAAge+1u35KVL0rb1H38UvKgPzfDKCv3mN944+bbhTCavvt8Km6F78l4cBvEDcf26jMdpZeVI/yTP9OEGNNfFcT6nbJauXpWNBjx5IjQNVlZkIgGmCfPzVKlAqSTSabm6Ss0mlsvYaoFh0OKivHgxCPkRYWGB1tbk5csjnkteGAIMtF59g84TwBuriPAE1gs6W4bu3fNjsZNMM0SEdBpyueCOjanOiV4/SEz0/R7TN/sQfoubUoQAgGDleFxeKytyZaX3d9l6OQ7U6+B5kEj0GdfRA8trext3dnB5mVZXybIoFqP5edlsip0dLBSQCGwbymVuToSlJVpYINMk08RcjtJpunvXLxZH9OJ6HjSbwVy4QT/Z0wY4KWHfZWcG7sTHLIbLwFzuhO1JQkAmQ7kcNJtQLmM6PYVG857XZ5PcK68wLUaRc6n6ymvwyhGFoCHbezSNtyOjbaPvB/16w8nn6do1Waloto35vLx4UVoW6DoUCrC/D5UK8s6nZhMPDnB5mebm5OJiYDKLRfqXf/EMAwqF0edk9W2TnCKd5Fm3X6/v7Z01XO+q1XgLICwuUrRD8PQMC+3DuGRI7AXQ10cEw+WOj9aIwrlE2w5Pqxu9MucZk4uLVKvR4iIVi8RNi+k0GQbvBAwSDQcHeOmSvH5d5vOBVUinqW9/+iD6GuzoI3RiOCowjGCrGS9a37y2+I9ms9RowPo6Og4PfkaOTadyPRx7ed4A69Vpa+5qqAfqd5Z2T95r0IV25iliq4Xx+FgxMs+l/uAD/+pV3nzcrTvx9gd2N80mHh6ipnEnxTTNfTRRd2IMg5aWKJulvT3c25tgVuDUYedo29BqYaOB1So5DiQSNJUDraBjvXy/n/Viv9apZ3XdZRQewAR9ao4oJY1jvXhmE4+FGSmvMC/c06AS/nXOdnLpiTdIjh/QcLasXseDA3z9us/5qUJQuJtjzI77vpgmLC3JTAb29nBnR5zJ8bAM10g4a1OvBztMEwmITno6DWy9ggk5Pd/oHCqBUhJvZjx+cNDwjonhO1S5CULTiOfcnSCveBzuJOFsO2t3/NvkusFwhL//XdvdRd/v/V324DzSg9suTkYsBhcukGnC06dib2+sYs7sCHMHnge1WlCRs6yxtiGO+eJ9Vo545KRxHB7a47GdQtHNj0P+djxOuh5M8bcsOL0j4yPgAKBQoHh83HvEzUI80eXHH8XWFsZicP267LGRPMYDAJtNsO2TD7TWNEgmgy033C5xhoQfKxswISiZDDZrTePFOZl3rOYYyqtzAHP/mkPfhhyAI7HXIDQN4nEwDPB9FOK0+UmGN7RBIK9xf4sIXBfKZXz4UHv1SngeXLwoP/3UX1k5YqBYFr5P4RriZCAGsz8BaPwN3LOG5ZVIQDpNicR0rBfigLQqBn2G3RkQiHB8t1b45B13jjzCZEhoL0RQCWE31HNa3cneTLOJu7s4P0/F4gTxKQ8B5A7StTU5N0erq3J1tXf+h6ZBKkWtFto2N2GPW0Lue6nR1M/bgO9DvQ7ZLDvHacZefZ1jkF4PD3eBAYtnOjbgKrpyHHKVHetFnIBNJE61yuML4IO7CgU5kfVyXdjeRsfhAqV8773+/cTsHGs1rFa54Hjaz4Dvz1siL8/Dep0ch8fETS32CoY1D/qG75PvUxhgHbdeoW2LfpF70oenVXlxxw6RpXYa61Uo0Mcf+ysr0rYBkfJ5OY68WJQ8jfHgAOfnaWlpoMo1jbi7q1aDVgss61RnOGSzdPeuvHlTTmuZdko4oeN5YFk0rUvihhwY4ByDv4oYZu37/M2+IQinyobHXlyNTiTAsvgtnWrlmM/T3bsSAHZ2tHgcMplxUxJCEBGUy5hMYqHgF4sDL4NjL9MkHqHGo2xPTDpNt2/7iFCt4pmfBcEfMcuL815TdI4Ax/q9EJFX9b6PoQHvu1P+OH23chyHX2plRf72t16YWz8xsRjlcvD++7JYpKUlGjMlIQRlMjA3R9UqR9zBTLYBP8yPAbpu0GV/mo/BMCCbhZs3Jfenn/Ltn5JoLDiVTq/wZXWdEMXAvFfYoDdRKaqnIWfIn5+fp/n5KWR+uEkylaJLlyb4La6KzM0Rb5se/jxwHtgwgglQ6TRN1LISDjBnOJJLJul4sf8Nw03Vi4sEALncNM+eFoI0DWG4cwyTW+OYhGghfIrPwYwQIjjtcn9/tHtC7P7XMCCdhomKJ+E5Bm/bbUkm6dNP/Zs3fQBIp+E0Y6R7GJKYoFBeEFk5Dr8vYfIi/PkZdRxMC5ZXsRgsM8d8eADAMCiTmSD9SAT7+/jypdB1KhbfrnPdTBMuXpzJcd8DV45Hs/bd7MM4r8jB8luy3h4O13Tn5iiRmOxJ4HljIxt7omxsiIcPRTYLH3447il57zrYaSfsI6+wpB1OB0WE4RORMTIH9Z2QF9d0CwW6dk2urcnxGz55P+pEhYFajVv2aHVVTqTLd5eBzdCR0B47of2wFHwIbyM7/fjTNwb7x88/94nGCjswOHKLUqnJVo78vPGQyLNdJ74xhnWrhs6RW6nGCaSwc5TSWxW6Doevue+o0r5ks/ThhzKdpmRyrKMM8eggk3AX53kgXA4Okxe3ngKI6G6zwS83bs7pHaVYpHv3vLCaNhwcvBnpPDBcXmHsxfU16sRew26qpnEm7Werr3D/3DhwTxsANBroefiWr6OnTpjK6SOvsKTt+9093SMTE9EjDhS8wZMIeAjPRKnpnwf8foeUtLuJiejACOi3/zESe51LZ3AMXSfLIt+Hcln4Pp8qetbX9MYRYkDeK+zcCuXV06h0XF6aNtmEsJ83fAyilFguo5TIx7ec9UW9afrnvTol7e7GmFA0bMbCg4OiYlLOMYquQzIJUsLBAQAEcwDPG/2tVzjegxV2tKhORMGRZtGG+ncxMTFTDAP4oKtqFQDgfMqrr/WiaNY+WtLm/5GST7yBeJzC0SP8LT4wWwGd2IsnvCFCKjV6s93PD0QaVnPkfY4QWWeyvHgsVk+XKacNz9sKfBDsHBGx0QjOC1axV/ClyD7H3tCeo36e4B3d4cPOUcVeIXxOoBB8XjAPAzvra3rj9Im9jiUmuhvRWENSBtsZoovtjnNU8grgMf2aBo7DDY/nMTExqGMC4EjeC6POkSjYqRzd4aPk1QPHXrwTXdfxvMZeo/q9pAQAijhH4jlHbL2it0zXVd6ri64H+zeJwDRJ5b26X4qE9uFOf4rGXq0WEGEiQRHnSJoGmqZWjgHsHHkyvmnyqdhnfU1vnHFir269rCMv4vkI0ck2Ku91HCFgbU3+7nfe1avybeuyfzOMbMg5krVHJE0jouBoiei5uir26oHvw9Wr8urVmTSzvxMMco4EwQm2GN2l3VFecDBOj8FXRSFFDyPTqkfG1IbfchwEOO4cSWXtFVFGx15SYjT24qUQHyV/NLQPflHJSxEyeuUYjb1CAfEhNonEkbFvKrRX9DAorcol7eCMp57YCzFov4yOHglD+yGDcRTnjb4NOdSpOfZpJ2T7xLvTooczqmZoxXH6WK/QA3a2chypOfJ2oPCXo2JSzlHRwwRZ+/BbofuLKqnTDN0tHykUI7pVw3bC8N+gyUrhyvF8pqcVfRmWtecjXsO8F3St18DXyuXo4499PglBoegvL14PhomJnl77IfIqFOhXv/JhjHlGivNAH3nxHCWIOEeIWK+RLalKWIqQ4SVt7MReFI29NA2GD2NSKJj+NUcOzzmnSnQkraoSp4rxGbZyDM/cg6OhvcqdKsakj3OEzmAqrmcTUT/nqFCMpk9aNaQz+ozPBA1+WmW2FOPTxzlGiZ6lHU2rKhTjMMx6wbFDG5VzVEzEaHlF59p3Vo7KOSrGYoS8wm20HetF0Y4JhWI4Y8VeELFew0/SUyiiTBx7KeeoGJ+xYq/w2AQV2ismYrRz7IT2BEBhYkIZMMU4TLByZHi2Ox8JplAMp39RKCQae2FnJvTqqvztbyGfVztmFSMYIa+wGTr0hogwN0dzc1M4RVbxs6dPQ04Iu8Xxz3NUKHoQYoT1wrAhRylMMSnj5r2UthQnYNyVo7JeihMwVt4LEdRBVIoTMHHeS6EYnwlqjkphikkZ4RwZFdorTsYI6xX+kFKY4gSMkJeug2mqnWeKkzNQXoig6xSLqf5BxckZZr0MA+Jx1eClODkj5BWLqeZ6xclR1ksxQ4bFXkpeilMy3HpRLKbkpTg5I52jir0UJ2dkaB+cYKVQnIAReS9lvRSnYRzr9cYuRvFzQ8VeihkyIjGhrJfiNIxITMTjpEJ7xYkZHXupcYSKE9NfO9yhqutgmir2Upyc/vscczm6ckXm8xSelq1QnID+8rpxQy4skBokoTglA61XLqciesVpUXG7YoYoeSlmiJKXYoYoeSlmiJKXYoYoeSlmiJKXYoYoeSlmiJKXYoYoeSlmiJKXYoYoeSlmiJKXYoYoeSlmiJKXYoYoeSlmiJKXYoYoeSlmiJKXYoYoeSlmiJKXYoYoeSlmiJKXYoYoeSlmiJKXYoYoeSlmiJKXYoYoeSlmiJKXYoYoeSlmiJKXYoYoeSlmiJKXYob8f9ulTmtUEbr4AAAAAElFTkSuQmCC;movable=1;resizable=1;rotatable=1;deletable=1;editable=1;locked=0;connectable=1;" parent="1" vertex="1">
                    <mxGeometry x="600.33" y="280" width="120" height="80" as="geometry"/>
                </mxCell>
                <mxCell id="5" value="" style="shape=image;verticalLabelPosition=bottom;labelBackgroundColor=default;verticalAlign=top;imageAspect=0;image=data:image/png,iVBORw0KGgoAAAANSUhEUgAAAMoAAAEUCAIAAADlRD4UAAAACXBIWXMAAA7EAAAOxAGVKw4bAAAgAElEQVR4nO2dWXMbV5LvM08tAAo7SHARqY3abcseb9HuHvW4J6I7or/o/QL3YSbmqa3umelx+063WnZrsU1JlGhSXAAQBFAAajl5H7JQKIJYSUCUzPMLhcPBBSwU/pWZJzNPHvzqq69AoZgN4qwvQPFzRslLMUOUvBQzRMlLMUOUvBQzRMlLMUOUvBQzRMlLMUOUvBQzRMlLMUOUvBQzRMlLMUOUvBQzRMlLMUOUvBQzRMlLMUOUvBQzRMlLMUOUvBQzRMlLMUOUvBQzRMlLMUOUvBQzRMlLMUOUvBQzRMlLMUOUvBQzRMlLMUOUvBQzRMlLMUOUvBQzRMlLMUOUvBQzRMlLMUP0s76AnxVEUCrhixcik6G1Namf+7urrNfUIAIieP0av/pKf/hQcxw86ys6e8798zU9pATHgXYbXRekPOureTtQ1mtqEIHjoOOAlEB01lfzdqDkNTV8H9ptaLdRma4QJa+pISW0Wug4ynR1UfKaGlJiuw3ttgq8uih5TQ0pod0Gx0FlvUKUvKaGlNBuo7JeUZS8poaU0GqBir2iKHlNjY71QiKVUA1Q8poaHHsp5xhFyWtq+D60Wmy9zvpS3hqUvKZGZ+WorFcXJa+pISW2WtBuq9C+i5LX1JCSa46qKNRFyWtqEIHrgusq69VFyWuaKGH1oOQ1NbidUCksipKXYoYoeSlmiJKXYoYoeSlmiJKXYoYoeSlmiJKXYoYoeSlmiJKXYoYoeSlmyFhDADwPWi1EhHicNG3Wl6T4+TBaXlLCwQE+eKAJAZ984udyqqimGJcRzpEIfB8OD/GHH8T6umg238xVKX4mjJZXu43NJnqe6gVQTMxoebVaYNvA8lIKU0zECHlJCc0mNBrg+2/mehQ/K0Zbr2YTbRs9T20NVUzMaOvVaoFto7JeihMwTuyFtq2co+IkjLRe2GxCo4Ge92auR/GzQlkvxQwZkbXngY6d0L5PWoIIPA+kBF0HVS9S9DBOWhVarYE7j10XHj7UvvpK39lRS0tFL6Pl5boDhwrxtvf1dfHggVapKHkpehndkMNT2vvm6z0P2m2V0FcMZKyGnEHS8Txst897OZKjz4MD3NlBddBLD6c69IWtl++f63tKBLUafvON9vixVqmgEGq+V5fTyqvVOtc5C45NGw3c20PbhgsXpOvC69eqBzjgVDeiY72mdTHvHp2aLBgGrKzQr3/tf/aZn0ye41jhKKe3Xue9HMlVDdOERIKKRSkEGsZZX9Nbwynlhcp6NZvYaIBhkGWBpgFi8O88L3dCTuscHedcWy+irvVKpYCPn0UMvqUUdip58RFz53mh1LFeLK8j26iUvOCU8nJdaLfxPCcmiMC2odEAw4BUinQdEEEIAgDfP9cPHnNK54itFpznXp2I9aJkkjSNEIMITEpQp7+oxMSp4JJ/swmGAclkEHsJEcrrrK/vrDmtvM55WhUgmGVvGBCPEwtLCADlHAFgGitHcc7lxSE8q4pTEsp6hZw29lI1R+iU/DkfwbEXAEiprJdyjtMmtF6+r6zX2PJis9+D56kDwPrQcY7q5L3x5BUWOiDS+8XTTc551v44YWivnCOMX3MUAhCJV0N8+wZlpctlfPlStFoAABcu0KVL5+seh85RZe1hTHlxJprjCd8HIYAoWBkdd5o7O/iHP2ilkgCAL7/0zpu8ADhrT2rlCOPLS9dBCPB99H0yjEBeAHC8OdP3od1Gtl6uO/ULftuJhvbKOY4rL01jeYHvIxERgZTYsWq9MX8ovnNItOaorNe4oT3vkmXnCEFcTwAgxHF1nRfCpygaIUTSqmrlOIm82A/yQxl1judWXlIGKWVNA8RAStGStpTn9dZ0GDfvxc7R87rWi+8dh/znE9eFZhOECKqNTDQxoazX+LEXrxzR90lZL8Z1sdnkeexH5mu8PTVHbug4PETDgEzmDIbGj+kcKRJ7IXRyqnC+5eU40GyipkEiQXrnOQ1rjme+cmQrsLsr/vhH/cEDrd0+g89popUjcWhPBERB3Mrp1tle49uK66JtgxBkWRgahrfHOfIezIMDfPFCOI48k65PMc4tiOS9ugXsMPaa5eW91TgO2DYIwdarG9qHzvFsrRcPz+J24rM6Rl6XcvRcrkje60jsFd7KcZASmk3c3kYAWFmhROKd1yU7R5ZXj/Viz3i21ounejebyJ+X64Lvg36qnYcTM1YzICLoOvFdYxs7aWjPsVq5DP/zP9rXX2vV6umu+u3AccC2OfY68rG9JaG974NtQ6sVFEAd5wwmmOpjyysI7dknTiovKaFex1JJVCpomrw+eOetF8deySRY1hHrpWlBBudsnaPvo20jywsAWi1wXYzHp3DbeaLgzg6WSnj1qlxaGviaYpxe06NFod606jhICdUqlkrYbv98ctmd2Iui1uutir2aTWy1kJNK7fbUSsCtFpbL+OCB9h//oW9sDFPA+M7xSGgfTUyMozDfh4MD3N/HdnusN/BOEMZelkWaFob29JYUhTj2areDzy4c9Hd6dnbwm2+0V6+E66Lj4JCWUn0cf3w8tOfqEAT1kNGvICWyvByn2wv1rifMXBcHxF4EgG9H7IVReZ3MekkZBNzhaJbdXXzwQPM8iMWIx9gkEtTXykwQe/VYr2jsNVIoUkK1CuUySgmaRq5LrguG8a4qjB8Px4FWKygK9awcEadmKk6M70OziY6DsRjoOrXb6LqTXVA4ePHxYw2R7t6V6TR5HkqJug65HOXz1GrBxoZYXZX5fJ8Xn2DlGHZM9MRe/C9sMOyLlNBoYK0W/Irrouuefc3kxHBs4HngeaBpEIt1I4S3YacQL6QqFaxW0XEgHifDAMcB153saeY96Ds74ttvxePHWqOBUgJ/cIYB8/N06ZJst/HlS9Fo9H/liUP70JmGaVXDAF0n3wfHGaYY9oamCboOngeu+w7H+K4Lto0AgVvsacjhf2cYezWb+Ne/avfv65ub6HnYkdfEiQnPg50dfPUKWVjcx8CfsmlSsUhXrkjXhc1NbDT6v8K4sZeugxDkeej7QUUotF6GQYbB2zpGZO0Q0TCkroProufRuysvzwtuqGXRcRcfKQqNeHRrNTw46KqQPY5lnfa+uC68fIkvXohcjubnZSZDQkC9jpPGXqG8bBsyGYDOqHkiME3IZmlhgaSEcnngzOJxY69otyp0Yi/+OhskKdF1UcpubYSJhvCIZJqg6+S64DiTvdW3CrZeiGBZEJaDmIl2Cm1siP/+by38CNJp+uUv/WvXpvDYEUEmQ1984S8uStuGSgUdBydyjkTguri7K376STSbQZ4y9FGmSbEYcVQwJCg6SWIiGntpGhgGmSY7x+6DyL8CRxsHhADTBE0D14V3OvYKnWMyST2jLicaAlCtwvPnghtmKhV89UrU61NzqaZJy8tyZYUyme7KcfwX5/k0rdaRM1mkDHa2sk3hjNoQxpVXNK0KkbwXWy/D6N1Sy04T4MhGSEQwDNB1lte7HXs1GoAIlkU98cBE8uKn9OZN+fvfe5cvy7DwPMU7IwTEYqBpEycmeF2saUeaJVleAGSavW+8L/qYHROaRsdL2hDICHQ9MJth+y/LDgDa7SOrqk5oj647IvY6OMDNTWGatLBAiQTFYqOv843hechrJcuiHucIAJo2Wd4rmaSFBZlOi/A2mmaflM3mpuCGgEQCVldlLjfWq2sauzA+4GJc58iesdUKsnphJNNZOaJpQphJHsKkG9ECoxVNqwrB8sJ2m0Lrxct1rkWwzqBj0rgkN9J67e7i/ftaLkeffuovLkIs9hbZOnaOpkmWBQOcI/n+wHO++mIYEIsRb+Pjh7mHx4/Ff/2XBgDFIv3udzSmvELr5TiTWq9QXhQuDH0/+OA4yBnJBPIKt9GyLMJ2Qk0DXScpIQzt2dqxvWm3wbIwfB22Xp04YFhh2/Og0cBGA3Ud3n9f5vNnMGug3Yb1dWHbuLYmC4Xupbou1OswNwfJ5KmcY/S3TBPicfI8aDYhFutVLV9Mvc4B3wQTIYUA0yQhJk5MOA40m6BplEh0myWjK8epyQsgeK2jWzmCrxsGRZwjQEeOpkkAPHw1SGqz9dJ1qNdHJyY6vby4t6el0/TBB2Ne6TRptfBvf9N2dzGToXy+G8Zy7DU31996aRoAoJSTWa9YjOJx5BpLuACPEt7ziV42XE45zmRjSnnqYqfVG7mUF105TtF6kaaFIRcnJrDTTkh89a1W8HwQISLpOobO0fMgHNvHPtt1cUgOlu9jqNSzKt5xAMD/Zc/CEQJ0qo2ImEzKqVqvoEnLdfH1a3jyRMvl6NYtPx4/krblC3DdIDKJQgS2jZyGQOz+PEw+qTrcSZBMEvdL8oKMmxLGlJeATnGq2UQ+urHRwJ6kFN8yIYCfyKjOoomJdhs8L5CdrhNHS+GRaR2TxokJGhIH8PLE85Bv31nNAvF9cN1AJY5zpCbheUFiYlDeCyef7xWLQSIBnofNJrgu7O3hX/6iPXokonkBvoe6Hnz2PWaMb1S1Cnt7KGV3/1LPaKNx4PZDjr0sC+Jx0HXiVEXHevW+8ejv8jlLjgM6AJTL+Pe/a4hw+bI8OMCNDXHrlvzggyOxTtjmEAZex1eOYcuHpiFbNeiMHtV1QgTDoHicOivHgW/YdaFSwWYTslnZaomDgzOoe7MZqFbR9xERPQ+jvXgcISEe2SMUcoIBTIhgmsSxV6OBjQa0WsgVZdvGeBy4d1wImJ+XxSJVq7i1JS5elNHPmJcF6+vaDz+IQoEWF2U2e/LnkmOvbJb4r2saOE5ggDgt0Nd6cQi+sYGPHmlXr0odAGo1fPRI+D56HuzuikePRCrVG+v0tEX05L00LVgodeQFug6xWNDF1m6DYSAixGIQi4V5r668WKyNBroupFLkulguC9vGXI6aTTo8PJu2CtuGahW5aM3PQygX/iABgtVxFDwyeHyCPxeLQTxOh4fI8uLXlxJtG1IpSCQAADQNikVaWKDDQ/zpJygWIZnsvkKrhdUqvn6Ne3u4tiavX5enOTyL5aXrYFnBX3ddaLWg3cZEgo7LiyXBz+SPP4r//V/NMEhAx6iWy/jtt9rGxli9DNTdpQ2mCaaJvs9lBx4ARoYBvHLkC3IcXiFTLEYce0X/Cj+yDx5of/iDvr0tXBf299G2sVCAXK5/I9EbwLbx4AClJF0nz6Oocwz71Y43I4VfmagZOoy9PA/rdazVuA2QAKheh7AHU9NgYYGWl6lWw+1t7Nm6WKngs2eo63Dlilxakrlcb0VhIhwHo7EXl/IizrE39vI8qFbx2TPxpz9p332ntdtABLrjICJJCbbd3VUyErY3nJXgVBbHv2y9OBMWi4HjBNYrFkNOwMRiYStLN+9l27i/j8+f49aWuHVLxuNULqPjwMoK1evj9ltPFyJoNJD9smkSn54UXdBRZFxvlBPvcwxXjo0G1GrgOMGa1Lax2SSO5ISgTIZyOeLumnAlyB9HqYQbGyKfpwsXYG6O4vGTvnkACLL2HHuRZUGjEXyl3UaiI9aLY9NqFTc3xY8/iu+/F7VaICS9VoNWq5vPxfGO8iIC3yeWl2kGO2w5m8XWixMT3CzbboPrEssrHg9OWogukstlfPZMVKvdLVOVCggBuRwdHp7ZVspGA/j8+XicpETHoeGJupATOMdo3qteR85vmSYIAY0GNpvYboOUyJGuYVDPx8QF31IJX74Ui4v+5csylTrBO+7CnwKHWYkExOPcjci+6Ij14iup13FrS/z972JzU7Ra3WdOL5UEZziyWbpwgQ4PYWtrtLmIhPbE1otjOrZJfBdiMWg0ggti58g5VU6PhStQ9ssvXuDhYbCWlhJbLYzFKB6neBzDWZvQz1pMxP4+bm+LhQU5N0fDdwlwaH94iNksJRJBMWQcZ4fBzDOatJ3QNCkeRw5f6nWMxYKA2rahVArOiORMG3+uUT9j21gqIedj02nK5YgLvqeBTUDotRsNjr2CzTgccAsB8/O0vEyVCu7v4+am8DxYW5ONBmxvCwAQu7v46JGo13Fpif71X727d3sTOX0h4vwWdJ6nMJsAHXl1ExOtFssrCLwg4jgo2P+IL1+KWu2IdjhGDnv5p5L9evZM/Nu/6U+fao4zOufZbEKtBppGlkVcgxuvPkuRvNe4TwN/irFYEKVwbxYXNBsN3NnB9XWBCJcuUSrV5yKqVXj+HKWEy5dloUCcpp8KnZ4rjr2CjzK0XkLA2pq8c8cvlfC770S1igsL9OWX3kcfSU6qC9/nHDrEYpTLUTI51kAllgUvEjvN0Oj76PvIXwxD+3Y7yE2wEMO3zR+V40CthtGMZeS7yB0WlgUAUK9PYR9Vs4n7+7i9jVtbOKh/N3x33FRumkG8OLwXNyQSe42QY4895kiDdWzb4HmQToNpYr2OOzvi+XOh63Tlikyn+7xorYYvXggAXFuTvBjqGxTCqKeUndLmpvj6a217W3SukLv0IAztAcAwgo8+n6eFBSKCWg09DwwDcjlKpQIVCR6UOil0tNc+/Ar3soa5VkToxF5B8avnbbdayPFNLkes9x50PXhea7XeZO8JCENg7rIa9GPhlDy+s5w0dt1xizw882zkBxkWbcP0OueQOdfl+5jJgGlCrYY7O/jihdB1uHpVZjJ9XvTwEDc2BCKsrclsts+fC9ezI6/K9+GHH8S//7vx/LnovB2IxagjLw7TuWMCECGZDHxx35c9oQ2lyIyJni9KSUKAYSCvXDgxwfKKWi+m1YJyGREhn6dEIogTo5+iaQL38larvevwE1Mu48aGODwceK/bbahWEZEymaDdmbvZJrRew2IvjiX6rvB59IiUkM1SIkHtNuRy9NFHPg/m6Jtt4i5iTaPoMJUoug7sl+r1YU8pLwA5zOppAtV19kLhg3fkqeh7HxBBJ5IsMinJ81zf1wF03/dd1wXgR1YQCc/zpAQiXUrpuq7naZ6Hvi+llL4viUBKjUg4js/rGiGkEK6U0G5rrRa1WhSLSSGklL7nCSKNSLqu22iI/X3h+342S/v7eruNnue5LkipSUme5wkBySQ3dEM67bvuqfomfB8B9EoFHYfu3JGO4/WdrliriVJJA5DpNMViPiI5jtZqkeO4vJeLO8LDu3T0TwTC8n3d8+TxH2AcB5pN4bpoGBLAi9xtTUo+SkdalmMY2Grpq6vyn/7Jn5sLVgyuyzcQPc9rt33PQ8dBIono8z0/LmtEaVkgpaxUfCI5qFWrXhelkrBtEQ7V8n3f81xEgag5DjqOkBKkPPLGPQ+lDFRPJD3P830NUZdS4r17/8e21wAomfy+UPhjs3m1XP4yk/nffP4/AcDz0uXybzwvXyjcJxLl8pemuVco3HecRdu+o2llXd+LxfYARLn8pesW0unHiE67PWcYry3rsW1/Uq//KhbbM4w9orKmlRKJHc+bK5d/Y5qlfP4+wLLj/FO7vdVqbbfb1xBzCwtPDcPf3/8EsV4o3Pc8ODy8YJoZy0rq+vea9mKEgoZSrX5eLn8pZUuIw2Lxu2z2mZQ2Ue/jTHSR6FKlgo2Gb1n7pgmed0PTnGTyr7peQRTV6sel0q/z+T/ncv9z7HeRSGs03qtW/zmV+jaX+88B15IgytRqlyuVa9nsd7nctwDgedly+ctG4xYiJBLPstn7lUp5YwNzOVhelvF40PTmunPl8pdSxgqFrxKJhq4vlEoL29vFfP77YvFx3z/WaFwol28lk14+X0PcBtgZcFVLRFcqlUK5nBcio+tQKNy3rKeuG3Ocy677C8eZb7cxlfproXAfMcgteV62VPrStm8AoGU9KxTut9tL5fK9dPqJXiqVLWtN16lS2f3xx7/EYl4ud29jY+Phw/sAoOvFXO49Xddfvfo7opbLfVap7Dx9+mfTvGZZc5636bovHOc5opbLfaDrib29DSLbNB3H+aHR+M9UKp/N/rJerznOtu//5HkvHWdd1y/lcp953t73339tGDct66rnbfj+00Qiruvy0aMfpPQymVu+X1pf/waREonbiIsAc83mt+32X8eR0SDS6UI+/yWi43mHT5+u2/b/Izogsnt+zDTvmibqOgnh7O29lBITiazv2/X6Xzxvm0hkMplC4VcvXjyrVu/3/C6iQNQtS89mP9/f34j+gO8D54TicTKMjBALiYSXSs09e/a0VuO7vZjLvWdZt4igXC6tr3/jui8BYGcHdiJ6MIxLudxdIRIbG39z3YqmXUskbMuiV68eP3rUez1MPH47lbIqFXd9veS6T1x3ve+PGcYN04R43I3HESDmOPjkyRPb/pOmJeNxO53+wDDmAeCnn376xz/+FD6WhrFUKNyxrOtSYqlUXl//Jha7kc1+/urVK/z97/9vvV5cWJDz868LhadbW8UnT+5cvfr8xo2nANBqJZ48udNoJG/ffkyEjx/fyWRqt28/PjjIbm5eyGYb2WwtnT70fXzy5E6tllpe/skwvFYrlcsdLC1tPX9+5enTm5ZVS6UOi8V6Pl9LJA4PD9OPH99Jpeq3bz9+/Tr/6NGVGzdK16+Xd3YWDw6Suv7acWh390oq1bxz50ksRu12bnvb+umnxLVr26uru+OLKQqHdBsba99/fyeddtJpO5ncSqX2stl2PN7rv169mt/YKC4vy2LRN4xaswnPnl0Qwrt583ksZrdauLd35fXrm5cu/bC6+mPP7yIigHj1auXJk1uXLr28efMpf933oVLBhw81APj4YxmP69WqVa/P2fbC4uLm4uIrAGg2rSdP7mxvLyPCwsLurVuPU6na8fdSr6efPLnjefrt24+lbG9s5GKx1Px8KpV6bVlbfd9+s5mvVpfqdarX28vLlcXFg74/9vp17vnzhVTKyuUS29vJeh1u336ysrIFoJdK80+e3Dg8TAPA5csvbt16LEQQqDiOtb19a29vqVoV2ezenTuPDw+z6+u3isUtvVic931YXYWbNxeuXZv/29/EDz/oV69e/e1vLwLAwQFWKvreHn7yySdSwuamsbyc/PWv51++RMfRVlfp4kVaXJSeB6WS4ft4+fJaMgkHB3jx4vJHH90UQv/+e2FZmWIxffOmf+WKnJujzU2xuakvLCTv3Zv77jvx44/G2lrm3r2Ljx9rm5uYSOTrdajVtGIx9cUXuXSaajV8+FBUq9p77y19/rnPGWrbBgDIZoeV1VwXeHnI62TXBcPQX77EXM5YWMgsLKQWF2+srvZ2FRPB119r1ap2/bq8eVNaFh0cQL2u6zp88cVSJgMHB/jkibBtcefOtV/84srxv0sE33yjPXumX7kS3EYOpzY3RaWiI8Ivf+lZFm1u4u6u2N0Vd+9m7t69BQDlMlYq+v4+pFJ07drcvXtfzM/3CZJ2dnB/32i14PPPP/c8cBwtlYJr1+TS0lyx+F7fW1Eq4atXuLsr9vbwo4/8Dz7ov+j49lutWtWKRbp4UTqO5rr4/vvvf/rpbSJ4+VK4rra7KwHg7t3Ve/eWwvxovY4PHgiemDI/P//FF19sb4udHf3KlSs6b9ZbXZWLi3L8VC8RSokAFA2NicD3kVeO0dUEL7t4AXK8/S1sBbMssixstaBeD5rGONmYThMicmKC6w+7u/j4saZp9Itf+MXiwGs+OMC//EUDgE8+kfE42TZICbkcZbOUTJLvY6MBnterLSmh2cRqFbkqZRjUaAT5PM7d1+sgJaRSMtxD0ENP8xJE5k+1WsALaimD6gp3KEV/N52mO3fkzZuS+xSG025DqYTxuJyfH9YfwZOh9/epWhVDFuDtNhwc4IUL8uJF+eKF2Nnp9iTOz9O9ez4X13O5IwtYXad8nubnabfjWrgbHoD0lRU5N4fLy5TNTjCYmo6OMAm/GOZao/VO7mbpm5iAzj5bHmOUTFK1Kup11HXgoSuRLSGctoXXr5HrppZFt29LNmA9qz/uuXj+XDx9qpkmXbhAqRQ0myAlFAoym6VkMpgt2NMfzKbRdUFKNAzqXAOGDUjcBi0lpVLYN1EXfV8hLK/9fdFuB01j3NLDTX9hKsEwYHmZYjF586ZcWZFDdq8gEgByLbnRACJIpYZtpjJNSqdRCDg8hK0tzGYFJz85OwoA9Tru7+PWFto26joUCnTxopQSwjRbMkmD5KtpkMvR/DyFeU0uOgOA/tlnvpSQThNv1hgT6jd4nOvcbL2iL8Vtn+GeggH3CxIJsCxqtcC2IZUK5N7TW+y6uL4uHj7UGg00TapWsVbDbLa3p4+HLPzjH1q1ipkMvHolODcrJRQKlMmQZUGzydbryC86Dh4eIn9a0Wn1YQmLe4eIMJ2eYG8cz5/a2+uON/N9aLV6rZdl0Sef+J4HlgWx2MinnQd1o5SIiD1ljx4MA9LpYBTAw4fay5fiww/ljRt+Nhs0Ku7s4J/+pG9uIm8cjMXggw/k9euS9/4Ph+VVKBAbgiDjpQMi6HNzJ6nkhZa/p8eQC21CHGlz8DwYYr0Y7vxMJpH3qC0syHw+uO/RPyEl1GpYr+P8POVy9NNPqGnCsmRPLpHrmLUaLC/LZBL29vDgAGMxSqdpbg6SSTAM2tnBVgt7xnA6DhweAhFkMhTdbEidUQaui7yROpWiQc7xOL7P1oszw13rJQRbr+DHNA2i+5EG0ckFom2zKQ2+OMQ6cGRiWZDLweEhbG6KRAIA6NatwAU3m7Czg5UK8jtlxYz57rhRdG6Obt+WXEPjjiwYf6fQcSKHvhBA8M449uInKXy3XHtneQ26BYgQj0MyGWwYyeepUOi/D5if+Nu3/VgMvvtOtNt05UqfMIUI0mn47DOfCP78Z73VgkwGkkmYn5cc/fg+Nhq9zpHT1gCQzVJf3+R5UK9DIgHJZP8q1oB7BdUqlErdse2+j+120KE6adOfrkMuB0TEE1DG3GePCLkcXbnib2yIrS1cXxeNRtD7Gl7kyZoGWI7z8/SrX/lsJoTgvWt4QnkNir34EqOhPSJkMrS4SJYVeMae+vvIypsAAA+ySURBVFf469xCDQC6ToUC5fP96xsAoOswNxfUappN8Lygt5Gd18aGePZM7O+jrlM2G0z14eWClJTPk2EQFxC5chyl3Q6cYzbb3/fxJoV4nNJpGN96AYDvY7SDknNgpknR2GtMdB3yeWo28dUrLJWE6457KF0uR2trdHhIW1vQbvcJPU/c78TeMOzm4L08iHRCecl+wy955UhEQhyJsebm6OJFija4he3CrMVo9YpXi/k85XIDpxjoOqTT1JnME+y+5FEtjgPffqt9/bUmJaysSMMAACLiVkckolxOCsFVF2g2ex99x4HDQ4zHKZeDvvLidr98HlKpyeRFR9uAOfZKpXpXjuOg61QoyHJZPH2ql0oIY8sim6VYTL58Kfhe9S2JDneyY4KdGXqj31nfmiURcGewEBA+O6H1CleO/Lvz80c6STgO4BSD42B0GIZl0ccf+60WFotHAls2eLxNmXvcEME0A1NUqWAsBrkctVp4cAC2DUQwN0fLy5RIHLFP2JlmMKhf2XGgWoVYjGOvvs4Rm00komTyVC17bL2IiPe2TISuQz4P+TzoOi0uwq1b/o0bY3Xp8Xr8zh0/FqOnT0WzGZTDw893dVXevi1v3DjtVMWxYq9o/N6j6EjHBEbPFAq3bvNDwO9nYYEuXuwus3lhAhB0esVi3WEYiQR8+GGf98aX224HO8NYIqYJhQI5DpTLYFmQzUKzCZVKsDtvYYEuXKB4nGq1btsjT+cP387xUIOt18ICDXKOnRUfJRKn2ihxNO81sXPMZqlQoGQScjn5z//sj7MgAAge+1u35KVL0rb1H38UvKgPzfDKCv3mN944+bbhTCavvt8Km6F78l4cBvEDcf26jMdpZeVI/yTP9OEGNNfFcT6nbJauXpWNBjx5IjQNVlZkIgGmCfPzVKlAqSTSabm6Ss0mlsvYaoFh0OKivHgxCPkRYWGB1tbk5csjnkteGAIMtF59g84TwBuriPAE1gs6W4bu3fNjsZNMM0SEdBpyueCOjanOiV4/SEz0/R7TN/sQfoubUoQAgGDleFxeKytyZaX3d9l6OQ7U6+B5kEj0GdfRA8trext3dnB5mVZXybIoFqP5edlsip0dLBSQCGwbymVuToSlJVpYINMk08RcjtJpunvXLxZH9OJ6HjSbwVy4QT/Z0wY4KWHfZWcG7sTHLIbLwFzuhO1JQkAmQ7kcNJtQLmM6PYVG857XZ5PcK68wLUaRc6n6ymvwyhGFoCHbezSNtyOjbaPvB/16w8nn6do1Waloto35vLx4UVoW6DoUCrC/D5UK8s6nZhMPDnB5mebm5OJiYDKLRfqXf/EMAwqF0edk9W2TnCKd5Fm3X6/v7Z01XO+q1XgLICwuUrRD8PQMC+3DuGRI7AXQ10cEw+WOj9aIwrlE2w5Pqxu9MucZk4uLVKvR4iIVi8RNi+k0GQbvBAwSDQcHeOmSvH5d5vOBVUinqW9/+iD6GuzoI3RiOCowjGCrGS9a37y2+I9ms9RowPo6Og4PfkaOTadyPRx7ed4A69Vpa+5qqAfqd5Z2T95r0IV25iliq4Xx+FgxMs+l/uAD/+pV3nzcrTvx9gd2N80mHh6ipnEnxTTNfTRRd2IMg5aWKJulvT3c25tgVuDUYedo29BqYaOB1So5DiQSNJUDraBjvXy/n/Viv9apZ3XdZRQewAR9ao4oJY1jvXhmE4+FGSmvMC/c06AS/nXOdnLpiTdIjh/QcLasXseDA3z9us/5qUJQuJtjzI77vpgmLC3JTAb29nBnR5zJ8bAM10g4a1OvBztMEwmITno6DWy9ggk5Pd/oHCqBUhJvZjx+cNDwjonhO1S5CULTiOfcnSCveBzuJOFsO2t3/NvkusFwhL//XdvdRd/v/V324DzSg9suTkYsBhcukGnC06dib2+sYs7sCHMHnge1WlCRs6yxtiGO+eJ9Vo545KRxHB7a47GdQtHNj0P+djxOuh5M8bcsOL0j4yPgAKBQoHh83HvEzUI80eXHH8XWFsZicP267LGRPMYDAJtNsO2TD7TWNEgmgy033C5xhoQfKxswISiZDDZrTePFOZl3rOYYyqtzAHP/mkPfhhyAI7HXIDQN4nEwDPB9FOK0+UmGN7RBIK9xf4sIXBfKZXz4UHv1SngeXLwoP/3UX1k5YqBYFr5P4RriZCAGsz8BaPwN3LOG5ZVIQDpNicR0rBfigLQqBn2G3RkQiHB8t1b45B13jjzCZEhoL0RQCWE31HNa3cneTLOJu7s4P0/F4gTxKQ8B5A7StTU5N0erq3J1tXf+h6ZBKkWtFto2N2GPW0Lue6nR1M/bgO9DvQ7ZLDvHacZefZ1jkF4PD3eBAYtnOjbgKrpyHHKVHetFnIBNJE61yuML4IO7CgU5kfVyXdjeRsfhAqV8773+/cTsHGs1rFa54Hjaz4Dvz1siL8/Dep0ch8fETS32CoY1D/qG75PvUxhgHbdeoW2LfpF70oenVXlxxw6RpXYa61Uo0Mcf+ysr0rYBkfJ5OY68WJQ8jfHgAOfnaWlpoMo1jbi7q1aDVgss61RnOGSzdPeuvHlTTmuZdko4oeN5YFk0rUvihhwY4ByDv4oYZu37/M2+IQinyobHXlyNTiTAsvgtnWrlmM/T3bsSAHZ2tHgcMplxUxJCEBGUy5hMYqHgF4sDL4NjL9MkHqHGo2xPTDpNt2/7iFCt4pmfBcEfMcuL815TdI4Ax/q9EJFX9b6PoQHvu1P+OH23chyHX2plRf72t16YWz8xsRjlcvD++7JYpKUlGjMlIQRlMjA3R9UqR9zBTLYBP8yPAbpu0GV/mo/BMCCbhZs3Jfenn/Ltn5JoLDiVTq/wZXWdEMXAvFfYoDdRKaqnIWfIn5+fp/n5KWR+uEkylaJLlyb4La6KzM0Rb5se/jxwHtgwgglQ6TRN1LISDjBnOJJLJul4sf8Nw03Vi4sEALncNM+eFoI0DWG4cwyTW+OYhGghfIrPwYwQIjjtcn9/tHtC7P7XMCCdhomKJ+E5Bm/bbUkm6dNP/Zs3fQBIp+E0Y6R7GJKYoFBeEFk5Dr8vYfIi/PkZdRxMC5ZXsRgsM8d8eADAMCiTmSD9SAT7+/jypdB1KhbfrnPdTBMuXpzJcd8DV45Hs/bd7MM4r8jB8luy3h4O13Tn5iiRmOxJ4HljIxt7omxsiIcPRTYLH3447il57zrYaSfsI6+wpB1OB0WE4RORMTIH9Z2QF9d0CwW6dk2urcnxGz55P+pEhYFajVv2aHVVTqTLd5eBzdCR0B47of2wFHwIbyM7/fjTNwb7x88/94nGCjswOHKLUqnJVo78vPGQyLNdJ74xhnWrhs6RW6nGCaSwc5TSWxW6Doevue+o0r5ks/ThhzKdpmRyrKMM8eggk3AX53kgXA4Okxe3ngKI6G6zwS83bs7pHaVYpHv3vLCaNhwcvBnpPDBcXmHsxfU16sRew26qpnEm7Werr3D/3DhwTxsANBroefiWr6OnTpjK6SOvsKTt+9093SMTE9EjDhS8wZMIeAjPRKnpnwf8foeUtLuJiejACOi3/zESe51LZ3AMXSfLIt+Hcln4Pp8qetbX9MYRYkDeK+zcCuXV06h0XF6aNtmEsJ83fAyilFguo5TIx7ec9UW9afrnvTol7e7GmFA0bMbCg4OiYlLOMYquQzIJUsLBAQAEcwDPG/2tVzjegxV2tKhORMGRZtGG+ncxMTFTDAP4oKtqFQDgfMqrr/WiaNY+WtLm/5GST7yBeJzC0SP8LT4wWwGd2IsnvCFCKjV6s93PD0QaVnPkfY4QWWeyvHgsVk+XKacNz9sKfBDsHBGx0QjOC1axV/ClyD7H3tCeo36e4B3d4cPOUcVeIXxOoBB8XjAPAzvra3rj9Im9jiUmuhvRWENSBtsZoovtjnNU8grgMf2aBo7DDY/nMTExqGMC4EjeC6POkSjYqRzd4aPk1QPHXrwTXdfxvMZeo/q9pAQAijhH4jlHbL2it0zXVd6ri64H+zeJwDRJ5b26X4qE9uFOf4rGXq0WEGEiQRHnSJoGmqZWjgHsHHkyvmnyqdhnfU1vnHFir269rCMv4vkI0ck2Ku91HCFgbU3+7nfe1avybeuyfzOMbMg5krVHJE0jouBoiei5uir26oHvw9Wr8urVmTSzvxMMco4EwQm2GN2l3VFecDBOj8FXRSFFDyPTqkfG1IbfchwEOO4cSWXtFVFGx15SYjT24qUQHyV/NLQPflHJSxEyeuUYjb1CAfEhNonEkbFvKrRX9DAorcol7eCMp57YCzFov4yOHglD+yGDcRTnjb4NOdSpOfZpJ2T7xLvTooczqmZoxXH6WK/QA3a2chypOfJ2oPCXo2JSzlHRwwRZ+/BbofuLKqnTDN0tHykUI7pVw3bC8N+gyUrhyvF8pqcVfRmWtecjXsO8F3St18DXyuXo4499PglBoegvL14PhomJnl77IfIqFOhXv/JhjHlGivNAH3nxHCWIOEeIWK+RLalKWIqQ4SVt7MReFI29NA2GD2NSKJj+NUcOzzmnSnQkraoSp4rxGbZyDM/cg6OhvcqdKsakj3OEzmAqrmcTUT/nqFCMpk9aNaQz+ozPBA1+WmW2FOPTxzlGiZ6lHU2rKhTjMMx6wbFDG5VzVEzEaHlF59p3Vo7KOSrGYoS8wm20HetF0Y4JhWI4Y8VeELFew0/SUyiiTBx7KeeoGJ+xYq/w2AQV2ismYrRz7IT2BEBhYkIZMMU4TLByZHi2Ox8JplAMp39RKCQae2FnJvTqqvztbyGfVztmFSMYIa+wGTr0hogwN0dzc1M4RVbxs6dPQ04Iu8Xxz3NUKHoQYoT1wrAhRylMMSnj5r2UthQnYNyVo7JeihMwVt4LEdRBVIoTMHHeS6EYnwlqjkphikkZ4RwZFdorTsYI6xX+kFKY4gSMkJeug2mqnWeKkzNQXoig6xSLqf5BxckZZr0MA+Jx1eClODkj5BWLqeZ6xclR1ksxQ4bFXkpeilMy3HpRLKbkpTg5I52jir0UJ2dkaB+cYKVQnIAReS9lvRSnYRzr9cYuRvFzQ8VeihkyIjGhrJfiNIxITMTjpEJ7xYkZHXupcYSKE9NfO9yhqutgmir2Upyc/vscczm6ckXm8xSelq1QnID+8rpxQy4skBokoTglA61XLqciesVpUXG7YoYoeSlmiJKXYoYoeSlmiJKXYoYoeSlmiJKXYoYoeSlmiJKXYoYoeSlmiJKXYoYoeSlmiJKXYoYoeSlmiJKXYoYoeSlmiJKXYoYoeSlmiJKXYoYoeSlmiJKXYoYoeSlmiJKXYoYoeSlmiJKXYoYoeSlmiJKXYoYoeSlmiJKXYoYoeSlmiJKXYoYoeSlmiJKXYob8f9ulTmtUEbr4AAAAAElFTkSuQmCC;movable=1;resizable=1;rotatable=1;deletable=1;editable=1;locked=0;connectable=1;" parent="1" vertex="1">
                    <mxGeometry x="360" y="280" width="120" height="80" as="geometry"/>
                </mxCell>
                <mxCell id="6" value="" style="shape=image;verticalLabelPosition=bottom;labelBackgroundColor=default;verticalAlign=top;imageAspect=0;image=data:image/png,iVBORw0KGgoAAAANSUhEUgAAAYMAAAD3CAIAAABwwq8mAAAACXBIWXMAAA7EAAAOxAGVKw4bAAAgAElEQVR4nO29+ZMj13Xne869mQkkdtS+NHtvspvNzaS10BQthS1F2BIdipnxC/+N8rx5Mx5ttrVTFClxNclukr3vVdVdhSoU9tzueT+cRBYKhVq6uprZy/mEwxEqooFEAveLsx98//33QRAEIVWsTqeT9jUIgvC0o9K+AEEQBFEiQRAeAUSJBEFIH1EiQRDSR5RIEIT0ESUSBCF9RIkEQUgfUSJBENJHlEgQhPQRJRIEIX1EiQRBSB9RIkEQ0keUSBCE9BElEgQhfUSJBEFIH1EiQRDSR5RIEIT0ESUSBCF9RIkEQUgfUSJBENJHlEgQhPQRJRIEIX1EiQRBSB9RIkEQ0keUSBCE9BElEgQhfUSJBEFIH1EiQRDSR5RIEIT0ESUSBCF9RIkEQUgfUSJBENJHlEgQhPQRJRIEIX1EiQRBSB9RIkEQ0keUSBCE9BElEgQhfUSJBEFIH1EiQRDSR5RIEIT0ESVKByKIIrh9G//wB2txEdO+HEFIGVGidCCCIIArV9TPf27duiWfgvC0I2cgHYIAlpdVvY5EQJT21QhC2ogSpYPv4717yEokCIIoUTr4Pty9i2trcv8FAUCUKC2CAFZWcH097esQhEcDUaJ0CEOo1bDRSPs6BOHRQJQoHYg4Vi35e0EAECUSBOFRQJRIEIT0ESUSBCF9RIkEQUgfUaI0QQREAJAya+FpR5QoTRBBayACY0SMhKcaUaI0UQpsm4wB3xclEp5qRInSRGvIZMAYCAJpQBOeakSJ0oSViAiDAI1J+2oEIT1EidJEa8pkxDsTBFGiVOnbRCRKJDzliBKliVLANlEQgHhnwtOMKFGaJBFrsYmEpxxRojTRGhwHiND3pS9feKoRJUoTrSGbJSLJ4gtPO6JEaaI1Jd6ZxImEpxlRojTRGhyHs/hiEwlPNaJEaTJQYy0Ra+GpRpQoTbSGTIbjROKdCU81VtoX8FSjVGwThaHYRMJTjShRmiR9Z1JPJDzliHeWJoNxIvHOhKcZUaI0kQ5YQWBEidKkH7EmqWwUnnJEidIkiRNJxFp4ypGIdZooBZYFABBFT44SeR7cvasch6anCaWXTtgbYhOlAIuOUhuLPZ4YGSKCeh1/9zv94Yf6iXlTwteA2EQpYAxEESiFSj1ph9UY8DxYX8dsNu1LER4rxCZKgTDEMASlQOu0L+WgiSIIwyfK2RS+HkSJUiAMIQzBssiynrTzGkUQhpIHFO4bUaIU6CtRHK5+kghDDAKZ+ibcN6JEKRBFEEWoNT2R3plsTBL2wRP3o/w4wJGUJ9Im4jhRKt4ZL/W+eVPduqVOnjSTk8ayQMoIHheeuKPwOBBFGIb4pCpRWrOWeLjKpUvq3Xe141CxiPm8FDQ9Noh3lgJhCGFIlgVaP2mh3TBMTYl8H+p19DzQGhYX1e3bKghSuAxhf4gSpQBHrLVO3yZqtfDyZbW0hN0uRtEBPGGKcaIgwNVVNAaKRVpZwdu3MQzFInpsECVKgSROlHrEemEBf/pT68MP9eoq+v4BPGEYYlrdvL4Pq6uoNczMUL2OCwsYhilchrA/RIlSgItuLItSt4mCANbX8fJl9cknan39ACyIFCPWQQC1GiLi9DRpLUsKHjNEiVKAbSKt048Tcb7p1i316af6oJToa4sTRRF0OhumnO9jrYYAMDVFjkMiQ48XokQpwIbDo2ATMaxHB3J0WYm+hjiRMbC0hL/8pfX557GLy/YdAFWrxnEe+gUIB8ujcRSeMsIQH5E40YEzmDt7eFYJEYQh1Ot44YLKZuOXiSLodhEA8nmwLJJw9eOF2EQpMJA7e9JciCiK48QPu5Cn18NOB4dabY0BRNBaChofP0SJUuAR6TtjjwzxIM8tZ/F54tIOHfm3b+Ovf61v3dqQEmPg/Hn1wQe61dr9aoig0wFWoq2IDD2OiHeWAv04UZreGTs4UYSWBergfo9YZJl+VH7Ew27dUv/xH5bjhBMTUSYTP/jzz/XKCj7zjCkUdr/4TgfabZk98uQgNlEK9CUgzYi1MdBoYK8H5TK57oEdaBZZtkqM2SmPbgzW67i8jBzh5v+/x8A5EXS72G7HJZSiR08AokQpEEWYegdsokTVKrnugT0tx4nY49uhsIj/vrbGSoSsROypcYnDrnS72OkkLypi9NgjSpQCYQhhiNt5Ll8PxsD6OvZ6WK1SPn+QNlEQINtEUbRTOp8I1tbw3j3FGpREl3wfdu0XI4JuF7pdQOTGV5lD8tgjSvRw4VKdL79Uf/mLbjTiUCpPj7Wsg8+dhSHcvYt//KN1+fIun2wUISvR2Bjkcgd5AXuxiZj1dVxZYe8MfR95vprv794vRgSdDna7yFLu+9tKXhRBq4Uff6w//li327Jo99FFlOjhwu7GuXP63Xc3ipij6KHMJ+Loya1b6g9/0LsqkTGwvg7sneVyB2kTRVG8toRtImOg08Feb4QqNZu4toZhCLwFFwAA0PNwbzYRdrvIE4g8b9ihS9Jnnoerq/jhh/rDD3WjIZ1ojy6iRA+XIMBWC3nZdBKO5SN64N5ZFMGdO3jrFnre7nETY6DZRM+DSsUcaJwIggCUAqUgipAI63X8zW/0Bx/orbXXyXqlfo8IAZDn7e6dAYDnge+j4wAi+j4as8mMYqPMGFhZwStXMAgAEe7dw2ZTMvyPKKJEBw8RLC3h1auq28UggGaT29MxyXCzpcDH9QBfNAxhcRFv31Z76YYnAs/DKELXBcd5WDYREfR6cPWqun5dra8Pt/uzErFG+34sH3uME3F0yXHifzKocYhg26A1eR7cvYvXryvHAdele/ew2TyoN7pXwhA6Hbx1S127pnq9r/vVHyNEiQ4YPlqffKJ//WuLR22sr8ehE8+DIMDkYQeLMeD7uLioFhb2OiGMr+EAK5KJOHOP/JzsdvENabdhYQHb7dGvxDYRACgFnofJXdr14h2HEMH3cbMSUS5HjgOtFiws4M2bqlymsTFaXj6YeQP3Ra+Hy8v47rv6N7+x1tbEItsWUaIDhm2TTgebTQxD8H1oNJAILIs8Dz3vYb2u58H6OgBAJrPTyFS+vEuX1Ntv6+VlBDiwGms2bfgJtSZEiqIN06zdxtu3sd0e/W9ZRrlRYy82EaMUOQ6wQzcYJ0KEQgEyGWg2sdXCMITxcSqXaWUF91LAfbDcu4d/+Yu+fl01mxBFokTbIkp0wAyUxhAfsEYDjQHLAt+HA5lGNpJuF9fW0HGgWNxpZUgUgefBhQvqD3+wVlZGHwzPAz7ACRx1bjSw0dh2oFrS3qEUsU00WObTbuOdO2p7mwh9H9ldDQIYiiv7PjSbcaxtEESwbYItuTNEyOcpm6VmE7tdRISxMVMsUr2+rVH28FhZwQ8/1PfuybCkXZBujwPGmLi8ha0PtokAyHHiICvAQ/lKdjq4uoqZDFUquLoKABvxmkE8D+/eRTbTtjsb587pq1fV669Hc3OGI1mtFr77rl5cVETwzW9GZ89GW80oYyCKEJF4Ki4ihCElAtHp4OKi6nRGZ9FZvpVivR72zi5dUh9/rL/xjejYMWJ3jFEqjhMlNhHbd0pBoUDNJjabyDVH3NGyw1t+eBzgxJUnG7GJDpikcQEAwhB6PWg0UCnIZiEIDtI746jt7dvq5k3l+9DpwOqqymZhbCzOyvd6I4qVez1YWoqVaDvu3sWLF9XqKiRmiO/D9evqiy/UhQtqZSUug67X8auv1OrqRuSLX4776ZIsPtOP3I9+RY5YKwWWRVu9s1pNffGFvnFDcco/QakNm4hjUlrH4pvPQzZLjQbynBBWqH3LAf+oLC3hlSuq07lvq0pkaC+IEh0wXKRnDAAgT8xpNFApzOUO2DszBrpdeO89/fbbut3GTgdrNcxk4pgIADQaI05+t4sLCyqpsRwJH7xWCzudDcEiAqUgkyFjoNcD34dr19T/+T/2pUtq8F9xrMeyABEH40Q7mwYcsdaatB6hRP20oLp5E31/48o5RwZAvo+cB2TbBxEKBcpkoNmEbndPN3Nnogg8Dz/+WP/Hf1gcXBMOHFGiA4Z/3okAkdgmarXAtimXoyAAz8MkrPuAceJOB+/dU2tr2GphEEC7DfU6ZjI0Pk7VKiHC+vqIJBQntndNZhsDrRYONbsrRdls/NK1Gq6sYL2+ETbaahPtfaA13zStwbZHR6x5QuPQ4iClwLa5nig2i2w7dsRyOcpkqNVCzzuAW91q4fXruLSk9l0biQgAuDUEJiSIEh0w7J3x3B/+Le100LIgl6MgwG43PmYPXtPYauHioup2Yzet08FmExwHKhUzNkaIUK+PsIk8D2o12NXFiCJoNqHV2uTEaQ3ZLBFhu43Ly2ptbdOgMlaivk3EubO9dldEEfg+WhY4DgTBiMsmgpUVvHt3039CTOqJ2CYCxyEOUeVy4DjQ7aIxmMk8aN1Ws4mXLqnV1Y0CqPuFd9t1u9jrPahJxardbOITVp0kSnTARFFiE8X9ZcZAJgPZLPg+tFq4vo5aQ6GwMU5/fz/azSYsLCARWhY0GqrdRn7RbBbYO9taSchwexcnqrZ7XWOw1UJ+zoS+ElG7DUtLWKtt+q/GxD/4Se0411jv5b2wfPeVCEbWE22VAKUgk4kj1r1eMvKJYCAwVK3S8eMmn9/LVWxLswlXrqj1dWTV28dCx6kpMzVFS0t49+4DKRERNBp46ZL6xS82Bng/GUju7IDhzH1iE7HVkMlQNgueF3dacXInMYuSY8P/alf4kY0GLi0prSmbJfbRoO+wlMvUbGK9zt7Z8C84EUxN0dQUAcDhw2awC3fQwNlGiYAIWy24dw/X1jb918Q703pEFn/XmxYEHPSBIBjtAY1UItumbhd9P179atvxyKdE3MfG6PhxUyjQg1QS+T6urSmlqFCgZhPW13FiYkTRlufB4qKybZiaMhw7T5iaoulpunsXs1l14sQ+23BrNVxawvV1vHNHnT+vCoUnKhIuSnTAsBIBoNZsEyEAOA44Dvk+Nhq0toaWRdksDCoRDDSj7QpHcBsNvHsXjx83xSKtrmKrFX/1bZtKJQCgkd4Z8/zz0Xe/GwGAbcdmRXKuktljrRa0WjCkRK4bi9TyMtbrsFmJMIri6kStKamx3ou28lQQ2yaleCY/7kWUubIRETwPPQ8zGXKcjaZiflMTE3TihCkUCGD/SsTh9slJmp01KyvKdWFsLNr6Sa2v4+9+Z5XL9P3vk+vSoBLNzNDMDJ07px6kxe/SJfWf/2kZA2E4uqP4sUaU6IDhn3cAbgGNzQTbjv0Obg3XGkqljTPDjpIxaAxpDWEIa2t48aIaH6fTp0f8fgYBrK5iEMDYmJmaIteF27eRCA4dolyOLAtKJULEwdzZ1avqxg115IhpNpEIMhkolTa+yFzIw0WP/QumbndT7gw2bCJOAuJQxfCATRTXE7FNNFJQhhxSY5Cz+BzoASB21naO7/DjAdDzwPfBstC2N6R8YoK++91oetoUCnHwiEuKRpZZ7YWpKTp0iC5eRK3xxAnMZocrSI2BVgt6Pbx6VT3zjBkf37h3mQy4LoUhhuF+9IOlkMcPPP98ZNtw7px6wpRI4kQHTKJEWg8qETlOXKncV6KN77FSxIeEG8p7PVxYUO+8Y124MNpA8jy8e1cZA3NzNDNDuRzVamBZcOKEKRbJsqBQAERotzcG/Vy5on77W/3VV6pWGzGFnmPMnOnjAhzHAc8b/uHlOBFfwFbPy5g4Ym1ZiXc2umqJza7BY8zloIjkONQvEdp9+BlHrAHA96Efsd7Q9/FxevPN8NlnjePE0mNZcXR/f1OKxsZobo66XVxZicvNW61NN5P9x/V1Dm/Ht4jvgGURFxzwX7pdXF/H9XXcY5EBV04YA5kMvfSSee21iEdKPUliJDbRAdMftUNaIw91hn4rlutCuw21Gs7OEksG/6f+DI244mZxEW/c2Mn89jxYWkJj4JlnzNQUra9DGGKpZE6eNKxBfPCG6nc8D8+d0wAwWJLDWBbYNhiDvR5y/5frwtYL0DqOdnneiMNMBAPeGSsRbfU32bkwBlkXmGSWiOPE3qLvxyn5Hehn8eNLiiKOE42+a7YNlQoBwNqaqlZpH9t3bRvyeXrmGdNq4YULcUnnG2+E09MEfRlChFYLL19WExNUqRAbnoMmGP9QffCBunRJI8KZM9Hrr+8+K9f3cXkZwxCmp8l1CREQiZ30oYDU48sT8SYeJaIIecCF1hRFcdMjn898npQCzp0VixuHoe+dxdqxtIS3binPG+E/GAN37qiLF9WtW7FNVK3S2BidOGGOHjVTU8Q2y6DrwYb9zkVMlkWOA1HES8QAEVyXlBpe6NzPncUiNfRUfDAANibAjYxYJ1aJbW8coWQqCCuRUpiIHT/DyMtm5YLYJoIhm2gIx4GxMQIAHpCwD5QC16VnnjH5PF2+rL78Ul2+rFotTOrpeSJwNkulEq2u4uXLql7HKILBmKDvQ72OS0vqxg386iu1uLj7AfQ84GfrdGBuzrguaA0crl5f308i79FElOiA6Ues48hLYr2zElkWtVpo2zTYpzqkRPfuqdu31ci+kDCEv/xF/+pX1tWraAzMzJh8nmZn6Yc/DF95JcpkRvS+skAQQTZLL7wQvfBClM0O5324pDCKoNcD7hHN5UY8FR8z9hRGKlFST5R4ZyNNJ98HIhq8Wi59YCVKSoTYuWMlGhnZ4Q5YpSAIsF/ZuO26FK75BICVlf333DgOHD5MxSLcuIH1OtLA/H92Zm0bDh82b74Ztdvw/vt6YUGFIZZKlGzHbrdxcVE5Dk1MkGUNa/1WiKDZxFu38JNPdL2u5ueJizYnJwkRlpbidpYnAFGiA2awmZN3eDBcQ5TNxhHTwalAAxFrAIAg2Gj4GoIIul1uTEdEyGTi8HA+T9nsaMPB82B5GYk49UNnzpi///toKJFsWeA4FIbQ7ULfJhqRxeOItTHgeeg4MPSKST0RF/VsV2PdV0a0bVCKkj/ybbHteGwbt9dzR4sxm8yKQbj6gdU/imAwYj2E4wArUa12fzbRoFHGZlEmQ1GEuVyc1OcmPt+HXg8zGRobo/l5Y9vQamG9jmEI1SrxqBaloNXCa9eUZcHUFEeOdsEYuHxZff65Xl+HTIZmZ43rQiYDMzOkNS0s7DXStDOXLqnf/966fl0N1bJ+nRyYEtHAXB7fh14POCD3tG2ASRwN246DuAzbROzdAGzy7QdtIhgonPG8EdWJSZkvh2B3zQFxeJsIZmfNxIQ5etR897vh8ePDStS3ibDT4TjRaJvIdVmJwHVhaEtaYhMl3hln8YcgipP0jrOR505iTJZF/WJFZIuy20VjwHVHGDuJs9mfxII7e2esRKuruDVSNkQQQKMRD+HtV1cQ22W2DbkcVCo0MUHVKjUauLYGRFxJwElJqFbJcbjSAsIQKhXKZEApyuUgCOD6dbQsmJ6OlWiH08EKe/WqunJF2TaMjZmJCcpmKZOhmRlSChYW1APaRPxOz5/Xv/99nNBIa+nAgUWsez1cX4fz53Wthi++GLVa+Pnn+vnno5MnTbm8J/l/MuA0kOOQbW9aiKoUseWyFa1BKUqUKOHyZfW//7f1ne9EJ06Y5Meff1pht53L2B/k3G7D4qJCpLm50a8OA95ZFEG7jfk8ue5wHLQvE8RSUqmQ1sAjEFkWh7L4/TnWW+8Psq3kOBv2y6AXZtvEQWhjwJi4kqBQoJ2bG9hLsu1t16XYNlWrAABra8h5qO0CvcbAzZvqvff0Sy+ZF16Iej0MQ8hmN5758GHz4x8H9To2GtBo4NqaIoq4zttxKJOJHxZF0GyibVO1SpkMFArw6qvRV1+pixdVNkvj45TJ6MQYHHkx3S6urmKvh5OT9MYb4dGjhiP0mQxMTdHNm+ruXdXt7mE53PYsLKg//UlzXPLzzzURTE+bVJZf7V+J+Cbeu6caDSiXqd3GW7fUl1+qWg35F35tDa5fV4hw5ozh1OzTANtExSLYNrHLwGgN+fywHcEoRUrh1i6t1VVsNvXzz5tjx+LkGq8SK5dpeppmZna6pbYNrgtBAPU6Liwg5/u3K6vrR6wxCKDTgUJhk03EGUAOD3NE3BgoFMi2kc8Pn+qBONFGjfX2caLYtUz+mCgRWxMcgY4iSJSoXt9Welkcw5Bse9spcdz6x4Yq1x+x8TXqqWB1FS9c0PPzxO5hFMX/limVqFSi5WW8fRuXltTaGgBwxwlmMpCE4bj6tFSCmRmTyVA2S8eOGXYdpqcpl4szGO02uu5GIGmQ1VX86itl23T8OJ0+bTj3x++F44ytFuy6kWmHm+Z5sLKCFy+qfB6OHzcLC3jlipqe1mx5ra/HATW2BMfHqVCIS0kfBvtXIm7v/Ogj9dVX+oUXom4Xzp3T3S5GEXzyiZ6dNS++aK5eVR99pOfnabCO7snGGAwC5PLfRgOG4kQjtYDNfiLuCNvUe8FfXDayOI6jFMzPmx/8IJqa2smMzmapXCbPw3Ybl5Zgbg6mpw1voN8Kx4nYO2u3EYByuY22uDAE30et4+45Fp1CgeuGKLHUNvedEQBuFyfi3JnjkNY49LXmEUVhiBwniiLodBLh23RbEtuQGezFHwm7ja5L+Tz5PrTbODh0LSEpIEyqgXo9DEMsFGBILEolqlah2cRMJvbOej103Y2bHEXYbFIYxjaRZUGlQi+9FJ05YzIZqtWwXCaloFZTk5Nm5FKD27fxvff0a69FZ86Ywd+wxDF/kBlsxgDXNBkDL7wQvfii+dnPrOvX1b/9Gz73nJmdNefO6VotzvyWSvT669GJE2Zi4mEdZOu3v7WOHDH76IVptfDWLex2USm4dk3lcnT6tMnliMtw+Xd7aQmXl9WunuetW+qLLza+VocPmzNnHtcVecnQL8ehxBMBiEdV8EneevyU4pT/pm+b1tD3hsC2IQzjXYP5fDx/ZwdyOapWqdfjVUIb4e2RsHfmeYMR6w3jgjNT3J6aOIYsDVwTFEWgdew8wpYa6yH47bB3xon8KNoo1+afX8+jQSUignx+wzliyRtUoiSH5Tjb1hMxrgulEnketlpULo/widif5ReF/hCoMGSbaNMzc918Egrku1epQOIC82QVY7BcjkdNclaR3TfbhmqVjIHlZSgWoVgccbUceC2VaHJyOEzG3jci8mN8H+7cwbt31dmzEdc3AYDvw/nz2vPg6FHDJf7Xrql6HRNPv9PBMIQXXjBHj5qJCfOtb0WHD5t2G7tduHpVjY/HzYm3b6taTX32Gdy5o/J5On3aHD16YMezXscvvlCNBlq/+53+1rdgfDwypmOMT7TXASp377oXL5Y7nbZl9W7ehJkZc+ZMNDlJxeLGB6Z1NQgya2vrrusBEKJGdLR2jQmiaGNGzpdfFn7962oYNogiyyq+9lo4OdkAAERL65wxXhS1DuqdP2zq9ZznVTyv0+sF3a4bBDaAajZbtVrLGOj1dBBYjUa4vBwbS0TQbud931lf9103QAx6vSqRY0xTa21ZbrPZvnfPy+fDTkevrGR830Y0q6vtMNwpQNDrWZbl1OvZet2JItXtttfWGts9uNGwez2n1XKaTbvdttvtdrfbjaKq50UrK2tBoGs1Owyzvh/Was1Op0zkRlHdGEQstdvte/c6jmPW1uxm0zWGHMc0m2G7bXterl5vEIVhOAbgAECz2VpZ6a6tZdttHQRI5EQR1WqtRiNDVGw2m6ur3W430+nYxqharZPNUq1WCEPjOAFRIQhgdXU1DKNOR3teKQxxbW293XYBKkEA3a7fbNYtKxzp6fRvSwYxU69jJhM6TmerbAWBWlrKrK25xuh2u7283F5edptNTWTabW95eVP6oNGwg6Da7YbLy2urq4VmMzM21m63/eXlqNerRlGh28VOp+d5qyydgzSbCtHxPGdhwcnnWwAjwmDNZpGoHEWNXq+zNUzWarlRlFtfD5eWsN12PvtMX7iA2WxL6y5RhKg6HeuDD0qdjgMArkvdLr3zTu/WrQAgIoozJ4cPm9dfj2ybmk06dAjGxrBWw48+0jdu4Le/HXEEYH1d37ypzp0DpbKWVSTqFgptonC/c5ARUSuVVcoFwDt38E9/0ouLHn7zm+9Wq1CtNuv133c6X/r+PaI9xcBs+9VM5p9rtT/Uau91Or1MJhwbYyt04/qi6H8QnXScnyJeM6Zn25Oue7xc/m63e2V5+f9NHkb0nTD8H8vL/+r7S5OT/1worLjuHwHAcWbK5b9tt8+vrPzbvt5zKrxmzH835i9Ed7T+K6JDxlS1/p9KvQMQV7XNzGz4/AAqir5NNK/1IuItgDtR9C+dztTy8r9ms9NjY9/JZD7V+hLRCuI44lHPmzSmY9vvI26rLAAQBONBMF8ovKzU0V6vjPhrrf99uwcbM2fMM1ofRjxENGfMfxJ9SvT/KNXR+idKlYie8f3jACu2/cco+scoeh7g/yNyEf/Bst63rE+IWkQzRC8ThURtgHuIMwB/jfgbgJUo+heiwwCg9b8qdQ7gBWNKUQRERxCN47xDdDQIvq/1TxC/iKLjiDNalwE+QOwh/m0YdoLgJuLfKgWW9RPEJmLF979HZFnWz4lejaJ/QjSIFxD/J+Iq4rYnJAwPh+Ex161qXYuiD4iGzzdiTqmzxpwNgrNa/0rrDxBfDsOi77cs67LWtzY/fCYM/wWxpvVPEP+O6GQQvI14w7KaUfTfjfkOIiL+RamfIA4bEca4njdt2ydzudNR9Nso+mLU5/K9KPqRZf0E8cOt/7XbfbbXe2Fy0pTLFds+1Wy6jYaXzf5eqc+DYFnromXNd7vfs+1jY2OkNfp+5+rVt1dWvgiCjTPuujQ+Tkk8nuty63XsdHBsLI6+1+vIQz4Lhb+anPznXO4D2/4gCJajaD8VBEplHWeyUHi1XH4TEbpdXFrCe/fetU6fNryn9OZN2/PssTHbttVe6sfDUHc6ynXV8ePKGEU0wvTP5ZAIajVLKXgY7ccAACAASURBVLtYDJeX7U7HLpd1t2uvrGx4F6WSNTkJhw6pbFaVSrSyor76ygEAx7HLZZ3JWFrbB7iWayvsYnA/0fQ0DY7suF/CUIchZjJKa+V5qt8AoSzLBoDJSZichM3FE6iUMkYBaKW01hYR5nJw6pQCUMYgkSaytLaiyPJ9bdtKa4VoAeyUj8xmLaVUo6EsCw8dMp6nWq0dHq+JlOcpIrRttG0FoH0fAZRlWVFkRZF2nPh1Z2Ygl6OVFdXpqCBARA1ga20bY4WhUkrz/0WR8n10HK2UTsIZWiulrCDQiIoHjPA3xxgFAFpry7KIdBSpINCOYwFYvZ62bVUuq16P58NaRLYxtmUpvrwwVP1WW+U4FqK9w291NqsBVKulfF+7ro04/KNrjOV5FpFyHIgi7Xm2Mdq2VamkiDTRpntIpI1BRGVZVq+njVH5PL9fK5dDRB5Fgo5jbb0kRKtY1N2uXl1VuZwVRc7CQjxhcm6O+IcqDFUUoVKavzxDFArKcWBpSddqVjarxsZgfp6uXNHdrjM5aa2t2c2mfeIEui4sLaliEcplOHoUZmcxCLaUz/exbchmoVTa9MdyObl7WCqZGzf01asZ388YYwBgfJwqFchkNmoyOCewvo7c2JTL0Z07ijMt6+vY6zmO4xQKVqmkENF16ZlnaGqK8Gc/+0O9Dnfu4J/+FGSzwfe/71Uqwy7xSM6dc3/+8/L3vtf69rc7ADTyvV24ULh1yzGmNz/vnz0b/eIXzkcfZREzRGEUdVhZiECpjG3nfvSj9dOng3o9/+mn8Oc/s5OoEbN/9Ve9732vMWRtHSxRhJ4Hf/yj9eWX6gc/CE+cMNks7M/4/Pxz9+c/L73xRmd+Pvjzn3MLC1a3q3/4w8Zrr22z6wvw88/dpSW7VArn5oL5+eBnPyvXavqttxr1uvXpp7lDh7z5eX96Olxe1pcvO4iqUjGnTvVcdyfT1Rjdaulf/jLf6VhvvGFmZrqlUme7B9fr1t279pdfZpaXrSjS3/pW+9ix3s9/Xspm6a231ldW9J07dqNhT0yEL77YcRwX0Tamc+mSfvvtwunTvVOneuVytLxsnTuXdV0olcz4eLi4aH30kfvmm+2JifBnPysvLNgA8KMfrZ886Z07l/E8VSjAwoJjDJw+3bl9237//cJbb60/95x39659+7a9uKi/8Y2O49Bvf5ufnjYvveT97nd5z8O33lrPZMzqqvX55y4Avvlm8/PP3d/8pggAx497b73VqFSiHSqXWy1redn+7DPbdc2bb3Zcd9hU6XTUhx9mb97MtFrOs892Zmd7V65kLAuPH4+mpoJKZVNvRa1m/eIX5VIp+od/WP/d7wo3bjg//GHr0KEAkS5cyF+4kLtyRZ061X3rrcao7xJGkf744+yvf+3+8IfNiQn/pz+1795Fy4K33gpefjkCgPffz//2t8Uf/Wj9xRdHWB9haLdazq9+ZV24YCHaL71kzp6N3nknsKzgrbe8Tz+1/vznzBtvWFpb772nT50yr70WVqvdbNYHMLsXd4+i282sreX//Ofo3LnQGMNv6pvfjF55JRof3yhfCAJcWcHz59V771n/+I/BoUP0059aWsPZs9G5c/rWLa2UQnSUygLAM8+Yt94KJye7Fv/+I+LRo9luN7u8XFhYgF4PEGF6ms6ejbaWAnFuFUAhYi7nVirb/tgePoxE6uLFYqNhjIkQrWpVPf+8KZU0QPGLL9TaGh45QmNjVCiEp05lx8czros3b2qtXU70jo+bXC5Tr4/Pz5tqlQDg+nV14YICgLExOnvWKEXNJl67plZX41CcZcGxY2ZqijhLuhfW13mYni4Wsdczvm+mpgwRtNt44YLKZODs2WjnbsyEXE4DqFwuW6k4bOAoBbmcW62Ojl4QQT6vs1nMZp183lQqxnFsy8JSqWgM5nI6m3Wz2Uy5bFothai4rK5azYwsCNj8tPDtb2vfpyNHqFTKuO62IW6l0PPYnMFcjiqVbLnsWJZt21Qul9ttZdsqn4dSya5UnP59KBQKynF0Nuvm85ly2XS7yraV60KxSJUKNRqIaLluvlg0lqX7NydXKmVtW3M6Zn1dBQFmMgXLUoiQy+Uqlazn4eoqv1OdyYAxluOYqSnLdS1jsFQq2TZ0OpjNaqWoXC67bvzklmWXSqUBt3cErguIqJRFBOWyk88PP1hrBNBaq/FxcBw3CLJBgNksTUyY8fHsUAo4irBY1K6rta4iWlqrYrFQrRpEOHwYPc8sLqpMJlOpVEaWCxDxt8XKZgv5PPHnrjUUCkGlEhkDmYxWCguFfLU6ohIsisBxMJu1KhV19Kg5fdrMzlKh4EaR67qB42jL0uPj4cyMcV2YmDBzc5DLZW17m6KyPZDPQy4H3/ymfeSIw9UY7TYaA+fPQz5PR47Q889HFy6oa9dUu41376LW6sYNU6+T5ylEuHmTpqfp2LFkTGAIEKe2CoWMxR/P+Lg5cgRv3eL1Mri+Dp6HZ89Gzz47XArExf68M6tQoJ1Xqo+PQ7dLf/kL9Hpqbo6CAKan6fXXw7k5rui3bt1Sr7wSHTliuDsRAEolKpcpn6deD7NZOnLE2DZcvKiKRapWiQhu3FC//rUFAEeOmPFxsiy8dw8//VQvLKDW8bCxIABEw6Oz9kKrBVeuKM+Dchnu3cN8Xs3OmiDA5WV8/31dLtOzz26rRL4P3S4ScQlynNXm/FEy/Gy3OTukFG7NyGoN3JjKBTg8rLpYpGyWdgiFMIiQzcIrr+wp5MfTDnlbZLE4/Jny1jauw9582Ru5M37XUYQA1J9jPTqLn8z55iJAonjGbnIrHAe5xpoHNnkectMcF/Vxror7afgv94XjQD4fL6QbmdLljJIxMDFBRLS8jI0Guu6I3BnfgUKBu5qBC7KTsu/xcfB9unSJtood009+xanAMIy/BqxQPCvKGBysRB+C03CFAszP06uvRvPz5DiQy1Grhc0m9nrIKc6jRw8s1cUD/yqV6MUXAQDabazV8P339fnzqtvF1dVodtZ89pn+5BPNuddymRYXcXExrtW4exdff92cPRuNj484mPHxsiw4dMi02/qrr3B21pw+TVxwuZVWC5eW8KOPtO/Dt78dzc/vXF9HjoNKweIivv22np+ns2ejJGHJhRLJfq6E+Xl6883o889VFOGxY7S8jF99pZ591nDxe/KtXV7Gf/93iz9LfuZymXgV6sIC+r6enNxFKBPabbx2Tc3N0cmT5vx5tbgIUYTLy3jlimq1cOdiqJs31TvvWFEElQp95zvxxXG+lggQ0XF2iTqxVA22hjD9UgDioxsEPJzfcCnAAcLTc6KIELFYHK4PCAL0PGSFGjz5XNUCEPeXUX/L0MC+sxE11iypLLJcxBgElJTn4cBaV74bfLy5zoB3ELESIdJeml2GwP68tJEyxBLAa2Onp83qKtZq2Gzi5CTlcsNCDABaQ7EIvg/r68OzE2ybpqbg+98Pt/Ybb6XVwkIBCgXI56nbxSCAVgtXVzEMYWaGdjB+HQe+/e3I92FsjFyXuCl6aUlduKCXloZrtQ6cTIYmJuD116P5efPOO9b16+p//S97eRnLZfrOd6LJyRG3eGyMSqXRXcrx37SGapVmZ82RI8i2xtWrqtHAL79UHKCZmCCu6VhcxCtXVLeLExPmuedij2k7+EfjxAlTLiMAHD5sjh0zXKcLADMzNDIWU63SmTMRF+bMz5v1db22hjw/mLf3TU4S9zf3erC2hp0OvvBCePq0KZep18N79/DaNevqVZieVoXCpg7GSoU4IzAkDb4Pa2t44gTNz5tPP1XNJhDBygpeu6Y6HYCBarqtNBp44YIKApiZoddeS04UcQOHUjSym3ToLvX7zja9AB8/thqI4gJobog/2C8Z6wIRKAXFImxRIkjqiYYum7vJowiIcLDGOqknGpxGwh8EKxHXUjsOeB5t7onZWOs6NBXEtsmy4tbfIEC2yBjc81bF7eaiMGEIfRMMpqZodRVXV5FNpJHV2zzdpdHAen140waXjx09uqfLajYxn6dCgSYmoN2GXg8XF9XKCkYRcMvrdigFc3MbBz4MYW6OPI9u3lRRBEeO0AOuEtgZywLLolyO8nms1yNeFjA/T2NjdOZMdL81kPGHyRVlx46ZuTmyLOLK0atX1f/9vwgAxSL8zd+Ex45RoQAXLugvv1Tf+EZ06pSZnja7Rk/KZfq7v4v4W8VDG3Y9Ra5LmQyMjYVEyONEiaDRQLb0fB+ee86cPRtVKlSr4X/9lz5/XpdKVKkQf/wTE2DbtLiof/lLHPyOIsIrr5jXXovGx2HICgOIB+JxET3rTq2GN24oPiTsOo28cuoPABp0r5JgPLtsO8faEbnvbDijoTU5DgUBBgEl3hmvkz1om4hVJh71P2RIBgF4XvyYkTZRUo6ceGcceUxmvw0pURgiu2aZDHW7OKhE/D3EgQXTCVwJGQRAhL6PSqFl8cywWMcfHM/Dbpd7XGlykr76CnjAEGwzlkQpKBap08F6HUfOk9oVRECkRgPyeSwW46V47TZeuoTNJpZKdOiQ2c6/24rWMD9PrRZ98gkeOWJefTUanGD78CiV6Hvfi5LPmjd03u+TbAhJv4ua04dw+rQhgmvX1OysmZmhmzdVrUYTE+T7MDNDc3NmbGxPssKDFO7rmpJqVLaYZmbMq69G9TrevaubTZybo+eeM5OTlM+TbcPLL0d8PUn5b+LsdDp4/Lg5dcoAAH/AngcffaS/8Y1oqxJB33RP4BPCjZqdDtr2LmXNI9EacrldZg9qDUrh4BZ5hg0Ez4vbI3i6K0cHDtYmSiwFnoHN7QvJH8OQVwANB0oSqySKkIgS77LvncV/GezMYLvJ98F1Y5tIawrDje68fgcsbe3j55Junio7GCeanTWvvhpdu6b2fk8Q44487v9I/u550G6D41Aixzsvj9SaikWo1WhtDT0Ptmsw3gHXpclJ6vWwXodDh+LykYsXcWFBeR7k82Znm2jr+8pm6dAh8+abYbVKs7M7eXYHyD7O+FZGH5FMhk6fjhCp2cRTp8zhw/Tee/rWLVWpmGoVTpyIM1MP+Np7ZGaGXn01eu89zV7hzEx05IjJZMiyoFymcnl47DwiFArAbuPzz5vvfjcEgG4XazV87z396adqft7kcggAmQxsDeIk5gwfIZ5H0elgLrcvpbfAdXefgtr3zoZsothp4mWEQYBBgINdFweObUOhAJkM9HobI2h9H30fublhq01ENBwnSnZ7sJ2YjJRlsygIkLcwcfjTsrDXg8E4Effxh+GmGBNiPGyfvTaO7/IP4dwcaR0lU592BRFyOWo2cXERHWdTVzAPistk4sUEuzp93EtoWcBziHhs232Rz8PsLNVq2GhgsWhYOy5fVqur0O3CyZMwMbHt7LeR8LyR6ekHatBPhdHvkuPezz9vZmYCDmG+9hpcvqwuXlRzc9GxY4YHen89uC5NT8PLL5tcDj77TFkWZLM7feSOQ6+/Hr3wQgQAiXXqODQ+Tvm86vXwnXf0f/2XBoBnnzVnzkS8p3CAeCwht1Pl82Tb1GxCsQiFwn1fPLeA71mJhuNEmQyPl44TOtwR/jAikWwBWRY3lJHnxTt/ej3o9WLvbOfcGdGw6LAMGUPJ0g5jsN2OU4GOQ46DQ5MtYWD42ZAK2Ha8q5pzef0MHbkuzM4CL00aaeoO4Tj0wgvm2jX88EMNAIOHlhf2ZjKQy+3pJrMza9vQbKLrwsTEngrxBsnn6dAhs76ugwCKRSqVyLbpzJlIKfjsM8WBwocdeH5EGH1EuGEyGbgZRXD0qFGKQ8g0Pr7XnNTBXKIF+TzxjkAimJ/fZX6K1pvCeMkfXRfm5+n06QgAwhB5Lj2iPn7cJDuClYJ8Ph5ZHwRxSQHP3/P9/bxlft1dlQiRokhtZxP1esAr6nn+7MP4anKUsB/VYhuE4zXY68Xe2dCHjrjhy/eViABigwj6vhgLejYLrktRBO02R4WJvTPL2pTFTxiSIb4e9s6CgFuC4+ibbYNt097XENo2HDpk1tfVhx/GTQwJfJ9zOehPrd/FLFIq7iv2PJycNNPTe60aSSgUYG7OXL6sOh3MZrk+A+bnSamI55Q/GdPy98KeLD+toVKhQiE6dcrY9sP6Wd4BRCgW6eRJOnJkl+jvzpw5E508aYig24WVFfz0U/3uuxqReP0x/56PjdHyMl6+rDwPp6dNtRorkeeN2Ke6K5ZFI+cNDpLYREMxWq05ix+PUuRZHA9p5lwuF5cgJIsYeZYAr5xnr3Doc0eMo/sD9UScNNx4WFJR5bpUKlEUUbMJPPWGlz5aFkesd/8+cZyIw+e+j5zJ3cf3UCkol6lUGqEyPESlUjG5XPzMewmD8vNUKjQ9fd+RxFyOZmchn48jgKw7HLo+fPiBvuqPHXv1Qftp19RuDR/XB5y4lryFTAYcBy5ejEdnVir04otmbs5oTRMTpt1WS0tYLsP8PGUyxCOv9rcQom8T7VLrwDWZWysbM5l41xUPGOYlgg8DroQc/J+OA0FAvd7GUO2hY8k2kTEbo3yS+UTJI1meON9XKpExyEM2qD/91rIoDNXI9dNDOA7ZNna74HnIk9v2/YvIY1i2/p294EyGS7GhWqX5ebOyspfXoHKZpqZGjxnaAf56vPxy1O1iUmd3IF/1x46ndN8ZL4+vVqlQoFoNXZd4BoLWMDFBKyt04YIeHzdzc0REa2vYbI5eCLFrGcve4kRxjfVQtkjreF9jrwet1sZ2kPt8r/uBlYhferv8EceJPG/QOwNE1HrDeOQ3xUpULsfTadn0S0qEggC2U6KkcoKz+5ZFvq84wZ9MQXoQhsrEPA/bbXCcOE40MUFHj5pOZ5cwOE/R57HW9/s7waJz9uzjOo3rAHlKlYh5/vloetoAgOtCUvE4Pk7lMvg+5HI0M2M8D1stjhMNf+uTSqKRxSYM54l3CGzh5s2Lg3CciOWg3cZCgR6eTTQER0CCIJ5YuN1jWImSdUA88CyJEwFwnCieYFksUq2GrdaGE9q3iYbdUmawFgkgTrTxuGgATHJn+yMpLGBR4+fh/Ry2HQ/JnZykEyfo5s1dfMAjR+i//beQk1xPSXT5YfBUK9HEBA1VghJBLgfT03T6tOGht54HloWt1gjvbHCgH9Ho7+Be6omGdnsM/luOWHsettuUz0M+/7DiRENwnEhrZJNnu8cklY0AQDSiCJC9M64LL5fp3j3e4Bz/Z648GqxsHIRtpWQgbJI78zxM1mzsG3aLiKDTQdeNR9NyH4llxZpSKNDcnHnuOczldqoP4LHW+78UAQCeciXaCp+uI0fM7CxxRTj3LnQ6I5Y4R1G8hLNapZG/6gBgWZTN7uJSJZU7WysbbZuI4oq7hxonGoK9M84K7axEgxHrpJ5oKGKdeGfGYOKdQX9bLOfCtuJ56PuQzcZ7hzh3FgTQ64FlsU20/zSi4wA3VK+tcTCeYMuEbMuCsTH63vfCRHOFh4fc4BEktebQb0/lw9Zu4/nzCgCOHTPFIhFBvY6+j+PjxKtTiTZCKkmFzv30nW36O/bbNcMQ22005uvzzhCJ6yc5TjSSft8ZDtQTAcCmlfNJxDqTgUKBkl0drCBak2Xh1kIqALZWoNcD141XbPfjRHFfBfuGD6JE4+PEPT3lMo2sj+NPcB+V08I+ECXahaQ0xhjodODjjzX3eR49alyXlQgmJqhWo15vU9RZ69huHxxnN5JE7EY2r0N/sjptHiz/UEGETIa0xh3iRLilF98YZPUc8M7QGNKauHDZdSmXixfsQH9iAd+0rZrS7UKvF68hAEg6YMHz4pd4ECXKZDhJirUaHjq0zycRDhBRor3CjdrGwL17+Kc/acuC48dNvY5BgLOzZmkJeHxHEk7i1l+eL7PzgcG4AxaNIdqyPweAg9ZItHsa7qDoe2fEewdHMlBjHQuo6S+G3ByxBu5W1Rpeey06edIAANe1Y3+DK9ccDUIE3S7yslmu9+t3wCIXWA/24u8Dtol4+Ibv76dSTDhYRIn2SqOBtRrygvY7d1SzacIQ1tfRsmB8nEol6nSQm6r48ZkMHD68p+zs4HwiNri2KhFHUh7e3rshhiLWI71LDgnBQC/+1rKjRGVYnqanKdmBs/XZht5at4u9HuVysX/EaXvbjmewsW/4AN4ZjY3BjRu8nHqfTyIcIE9NMfkDwzs/x8bis8T+WqPBEWvDXhj7DvdLEifqZ5FoMBHO8CHf1bw6KLC/H20Hm2hrB2wyjSghqXLYOVK2VYa4Dp7jREnjMe8+5TmWQ6Hx+4Uj1gBQr+PIeLnwNSNKtDt8Tmo1XFhQ4+M0O0tKxc4aHwnbjmcqBQFwo/l9oRT1lQiDABEx9cqUgdzZ6GIf6EesIbaJRl9u3zvbJVLG1UZDWfluFz0PE5sIACyLSiXOvuNW8bovkhLtwbLMwfIl4WtGvLPdYUue/ZSpKWNZqJTmbkluguG2jEwGfH90KfbO9G0iDEPiyTuPghLZNilFnscR6xHiqhTZNvZHSo5+nqQDdjChthXHoXJ5eCZktwu9HrruhhJxZbzrUr0e9wnum8SkiiJoNrFeR63JmKeo9/1RQ5Rodw4doh//ODAGLAsmJ6nZRAC4dw9dV42P0/R0PPUimyXfh30EHRLvjCtrEMmyHvoQ4p1h74xzVdvZRENxopHwYJBddwpkMlCpbDRtsWHieej7lM1u8s5KJdr75LC94Hn4pz/p69fV0aOR50GlMmyaCV8PokS7UywOrdgGAFheVrZtZmdpdtawL8PzFbna5b50ZLAX/9GxiRKTYbvBrEOVjSPhhKBt765E1erG/Gye9dNsYhRtGiDdV6IDy3Pl81Qs0r17qtUiHkQ9Nva1TrwREiROtE9WVnBpSU1O0uxsnGPOZIi7ou53pgwrEYd+gwAfsFLmYNk6ISAhyeLvMGKVqxaV2mW7SSZD1erGcJ9ymU6ciLh2dDCTaFnE3tn+3stWxsbo6FHD7t4XX+h2G8fGxCZKB1Gi/cCFiGEIPBaec96OE09WnJy8v5mWSfFkFGFfiR6Dn2XcPCltJEnf2R5sog0vrFqlZ5+lcnm4FItzZ9wofyBKPTlJJ06YQoGI4unaI1dxCV8DokT3TTLYEGCjP5O9s04HAYB3gd/v07KbEwQPWj38tZHUFhqzU8R6L1n8TIYqlQ0JKJXo6FEzO0vl8iZjSmvI56FcpsHdxw9CpUJHjtDMDJVKhAi5HI2NiRKlg8SJ7ptikY4fNzdubBJx9s6CACwL5ufvY5jpILzibWucCDHN7PJQ2fTg31kmdtjws6tNlPR2lcsbARqtIZejb30rDMNNay/5Sp57zkxNBVNTB6BElgXVqnnzTRgfp7fftvJ5qlTuexa1cCCIEt03xSKdPGkaDVxf3zidtk2ZDBrD07LNPmbvQ7+WeqtNZNtQKtH+nvPByWZHd94mEZwdYkn9eqJtbSLXpeeeMxMTNLglgQNns7MjFnMiwtgYJbvLHxBuzT10yBBBvR4dOkQ7D5MSHh6iRPdNqUSnTpkbNxSn8xnH4fYocl2YmbmPHVWDRFEcsbbtTTXW2SwdPjw8Sulro1ikycnRc1ERN0qrR8K5s+2mtQLA2Bj9/d+H/fV2qTE3Z/7pnwxPKRFSQW78fcO7Rl56KTp82CQ/zohQLsPf/I3JZndfP70d/U1em2wiRMjn4dgxcyD+yD6oVGB2dj9bJ2HAJtrOO+PRRanDg9OEFBElum+4rvq557aue6RXX32gjXdbvTNEKBZpetocPmzGxtKZdlwu08wM7U8vkg5YcXmEnREleoQwBoMAs9mNichaw1//dRQEeL+7QA8IQoRSiaam9lnvl0xKEyUSdkaU6BGCbSLe1JjYRDMzIwK3Xw+VCrz4YvTMMyaf36cOJvvOnp4NgsL+ECV6hIgi8H3YGrFOi0OHzI9//EBxXO4727XGWhBEiR4h2CZ6FPrOmAeP7wxOShOEHZAvyCPE5oj1k1Bft2s9kSAwokSPEMY8ch2wD0gSsd6unkgQGFGiR4j+VJBU0mQPBW5J26GeSBAY+YI8QmzX7fH4woNZRYmEXZEvyCMEd8DytI3HXYm4tTXZqioIOyNK9AjBlY2PnU3EW7lbrU2zQZJ3sXX1kCBs5UkJSDwRPDrTY/cOIrRa+Pvfa9/HwVZYy4JcLl7SLQi7Ikr0CMGTWB8vm+jQIVpZMTdvDttElkX5PMlSQ2GPiHf2CMEVyYiwdfPiI8vLL0c/+EE4Pk5DI4psGwoFmQkt7BWxiR4hSqWNSaaPC5YFPMl7698LBRAlEvaI2ESPBHySKxU4edKUSo+Na7YDti1KJNwHokSPCkpBtWqefdaUy09CObJtU6FgZCa0sEfEO3skyOfp9OlobIwmJ5+Qie6JdxaGaV+K8DggSvRIUK3S978fPl5Zs52xbSgWwbah2037UoTHAVGiRwKeSPtYM7QHiad92zYBPBHKKjxkRImEg0FryGY3QtS2Tfm8RKyFvSJKJBwMpRI98wwl4Xa2iRwnzZ2RwmOEKJFwACBCuUzPPmuq1fgv7G8eOWIKBdzHbm7haUOUSDgAeAXIqVNRsbjxF0R49dXIGPHRhN0RJRIelGIR3ngjymSoWIShEoQnZuSb8LCRb4rwoORy9MorD7RyUhCkxloQhPQRJRIEIX1EiQRBSB9RIkEQ0keUSBCE9BElEgQhfUSJBEFIH1EiQRDSR5RIEIT0ESUSBCF9RIkEQUgfUSJBENJHlEgQhPQRJRIEIX1EiQRBSB9RIkEQ0keUSBCE9BElEgQhfUSJBEFIH1EiQRDSR5RIEIT0ESUSBCF9RIkEQUgfUSJBENJHlEgQhPQRJRIEIX1EiQRBSB9RIkEQ0keUSBCE9BElEgQhfUSJBEFIH1EiQRDSR5RIEIT0ESUSBCF9RIkEQUgfUSJBENJHlEgQhPQRJRIEIX1EiQRBSB9RIkEQ0keUCbV6hQAAAINJREFUSBCE9BElEgQhfUSJBEFIH1EiQRDSR5RIEIT0ESUSBCF9RIkEQUgfUSJBENJHlEgQhPQRJRIEIX1EiQRBSB9RIkEQ0keUSBCE9BElEgQhfUSJBEFIH1EiQRDSR5RIEIT0ESUSBCF9RIkEQUgfUSJBENJHlEgQhPQRJRIEIX3+f9hZHqS9G9vcAAAAAElFTkSuQmCC;" parent="1" vertex="1">
                    <mxGeometry x="480.33000000000004" y="280" width="120" height="80" as="geometry"/>
                </mxCell>
            </root>
        </mxGraphModel>
    </diagram>
</mxfile>